SplineFontDB: 3.0
FontName: Climacons
FullName: Climacons Regular
FamilyName: Climacons
Weight: Book
Version: 0.001
ItalicAngle: 0
UnderlinePosition: -102
UnderlineWidth: 102
Ascent: 1536
Descent: 512
sfntRevision: 0x00000042
LayerCount: 2
Layer: 0 1 "Back"  1
Layer: 1 1 "Fore"  0
XUID: [1021 36 -1645143551 15872360]
FSType: 4
OS2Version: 3
OS2_WeightWidthSlopeOnly: 0
OS2_UseTypoMetrics: 1
CreationTime: 1336179544
ModificationTime: 1393395735
PfmFamily: 81
TTFWeight: 400
TTFWidth: 5
LineGap: 0
VLineGap: 0
Panose: 0 0 0 0 0 0 0 0 0 0
OS2TypoAscent: 1536
OS2TypoAOffset: 0
OS2TypoDescent: -512
OS2TypoDOffset: 0
OS2TypoLinegap: 0
OS2WinAscent: 1520
OS2WinAOffset: 0
OS2WinDescent: 538
OS2WinDOffset: 0
HheadAscent: 1520
HheadAOffset: 0
HheadDescent: -538
HheadDOffset: 0
OS2SubXSize: 1434
OS2SubYSize: 1331
OS2SubXOff: 0
OS2SubYOff: 287
OS2SupXSize: 1434
OS2SupYSize: 1331
OS2SupXOff: 0
OS2SupYOff: 977
OS2StrikeYSize: 102
OS2StrikeYPos: 512
OS2Vendor: 'pyrs'
OS2CodePages: 20000111.40000000
OS2UnicodeRanges: 8000002f.4000004a.00000000.00000000
DEI: 91125
TtTable: prep
PUSHW_1
 511
SCANCTRL
PUSHB_1
 1
SCANTYPE
SVTCA[y-axis]
MPPEM
PUSHB_1
 8
LT
IF
PUSHB_2
 1
 1
INSTCTRL
EIF
PUSHB_2
 70
 6
CALL
IF
POP
PUSHB_1
 16
EIF
MPPEM
PUSHB_1
 20
GT
IF
POP
PUSHB_1
 128
EIF
SCVTCI
PUSHB_1
 6
CALL
NOT
IF
SVTCA[y-axis]
PUSHB_1
 3
DUP
RCVT
PUSHB_1
 3
CALL
WCVTP
PUSHB_1
 4
DUP
RCVT
PUSHB_3
 3
 18
 2
CALL
PUSHB_1
 3
CALL
WCVTP
PUSHB_1
 5
DUP
RCVT
PUSHB_3
 4
 18
 2
CALL
PUSHB_1
 3
CALL
WCVTP
PUSHB_1
 6
DUP
RCVT
PUSHB_3
 5
 44
 2
CALL
PUSHB_1
 3
CALL
WCVTP
PUSHB_1
 7
DUP
RCVT
PUSHB_3
 6
 34
 2
CALL
PUSHB_1
 3
CALL
WCVTP
PUSHB_1
 8
DUP
RCVT
PUSHB_3
 7
 32
 2
CALL
PUSHB_1
 3
CALL
WCVTP
PUSHB_1
 9
DUP
RCVT
PUSHB_3
 8
 22
 2
CALL
PUSHB_1
 3
CALL
WCVTP
PUSHB_1
 10
DUP
RCVT
PUSHB_3
 9
 20
 2
CALL
PUSHB_1
 3
CALL
WCVTP
PUSHB_1
 11
DUP
RCVT
PUSHB_3
 10
 19
 2
CALL
PUSHB_1
 3
CALL
WCVTP
PUSHB_1
 12
DUP
RCVT
PUSHB_3
 11
 19
 2
CALL
PUSHB_1
 3
CALL
WCVTP
SVTCA[x-axis]
PUSHB_1
 13
DUP
RCVT
PUSHB_1
 3
CALL

StartChar: exclam
Encoding: 33 33 4
Width: 1101
GlyphClass: 2
Flags: W
LayerCount: 2
Fore
SplineSet
33 518 m 256,0,1
 33 596 33 596 62.5 664.5 c 128,-1,2
 92 733 92 733 143.5 784.5 c 128,-1,3
 195 836 195 836 263.5 865.5 c 128,-1,4
 332 895 332 895 410 895 c 256,5,6
 488 895 488 895 556.5 865.5 c 128,-1,7
 625 836 625 836 676 784.5 c 128,-1,8
 727 733 727 733 756.5 664.5 c 128,-1,9
 786 596 786 596 786 518 c 256,10,11
 786 440 786 440 756.5 371.5 c 128,-1,12
 727 303 727 303 676 252 c 128,-1,13
 625 201 625 201 556.5 171 c 128,-1,14
 488 141 488 141 410 141 c 256,15,16
 332 141 332 141 263.5 171 c 128,-1,17
 195 201 195 201 143.5 252 c 128,-1,18
 92 303 92 303 62.5 371.5 c 128,-1,19
 33 440 33 440 33 518 c 256,0,1
348 276 m 1,20,21
 383 266 383 266 410 266 c 0,22,23
 461 266 461 266 507 285.5 c 128,-1,24
 553 305 553 305 588 340 c 128,-1,25
 623 375 623 375 642.5 420 c 128,-1,26
 662 465 662 465 662 518 c 0,27,28
 662 569 662 569 642.5 615.5 c 128,-1,29
 623 662 623 662 588 695.5 c 128,-1,30
 553 729 553 729 507 749.5 c 128,-1,31
 461 770 461 770 410 770 c 0,32,33
 375 770 375 770 348 762 c 1,34,35
 428 739 428 739 481.5 673.5 c 128,-1,36
 535 608 535 608 535 518 c 0,37,38
 535 430 535 430 481.5 363.5 c 128,-1,39
 428 297 428 297 348 276 c 1,20,21
EndSplineSet
Validated: 1
EndChar

StartChar: numbersign
Encoding: 35 35 6
Width: 1101
GlyphClass: 2
Flags: W
LayerCount: 2
Fore
SplineSet
33 518 m 256,0,1
 33 596 33 596 62.5 664.5 c 128,-1,2
 92 733 92 733 143.5 784.5 c 128,-1,3
 195 836 195 836 263.5 865.5 c 128,-1,4
 332 895 332 895 410 895 c 256,5,6
 488 895 488 895 556.5 865.5 c 128,-1,7
 625 836 625 836 676 784.5 c 128,-1,8
 727 733 727 733 756.5 664.5 c 128,-1,9
 786 596 786 596 786 518 c 256,10,11
 786 440 786 440 756.5 371.5 c 128,-1,12
 727 303 727 303 676 252 c 128,-1,13
 625 201 625 201 556.5 171 c 128,-1,14
 488 141 488 141 410 141 c 256,15,16
 332 141 332 141 263.5 171 c 128,-1,17
 195 201 195 201 143.5 252 c 128,-1,18
 92 303 92 303 62.5 371.5 c 128,-1,19
 33 440 33 440 33 518 c 256,0,1
285 518 m 0,20,21
 285 465 285 465 294 420 c 128,-1,22
 303 375 303 375 320.5 340 c 128,-1,23
 338 305 338 305 360.5 285.5 c 128,-1,24
 383 266 383 266 410 266 c 0,25,26
 461 266 461 266 507 285.5 c 128,-1,27
 553 305 553 305 588 340 c 128,-1,28
 623 375 623 375 642.5 420 c 128,-1,29
 662 465 662 465 662 518 c 0,30,31
 662 569 662 569 642.5 615.5 c 128,-1,32
 623 662 623 662 588 695.5 c 128,-1,33
 553 729 553 729 507 749.5 c 128,-1,34
 461 770 461 770 410 770 c 0,35,36
 383 770 383 770 360.5 749.5 c 128,-1,37
 338 729 338 729 320.5 695.5 c 128,-1,38
 303 662 303 662 294 615.5 c 128,-1,39
 285 569 285 569 285 518 c 0,20,21
EndSplineSet
Validated: 1
EndChar

StartChar: dollar
Encoding: 36 36 7
Width: 1101
GlyphClass: 2
Flags: W
LayerCount: 2
Fore
SplineSet
33 518 m 256,0,1
 33 596 33 596 62.5 664.5 c 128,-1,2
 92 733 92 733 143.5 784.5 c 128,-1,3
 195 836 195 836 263.5 865.5 c 128,-1,4
 332 895 332 895 410 895 c 256,5,6
 488 895 488 895 556.5 865.5 c 128,-1,7
 625 836 625 836 676 784.5 c 128,-1,8
 727 733 727 733 756.5 664.5 c 128,-1,9
 786 596 786 596 786 518 c 256,10,11
 786 440 786 440 756.5 371.5 c 128,-1,12
 727 303 727 303 676 252 c 128,-1,13
 625 201 625 201 556.5 171 c 128,-1,14
 488 141 488 141 410 141 c 256,15,16
 332 141 332 141 263.5 171 c 128,-1,17
 195 201 195 201 143.5 252 c 128,-1,18
 92 303 92 303 62.5 371.5 c 128,-1,19
 33 440 33 440 33 518 c 256,0,1
158 518 m 0,20,21
 158 465 158 465 178.5 420 c 128,-1,22
 199 375 199 375 232.5 340 c 128,-1,23
 266 305 266 305 312 285.5 c 128,-1,24
 358 266 358 266 410 266 c 0,25,26
 461 266 461 266 507 285.5 c 128,-1,27
 553 305 553 305 588 340 c 128,-1,28
 623 375 623 375 642.5 420 c 128,-1,29
 662 465 662 465 662 518 c 0,30,31
 662 569 662 569 642.5 615.5 c 128,-1,32
 623 662 623 662 588 695.5 c 128,-1,33
 553 729 553 729 507 749.5 c 128,-1,34
 461 770 461 770 410 770 c 256,35,36
 359 770 359 770 312.5 749.5 c 128,-1,37
 266 729 266 729 232.5 695.5 c 128,-1,38
 199 662 199 662 178.5 615.5 c 128,-1,39
 158 569 158 569 158 518 c 0,20,21
EndSplineSet
Validated: 1
EndChar

StartChar: percent
Encoding: 37 37 8
Width: 1101
GlyphClass: 2
Flags: W
LayerCount: 2
Fore
SplineSet
33 518 m 256,0,1
 33 596 33 596 62.5 664.5 c 128,-1,2
 92 733 92 733 143.5 784.5 c 128,-1,3
 195 836 195 836 263.5 865.5 c 128,-1,4
 332 895 332 895 410 895 c 256,5,6
 488 895 488 895 556.5 865.5 c 128,-1,7
 625 836 625 836 676 784.5 c 128,-1,8
 727 733 727 733 756.5 664.5 c 128,-1,9
 786 596 786 596 786 518 c 256,10,11
 786 440 786 440 756.5 371.5 c 128,-1,12
 727 303 727 303 676 252 c 128,-1,13
 625 201 625 201 556.5 171 c 128,-1,14
 488 141 488 141 410 141 c 256,15,16
 332 141 332 141 263.5 171 c 128,-1,17
 195 201 195 201 143.5 252 c 128,-1,18
 92 303 92 303 62.5 371.5 c 128,-1,19
 33 440 33 440 33 518 c 256,0,1
158 518 m 0,20,21
 158 465 158 465 178.5 420 c 128,-1,22
 199 375 199 375 232.5 340 c 128,-1,23
 266 305 266 305 312 285.5 c 128,-1,24
 358 266 358 266 410 266 c 0,25,26
 437 266 437 266 459 285.5 c 128,-1,27
 481 305 481 305 498.5 340 c 128,-1,28
 516 375 516 375 525.5 420 c 128,-1,29
 535 465 535 465 535 518 c 0,30,31
 535 569 535 569 525.5 615.5 c 128,-1,32
 516 662 516 662 498.5 695.5 c 128,-1,33
 481 729 481 729 459 749.5 c 128,-1,34
 437 770 437 770 410 770 c 0,35,36
 359 770 359 770 312.5 749.5 c 128,-1,37
 266 729 266 729 232.5 695.5 c 128,-1,38
 199 662 199 662 178.5 615.5 c 128,-1,39
 158 569 158 569 158 518 c 0,20,21
EndSplineSet
Validated: 1
EndChar

StartChar: ampersand
Encoding: 38 38 9
Width: 1101
GlyphClass: 2
Flags: W
LayerCount: 2
Fore
SplineSet
33 518 m 256,0,1
 33 596 33 596 62.5 664.5 c 128,-1,2
 92 733 92 733 143.5 784.5 c 128,-1,3
 195 836 195 836 263.5 865.5 c 128,-1,4
 332 895 332 895 410 895 c 256,5,6
 488 895 488 895 556.5 865.5 c 128,-1,7
 625 836 625 836 676 784.5 c 128,-1,8
 727 733 727 733 756.5 664.5 c 128,-1,9
 786 596 786 596 786 518 c 256,10,11
 786 440 786 440 756.5 371.5 c 128,-1,12
 727 303 727 303 676 252 c 128,-1,13
 625 201 625 201 556.5 171 c 128,-1,14
 488 141 488 141 410 141 c 256,15,16
 332 141 332 141 263.5 171 c 128,-1,17
 195 201 195 201 143.5 252 c 128,-1,18
 92 303 92 303 62.5 371.5 c 128,-1,19
 33 440 33 440 33 518 c 256,0,1
158 518 m 0,20,21
 158 465 158 465 178.5 420 c 128,-1,22
 199 375 199 375 232.5 340 c 128,-1,23
 266 305 266 305 312 285.5 c 128,-1,24
 358 266 358 266 410 266 c 0,25,26
 441 266 441 266 471 276 c 1,27,28
 391 296 391 296 338 363 c 128,-1,29
 285 430 285 430 285 518 c 256,30,31
 285 606 285 606 338 673 c 128,-1,32
 391 740 391 740 471 760 c 1,33,34
 440 770 440 770 410 770 c 0,35,36
 359 770 359 770 312.5 749.5 c 128,-1,37
 266 729 266 729 232.5 695.5 c 128,-1,38
 199 662 199 662 178.5 615.5 c 128,-1,39
 158 569 158 569 158 518 c 0,20,21
EndSplineSet
Validated: 1
EndChar

StartChar: quotesingle
Encoding: 39 39 10
Width: 2007
GlyphClass: 2
Flags: W
LayerCount: 2
Fore
SplineSet
33 514 m 0,0,1
 33 618 33 618 73 710.5 c 128,-1,2
 113 803 113 803 180.5 871.5 c 128,-1,3
 248 940 248 940 339 979 c 128,-1,4
 430 1018 430 1018 535 1018 c 0,5,6
 633 1018 633 1018 713 985 c 1,7,8
 731 1040 731 1040 766 1086.5 c 128,-1,9
 801 1133 801 1133 848 1166.5 c 128,-1,10
 895 1200 895 1200 951.5 1218.5 c 128,-1,11
 1008 1237 1008 1237 1069 1237 c 0,12,13
 1087 1237 1087 1237 1103.5 1236 c 128,-1,14
 1120 1235 1120 1235 1137 1233 c 1,15,16
 1131 1204 1131 1204 1130 1176 c 0,17,18
 1130 1123 1130 1123 1149.5 1076.5 c 128,-1,19
 1169 1030 1169 1030 1204 996.5 c 128,-1,20
 1239 963 1239 963 1285 943.5 c 128,-1,21
 1331 924 1331 924 1384 924 c 0,22,23
 1398 924 1398 924 1411.5 926 c 128,-1,24
 1425 928 1425 928 1438 930 c 1,25,26
 1442 914 1442 914 1444 896.5 c 128,-1,27
 1446 879 1446 879 1446 862 c 0,28,29
 1446 788 1446 788 1419.5 722.5 c 128,-1,30
 1393 657 1393 657 1346 606 c 1,31,32
 1362 583 1362 583 1371.5 561 c 128,-1,33
 1381 539 1381 539 1391 514 c 1,34,-1
 1393 514 l 1,35,36
 1397 500 1397 500 1401 486.5 c 128,-1,37
 1405 473 1405 473 1407 457 c 1,38,39
 1376 482 1376 482 1336 496 c 128,-1,40
 1296 510 1296 510 1255 514 c 1,41,42
 1220 571 1220 571 1164 606 c 128,-1,43
 1108 641 1108 641 1036 641 c 0,44,45
 962 641 962 641 901 602 c 1,46,47
 887 663 887 663 853 716.5 c 128,-1,48
 819 770 819 770 770 809 c 128,-1,49
 721 848 721 848 661.5 870.5 c 128,-1,50
 602 893 602 893 535 893 c 0,51,52
 457 893 457 893 388 863.5 c 128,-1,53
 319 834 319 834 268 782.5 c 128,-1,54
 217 731 217 731 187.5 661.5 c 128,-1,55
 158 592 158 592 158 514 c 256,56,57
 158 436 158 436 187.5 367.5 c 128,-1,58
 217 299 217 299 268 249 c 128,-1,59
 319 199 319 199 388 169 c 128,-1,60
 457 139 457 139 535 139 c 2,61,-1
 918 139 l 1,62,-1
 1227 139 l 2,63,64
 1252 139 1252 139 1270 157.5 c 128,-1,65
 1288 176 1288 176 1288 201 c 0,66,67
 1288 228 1288 228 1269.5 246 c 128,-1,68
 1251 264 1251 264 1227 264 c 0,69,70
 1200 264 1200 264 1181.5 281.5 c 128,-1,71
 1163 299 1163 299 1163 328 c 0,72,73
 1163 355 1163 355 1181.5 373 c 128,-1,74
 1200 391 1200 391 1227 391 c 0,75,76
 1233 391 1233 391 1239 387 c 0,77,78
 1313 383 1313 383 1364 329.5 c 128,-1,79
 1415 276 1415 276 1415 201 c 0,80,81
 1415 129 1415 129 1367 77 c 128,-1,82
 1319 25 1319 25 1249 14 c 1,83,-1
 1249 12 l 1,84,-1
 1227 12 l 1,85,-1
 975 12 l 1,86,-1
 535 12 l 2,87,88
 508 12 508 12 489.5 -6.5 c 128,-1,89
 471 -25 471 -25 471 -51 c 0,90,91
 471 -76 471 -76 489.5 -94.5 c 128,-1,92
 508 -113 508 -113 535 -113 c 2,93,-1
 1227 -113 l 1,94,-1
 1249 -113 l 1,95,-1
 1249 -115 l 1,96,97
 1319 -123 1319 -123 1367 -176 c 128,-1,98
 1415 -229 1415 -229 1415 -301 c 0,99,100
 1415 -338 1415 -338 1402 -370.5 c 128,-1,101
 1389 -403 1389 -403 1364 -429 c 128,-1,102
 1339 -455 1339 -455 1307.5 -471 c 128,-1,103
 1276 -487 1276 -487 1239 -489 c 2,104,-1
 1227 -489 l 2,105,106
 1200 -489 1200 -489 1181.5 -471 c 128,-1,107
 1163 -453 1163 -453 1163 -426 c 0,108,109
 1163 -401 1163 -401 1181.5 -383 c 128,-1,110
 1200 -365 1200 -365 1227 -365 c 0,111,112
 1252 -365 1252 -365 1270 -347.5 c 128,-1,113
 1288 -330 1288 -330 1288 -301 c 0,114,115
 1288 -274 1288 -274 1269.5 -256 c 128,-1,116
 1251 -238 1251 -238 1227 -238 c 2,117,-1
 535 -238 l 1,118,-1
 512 -238 l 1,119,-1
 512 -236 l 1,120,121
 440 -228 440 -228 393 -175.5 c 128,-1,122
 346 -123 346 -123 346 -51 c 0,123,124
 346 -26 346 -26 353 -3 c 128,-1,125
 360 20 360 20 371 41 c 1,126,127
 297 66 297 66 234.5 113 c 128,-1,128
 172 160 172 160 128 221.5 c 128,-1,129
 84 283 84 283 58.5 357.5 c 128,-1,130
 33 432 33 432 33 514 c 0,0,1
825 926 m 1,131,132
 872 891 872 891 908 849 c 128,-1,133
 944 807 944 807 973 760 c 1,134,135
 989 764 989 764 1004.5 766 c 128,-1,136
 1020 768 1020 768 1036 768 c 0,137,138
 1097 768 1097 768 1153.5 748.5 c 128,-1,139
 1210 729 1210 729 1257 694 c 1,140,141
 1300 739 1300 739 1313 805 c 1,142,143
 1198 828 1198 828 1117.5 908.5 c 128,-1,144
 1037 989 1037 989 1014 1106 c 1,145,146
 944 1090 944 1090 894 1040.5 c 128,-1,147
 844 991 844 991 825 926 c 1,131,132
1384 -51 m 0,148,149
 1384 -24 1384 -24 1401.5 -6 c 128,-1,150
 1419 12 1419 12 1446 12 c 2,151,-1
 1538 12 l 2,152,153
 1567 12 1567 12 1584.5 30.5 c 128,-1,154
 1602 49 1602 49 1602 76 c 256,155,156
 1602 103 1602 103 1584.5 121 c 128,-1,157
 1567 139 1567 139 1538 139 c 0,158,159
 1513 139 1513 139 1496 157.5 c 128,-1,160
 1479 176 1479 176 1479 201 c 0,161,162
 1479 228 1479 228 1496 246 c 128,-1,163
 1513 264 1513 264 1538 264 c 2,164,-1
 1552 264 l 1,165,166
 1626 258 1626 258 1677.5 204 c 128,-1,167
 1729 150 1729 150 1729 76 c 0,168,169
 1729 4 1729 4 1682 -49.5 c 128,-1,170
 1635 -103 1635 -103 1565 -113 c 1,171,-1
 1538 -113 l 1,172,-1
 1446 -113 l 2,173,174
 1419 -113 1419 -113 1401.5 -94.5 c 128,-1,175
 1384 -76 1384 -76 1384 -51 c 0,148,149
EndSplineSet
Validated: 1
EndChar

StartChar: parenleft
Encoding: 40 40 11
Width: 1669
GlyphClass: 2
Flags: W
LayerCount: 2
Fore
SplineSet
33 573 m 0,0,1
 33 600 33 600 51.5 618.5 c 128,-1,2
 70 637 70 637 96 637 c 2,3,-1
 1296 637 l 2,4,5
 1321 637 1321 637 1338.5 618.5 c 128,-1,6
 1356 600 1356 600 1356 573 c 256,7,8
 1356 546 1356 546 1338.5 528 c 128,-1,9
 1321 510 1321 510 1296 510 c 2,10,-1
 96 510 l 2,11,12
 69 510 69 510 51 528.5 c 128,-1,13
 33 547 33 547 33 573 c 0,0,1
96 322 m 0,14,15
 96 351 96 351 114.5 369 c 128,-1,16
 133 387 133 387 160 387 c 2,17,-1
 1104 387 l 2,18,19
 1131 387 1131 387 1149 368.5 c 128,-1,20
 1167 350 1167 350 1167 322 c 0,21,22
 1167 295 1167 295 1148.5 277.5 c 128,-1,23
 1130 260 1130 260 1104 260 c 2,24,-1
 160 260 l 2,25,26
 133 260 133 260 114.5 277.5 c 128,-1,27
 96 295 96 295 96 322 c 0,14,15
473 70 m 0,28,29
 473 99 473 99 491.5 116 c 128,-1,30
 510 133 510 133 537 133 c 2,31,-1
 1233 133 l 2,32,33
 1260 133 1260 133 1278 115.5 c 128,-1,34
 1296 98 1296 98 1296 70 c 0,35,36
 1296 43 1296 43 1278 24.5 c 128,-1,37
 1260 6 1260 6 1233 6 c 2,38,-1
 537 6 l 2,39,40
 510 6 510 6 491.5 24.5 c 128,-1,41
 473 43 473 43 473 70 c 0,28,29
537 -434 m 256,42,43
 537 -407 537 -407 555 -389 c 128,-1,44
 573 -371 573 -371 600 -371 c 2,45,-1
 791 -371 l 2,46,47
 818 -371 818 -371 835 -389.5 c 128,-1,48
 852 -408 852 -408 852 -434 c 0,49,50
 852 -461 852 -461 834.5 -479.5 c 128,-1,51
 817 -498 817 -498 791 -498 c 2,52,-1
 600 -498 l 2,53,54
 573 -498 573 -498 555 -479.5 c 128,-1,55
 537 -461 537 -461 537 -434 c 256,42,43
633 -180 m 256,56,57
 633 -153 633 -153 650.5 -135 c 128,-1,58
 668 -117 668 -117 696 -117 c 2,59,-1
 1137 -117 l 2,60,61
 1164 -117 1164 -117 1182 -135.5 c 128,-1,62
 1200 -154 1200 -154 1200 -180 c 0,63,64
 1200 -207 1200 -207 1181.5 -225.5 c 128,-1,65
 1163 -244 1163 -244 1137 -244 c 2,66,-1
 696 -244 l 2,67,68
 667 -244 667 -244 650 -225.5 c 128,-1,69
 633 -207 633 -207 633 -180 c 256,56,57
EndSplineSet
Validated: 1
EndChar

StartChar: parenright
Encoding: 41 41 12
Width: 882
GlyphClass: 2
Flags: W
LayerCount: 2
Fore
SplineSet
33 8 m 0,0,1
 33 55 33 55 50.5 97 c 128,-1,2
 68 139 68 139 96 174 c 1,3,-1
 96 702 l 2,4,5
 96 741 96 741 110.5 776 c 128,-1,6
 125 811 125 811 150.5 837.5 c 128,-1,7
 176 864 176 864 211 878.5 c 128,-1,8
 246 893 246 893 285 893 c 256,9,10
 324 893 324 893 358.5 878.5 c 128,-1,11
 393 864 393 864 418.5 837.5 c 128,-1,12
 444 811 444 811 459.5 776 c 128,-1,13
 475 741 475 741 475 702 c 2,14,-1
 475 174 l 1,15,16
 538 104 538 104 539 8 c 0,17,18
 539 -45 539 -45 519.5 -92 c 128,-1,19
 500 -139 500 -139 465 -174 c 128,-1,20
 430 -209 430 -209 384 -228.5 c 128,-1,21
 338 -248 338 -248 285 -248 c 256,22,23
 232 -248 232 -248 186.5 -228.5 c 128,-1,24
 141 -209 141 -209 106.5 -174 c 128,-1,25
 72 -139 72 -139 52.5 -92 c 128,-1,26
 33 -45 33 -45 33 8 c 0,0,1
158 8 m 0,27,28
 158 -45 158 -45 195.5 -84 c 128,-1,29
 233 -123 233 -123 285 -123 c 0,30,31
 338 -123 338 -123 375 -84 c 128,-1,32
 412 -45 412 -45 412 8 c 0,33,34
 412 43 412 43 395.5 71 c 128,-1,35
 379 99 379 99 350 115 c 1,36,-1
 350 252 l 1,37,-1
 350 578 l 1,38,-1
 350 702 l 2,39,40
 350 731 350 731 331.5 749.5 c 128,-1,41
 313 768 313 768 285 768 c 0,42,43
 258 768 258 768 240.5 749.5 c 128,-1,44
 223 731 223 731 223 702 c 2,45,-1
 223 578 l 1,46,-1
 223 252 l 1,47,-1
 223 115 l 1,48,49
 194 99 194 99 176 71 c 128,-1,50
 158 43 158 43 158 8 c 0,27,28
EndSplineSet
Validated: 1
EndChar

StartChar: asterisk
Encoding: 42 42 13
Width: 989
GlyphClass: 2
Flags: W
LayerCount: 2
Fore
SplineSet
36 378 m 128,-1,1
 43 403 43 403 66 416 c 2,2,-1
 127 453 l 1,3,4
 123 469 123 469 120 485.5 c 128,-1,5
 117 502 117 502 117 518 c 0,6,7
 117 536 117 536 120 552.5 c 128,-1,8
 123 569 123 569 127 586 c 1,9,-1
 66 625 l 2,10,11
 43 635 43 635 36 660.5 c 128,-1,12
 29 686 29 686 43 709 c 0,13,14
 55 732 55 732 80.5 738.5 c 128,-1,15
 106 745 106 745 129 733 c 2,16,-1
 190 696 l 1,17,18
 235 747 235 747 307 764 c 1,19,-1
 307 838 l 2,20,21
 307 863 307 863 326.5 881 c 128,-1,22
 346 899 346 899 371 899 c 0,23,24
 398 899 398 899 416 880.5 c 128,-1,25
 434 862 434 862 434 838 c 2,26,-1
 434 764 l 1,27,28
 504 750 504 750 553 696 c 1,29,-1
 614 733 l 2,30,31
 637 745 637 745 662.5 738 c 128,-1,32
 688 731 688 731 700 709 c 0,33,34
 714 686 714 686 707.5 660.5 c 128,-1,35
 701 635 701 635 678 625 c 2,36,-1
 616 586 l 1,37,38
 620 570 620 570 622.5 553.5 c 128,-1,39
 625 537 625 537 625 518 c 0,40,41
 625 502 625 502 623 485.5 c 128,-1,42
 621 469 621 469 616 453 c 1,43,-1
 678 416 l 2,44,45
 701 404 701 404 708 378 c 128,-1,46
 715 352 715 352 700 330 c 0,47,48
 688 307 688 307 662.5 300 c 128,-1,49
 637 293 637 293 614 305 c 2,50,-1
 553 342 l 1,51,52
 504 293 504 293 434 274 c 1,53,-1
 434 203 l 2,54,55
 434 176 434 176 415.5 157.5 c 128,-1,56
 397 139 397 139 371 139 c 0,57,58
 346 139 346 139 326.5 157.5 c 128,-1,59
 307 176 307 176 307 203 c 2,60,-1
 307 274 l 1,61,62
 235 294 235 294 190 342 c 1,63,-1
 129 305 l 2,64,65
 106 293 106 293 80.5 300 c 128,-1,66
 55 307 55 307 43 330 c 0,67,0
 29 353 29 353 36 378 c 128,-1,1
246 518 m 0,68,69
 246 467 246 467 281.5 430 c 128,-1,70
 317 393 317 393 371 393 c 0,71,72
 424 393 424 393 461 430 c 128,-1,73
 498 467 498 467 498 518 c 0,74,75
 498 571 498 571 461 609 c 128,-1,76
 424 647 424 647 371 647 c 256,77,78
 318 647 318 647 282 609 c 128,-1,79
 246 571 246 571 246 518 c 0,68,69
EndSplineSet
Validated: 1
EndChar

StartChar: plus
Encoding: 43 43 14
Width: 882
GlyphClass: 2
Flags: W
LayerCount: 2
Fore
SplineSet
33 6 m 0,0,1
 33 53 33 53 50.5 95 c 128,-1,2
 68 137 68 137 96 172 c 1,3,-1
 96 702 l 2,4,5
 96 741 96 741 111.5 776 c 128,-1,6
 127 811 127 811 152.5 837.5 c 128,-1,7
 178 864 178 864 213 878.5 c 128,-1,8
 248 893 248 893 287 893 c 256,9,10
 326 893 326 893 360.5 878.5 c 128,-1,11
 395 864 395 864 420.5 837.5 c 128,-1,12
 446 811 446 811 461.5 776 c 128,-1,13
 477 741 477 741 477 702 c 2,14,-1
 477 172 l 1,15,16
 506 137 506 137 523.5 95 c 128,-1,17
 541 53 541 53 541 6 c 0,18,19
 541 -47 541 -47 521.5 -93 c 128,-1,20
 502 -139 502 -139 467 -174 c 128,-1,21
 432 -209 432 -209 386 -229.5 c 128,-1,22
 340 -250 340 -250 287 -250 c 256,23,24
 234 -250 234 -250 187.5 -229.5 c 128,-1,25
 141 -209 141 -209 107.5 -174 c 128,-1,26
 74 -139 74 -139 53.5 -93 c 128,-1,27
 33 -47 33 -47 33 6 c 0,0,1
160 6 m 0,28,29
 160 -47 160 -47 196.5 -85 c 128,-1,30
 233 -123 233 -123 287 -123 c 0,31,32
 340 -123 340 -123 377 -85 c 128,-1,33
 414 -47 414 -47 414 6 c 0,34,35
 414 41 414 41 396.5 69 c 128,-1,36
 379 97 379 97 350 113 c 1,37,-1
 350 250 l 1,38,-1
 350 575 l 1,39,-1
 350 702 l 2,40,41
 350 729 350 729 331.5 747.5 c 128,-1,42
 313 766 313 766 287 766 c 0,43,44
 260 766 260 766 241.5 747.5 c 128,-1,45
 223 729 223 729 223 702 c 2,46,-1
 223 575 l 1,47,-1
 223 250 l 1,48,-1
 223 113 l 1,49,50
 194 97 194 97 177 69 c 128,-1,51
 160 41 160 41 160 6 c 0,28,29
193 6 m 0,52,53
 193 35 193 35 210 59.5 c 128,-1,54
 227 84 227 84 256 94 c 1,55,-1
 256 258 l 1,56,-1
 319 258 l 1,57,-1
 319 94 l 1,58,59
 346 84 346 84 363.5 59.5 c 128,-1,60
 381 35 381 35 381 6 c 0,61,62
 381 -35 381 -35 354.5 -62.5 c 128,-1,63
 328 -90 328 -90 287 -90 c 0,64,65
 248 -90 248 -90 220.5 -62.5 c 128,-1,66
 193 -35 193 -35 193 6 c 0,52,53
EndSplineSet
Validated: 1
EndChar

StartChar: comma
Encoding: 44 44 15
Width: 1855
GlyphClass: 2
Flags: W
LayerCount: 2
Fore
SplineSet
33 399 m 0,0,1
 33 426 33 426 51.5 444.5 c 128,-1,2
 70 463 70 463 96 463 c 2,3,-1
 225 463 l 2,4,5
 254 463 254 463 272.5 444.5 c 128,-1,6
 291 426 291 426 291 399 c 0,7,8
 291 370 291 370 272.5 352 c 128,-1,9
 254 334 254 334 225 334 c 2,10,-1
 96 334 l 2,11,12
 69 334 69 334 51 352.5 c 128,-1,13
 33 371 33 371 33 399 c 0,0,1
240 897 m 128,-1,15
 240 924 240 924 260 944 c 0,16,17
 278 962 278 962 304 962.5 c 128,-1,18
 330 963 330 963 350 944 c 2,19,-1
 440 852 l 2,20,21
 458 834 458 834 458.5 807 c 128,-1,22
 459 780 459 780 440 762 c 0,23,24
 422 744 422 744 395 744 c 128,-1,25
 368 744 368 744 350 762 c 2,26,-1
 260 852 l 2,27,14
 240 870 240 870 240 897 c 128,-1,15
418 76 m 0,28,29
 418 105 418 105 437 123 c 128,-1,30
 456 141 456 141 483 141 c 2,31,-1
 1124 141 l 2,32,33
 1153 141 1153 141 1171.5 122.5 c 128,-1,34
 1190 104 1190 104 1190 76 c 0,35,36
 1190 49 1190 49 1171.5 30.5 c 128,-1,37
 1153 12 1153 12 1124 12 c 2,38,-1
 483 12 l 2,39,40
 456 12 456 12 437 30.5 c 128,-1,41
 418 49 418 49 418 76 c 0,28,29
418 399 m 0,42,43
 418 479 418 479 448.5 548.5 c 128,-1,44
 479 618 479 618 531.5 670.5 c 128,-1,45
 584 723 584 723 654.5 753.5 c 128,-1,46
 725 784 725 784 805 784 c 256,47,48
 885 784 885 784 954.5 753.5 c 128,-1,49
 1024 723 1024 723 1076 670.5 c 128,-1,50
 1128 618 1128 618 1159 548.5 c 128,-1,51
 1190 479 1190 479 1190 399 c 0,52,53
 1190 331 1190 331 1167 270 c 1,54,-1
 1026 270 l 1,55,56
 1061 327 1061 327 1061 399 c 0,57,58
 1061 452 1061 452 1040.5 498.5 c 128,-1,59
 1020 545 1020 545 985 579.5 c 128,-1,60
 950 614 950 614 903 634.5 c 128,-1,61
 856 655 856 655 805 655 c 0,62,63
 752 655 752 655 704.5 634.5 c 128,-1,64
 657 614 657 614 622.5 579.5 c 128,-1,65
 588 545 588 545 567.5 499 c 128,-1,66
 547 453 547 453 547 399 c 0,67,68
 547 362 547 362 556 330.5 c 128,-1,69
 565 299 565 299 582 270 c 1,70,-1
 442 270 l 1,71,72
 432 299 432 299 425 332 c 128,-1,73
 418 365 418 365 418 399 c 0,42,43
739 977 m 2,74,-1
 739 1104 l 2,75,76
 739 1133 739 1133 757.5 1151 c 128,-1,77
 776 1169 776 1169 805 1169 c 0,78,79
 832 1169 832 1169 850 1151 c 128,-1,80
 868 1133 868 1133 868 1104 c 2,81,-1
 868 977 l 2,82,83
 868 948 868 948 850 929.5 c 128,-1,84
 832 911 832 911 805 911 c 0,85,86
 776 911 776 911 757.5 929.5 c 128,-1,87
 739 948 739 948 739 977 c 2,74,-1
1149 807 m 128,-1,89
 1149 834 1149 834 1167 852 c 2,90,-1
 1257 944 l 2,91,92
 1277 962 1277 962 1304 962.5 c 128,-1,93
 1331 963 1331 963 1350 944 c 0,94,95
 1366 924 1366 924 1366 897 c 128,-1,96
 1366 870 1366 870 1350 852 c 2,97,-1
 1257 762 l 2,98,99
 1237 744 1237 744 1211.5 743.5 c 128,-1,100
 1186 743 1186 743 1167 762 c 0,101,88
 1149 780 1149 780 1149 807 c 128,-1,89
1319 399 m 0,102,103
 1319 426 1319 426 1336.5 444.5 c 128,-1,104
 1354 463 1354 463 1380 463 c 2,105,-1
 1511 463 l 2,106,107
 1536 463 1536 463 1555.5 444.5 c 128,-1,108
 1575 426 1575 426 1575 399 c 0,109,110
 1575 370 1575 370 1555.5 352 c 128,-1,111
 1536 334 1536 334 1511 334 c 2,112,-1
 1380 334 l 2,113,114
 1353 334 1353 334 1336 352.5 c 128,-1,115
 1319 371 1319 371 1319 399 c 0,102,103
EndSplineSet
Validated: 1
EndChar

StartChar: hyphen
Encoding: 45 45 16
Width: 2007
GlyphClass: 2
Flags: W
LayerCount: 2
Fore
SplineSet
33 512 m 0,0,1
 33 616 33 616 72 707.5 c 128,-1,2
 111 799 111 799 178.5 867.5 c 128,-1,3
 246 936 246 936 337 976 c 128,-1,4
 428 1016 428 1016 532 1016 c 0,5,6
 579 1016 579 1016 624.5 1006.5 c 128,-1,7
 670 997 670 997 711 983 c 1,8,9
 731 1038 731 1038 766 1084 c 128,-1,10
 801 1130 801 1130 848 1164 c 128,-1,11
 895 1198 895 1198 951.5 1216.5 c 128,-1,12
 1008 1235 1008 1235 1069 1235 c 0,13,14
 1102 1235 1102 1235 1137 1229 c 1,15,16
 1135 1213 1135 1213 1131.5 1200.5 c 128,-1,17
 1128 1188 1128 1188 1128 1171 c 0,18,19
 1128 1118 1128 1118 1148.5 1073 c 128,-1,20
 1169 1028 1169 1028 1203 994.5 c 128,-1,21
 1237 961 1237 961 1283 941.5 c 128,-1,22
 1329 922 1329 922 1382 922 c 0,23,24
 1409 922 1409 922 1438 928 c 1,25,26
 1440 910 1440 910 1443 893 c 128,-1,27
 1446 876 1446 876 1446 858 c 0,28,29
 1446 782 1446 782 1418.5 717.5 c 128,-1,30
 1391 653 1391 653 1346 604 c 1,31,32
 1379 557 1379 557 1396 501.5 c 128,-1,33
 1413 446 1413 446 1413 387 c 0,34,35
 1413 326 1413 326 1394.5 269.5 c 128,-1,36
 1376 213 1376 213 1342.5 167 c 128,-1,37
 1309 121 1309 121 1263 86 c 128,-1,38
 1217 51 1217 51 1161 31 c 1,39,-1
 1161 170 l 1,40,41
 1218 203 1218 203 1253 260 c 128,-1,42
 1288 317 1288 317 1288 387 c 0,43,44
 1288 438 1288 438 1268.5 484 c 128,-1,45
 1249 530 1249 530 1214.5 565 c 128,-1,46
 1180 600 1180 600 1133.5 619.5 c 128,-1,47
 1087 639 1087 639 1036 639 c 0,48,49
 997 639 997 639 963.5 627.5 c 128,-1,50
 930 616 930 616 901 598 c 1,51,52
 887 659 887 659 852 712.5 c 128,-1,53
 817 766 817 766 769 805 c 128,-1,54
 721 844 721 844 660.5 866.5 c 128,-1,55
 600 889 600 889 532 889 c 0,56,57
 454 889 454 889 385.5 859 c 128,-1,58
 317 829 317 829 267 778 c 128,-1,59
 217 727 217 727 187.5 658.5 c 128,-1,60
 158 590 158 590 158 512 c 0,61,62
 158 428 158 428 191.5 356.5 c 128,-1,63
 225 285 225 285 283 231 c 1,64,-1
 283 78 l 1,65,66
 170 144 170 144 101.5 258.5 c 128,-1,67
 33 373 33 373 33 512 c 0,0,1
410 -178 m 2,68,-1
 410 326 l 2,69,70
 410 351 410 351 428 369 c 128,-1,71
 446 387 446 387 473 387 c 256,72,73
 500 387 500 387 516 368.5 c 128,-1,74
 532 350 532 350 532 326 c 2,75,-1
 532 -178 l 2,76,77
 532 -205 532 -205 516 -222.5 c 128,-1,78
 500 -240 500 -240 473 -240 c 256,79,80
 446 -240 446 -240 428 -222.5 c 128,-1,81
 410 -205 410 -205 410 -178 c 2,68,-1
659 199 m 2,82,83
 659 226 659 226 677.5 244 c 128,-1,84
 696 262 696 262 723 262 c 256,85,86
 750 262 750 262 768 243.5 c 128,-1,87
 786 225 786 225 786 199 c 2,88,-1
 786 -303 l 2,89,90
 786 -330 786 -330 768 -348.5 c 128,-1,91
 750 -367 750 -367 723 -367 c 256,92,93
 696 -367 696 -367 677.5 -348.5 c 128,-1,94
 659 -330 659 -330 659 -303 c 2,95,-1
 659 199 l 2,82,83
825 922 m 1,96,97
 917 856 917 856 973 756 c 1,98,99
 1004 762 1004 762 1036 762 c 0,100,101
 1161 762 1161 762 1255 692 c 1,102,103
 1296 737 1296 737 1313 803 c 1,104,105
 1196 823 1196 823 1115 905 c 128,-1,106
 1034 987 1034 987 1012 1102 c 1,107,108
 942 1086 942 1086 892 1037.5 c 128,-1,109
 842 989 842 989 825 922 c 1,96,97
909 -178 m 2,110,-1
 909 326 l 2,111,112
 909 351 909 351 927.5 369 c 128,-1,113
 946 387 946 387 973 387 c 256,114,115
 1000 387 1000 387 1018 368.5 c 128,-1,116
 1036 350 1036 350 1036 326 c 2,117,-1
 1036 -178 l 2,118,119
 1036 -205 1036 -205 1017.5 -222.5 c 128,-1,120
 999 -240 999 -240 973 -240 c 0,121,122
 946 -240 946 -240 927.5 -222.5 c 128,-1,123
 909 -205 909 -205 909 -178 c 2,110,-1
EndSplineSet
Validated: 1
EndChar

StartChar: period
Encoding: 46 46 17
Width: 1486
GlyphClass: 2
Flags: W
LayerCount: 2
Fore
SplineSet
33 768 m 128,-1,1
 33 795 33 795 51 813 c 256,2,3
 69 831 69 831 96 831 c 128,-1,4
 123 831 123 831 141 813 c 2,5,-1
 233 721 l 2,6,7
 251 703 251 703 251.5 677 c 128,-1,8
 252 651 252 651 233 631 c 0,9,10
 215 613 215 613 188 613 c 128,-1,11
 161 613 161 613 141 631 c 2,12,-1
 51 721 l 2,13,0
 33 741 33 741 33 768 c 128,-1,1
211 205 m 256,14,15
 211 232 211 232 229 250 c 128,-1,16
 247 268 247 268 274 268 c 2,17,-1
 918 268 l 2,18,19
 945 268 945 268 963 249.5 c 128,-1,20
 981 231 981 231 981 205 c 0,21,22
 981 178 981 178 962.5 158.5 c 128,-1,23
 944 139 944 139 918 139 c 2,24,-1
 274 139 l 2,25,26
 247 139 247 139 229 158.5 c 128,-1,27
 211 178 211 178 211 205 c 256,14,15
233 397 m 1,28,29
 274 510 274 510 371.5 581.5 c 128,-1,30
 469 653 469 653 596 653 c 256,31,32
 723 653 723 653 821.5 581.5 c 128,-1,33
 920 510 920 510 958 397 c 1,34,-1
 819 397 l 1,35,36
 784 454 784 454 726 490 c 128,-1,37
 668 526 668 526 596 526 c 256,38,39
 524 526 524 526 467 490.5 c 128,-1,40
 410 455 410 455 375 397 c 1,41,-1
 233 397 l 1,28,29
532 846 m 2,42,-1
 532 975 l 2,43,44
 532 1002 532 1002 550.5 1020 c 128,-1,45
 569 1038 569 1038 596 1038 c 0,46,47
 625 1038 625 1038 643.5 1019.5 c 128,-1,48
 662 1001 662 1001 662 975 c 2,49,-1
 662 846 l 2,50,51
 662 819 662 819 643.5 800.5 c 128,-1,52
 625 782 625 782 596 782 c 0,53,54
 569 782 569 782 550.5 800.5 c 128,-1,55
 532 819 532 819 532 846 c 2,42,-1
940.5 676.5 m 128,-1,57
 940 702 940 702 961 721 c 2,58,-1
 1051 813 l 2,59,60
 1069 831 1069 831 1095.5 831 c 128,-1,61
 1122 831 1122 831 1143 813 c 0,62,63
 1161 795 1161 795 1161 768 c 128,-1,64
 1161 741 1161 741 1143 721 c 2,65,-1
 1051 631 l 2,66,67
 1033 613 1033 613 1006 612.5 c 128,-1,68
 979 612 979 612 961 631 c 0,69,56
 941 651 941 651 940.5 676.5 c 128,-1,57
EndSplineSet
Validated: 1
EndChar

StartChar: slash
Encoding: 47 47 18
Width: 1105
GlyphClass: 2
Flags: W
LayerCount: 2
Fore
SplineSet
33 516 m 0,0,1
 33 596 33 596 62.5 664.5 c 128,-1,2
 92 733 92 733 142.5 784.5 c 128,-1,3
 193 836 193 836 261.5 865.5 c 128,-1,4
 330 895 330 895 408 895 c 0,5,6
 428 895 428 895 444.5 893 c 128,-1,7
 461 891 461 891 481 889 c 1,8,9
 471 858 471 858 471 831 c 0,10,11
 471 780 471 780 491.5 734 c 128,-1,12
 512 688 512 688 546 654.5 c 128,-1,13
 580 621 580 621 626 600.5 c 128,-1,14
 672 580 672 580 723 580 c 0,15,16
 754 580 754 580 782 586 c 1,17,18
 784 570 784 570 785 553.5 c 128,-1,19
 786 537 786 537 786 516 c 0,20,21
 786 438 786 438 756.5 369.5 c 128,-1,22
 727 301 727 301 676 251 c 128,-1,23
 625 201 625 201 556.5 171 c 128,-1,24
 488 141 488 141 408 141 c 0,25,26
 330 141 330 141 261.5 171 c 128,-1,27
 193 201 193 201 142.5 251 c 128,-1,28
 92 301 92 301 62.5 369.5 c 128,-1,29
 33 438 33 438 33 516 c 0,0,1
160 516 m 0,30,31
 160 463 160 463 179.5 418 c 128,-1,32
 199 373 199 373 232.5 340 c 128,-1,33
 266 307 266 307 311 287.5 c 128,-1,34
 356 268 356 268 408 268 c 0,35,36
 500 268 500 268 567.5 322.5 c 128,-1,37
 635 377 635 377 655 463 c 1,38,39
 538 483 538 483 457.5 565 c 128,-1,40
 377 647 377 647 354 764 c 1,41,42
 268 741 268 741 214 674.5 c 128,-1,43
 160 608 160 608 160 516 c 0,30,31
EndSplineSet
Validated: 1
EndChar

StartChar: zero
Encoding: 48 48 19
Width: 2007
GlyphClass: 2
Flags: W
LayerCount: 2
Fore
SplineSet
33 516 m 0,0,1
 33 618 33 618 73 709.5 c 128,-1,2
 113 801 113 801 180.5 868.5 c 128,-1,3
 248 936 248 936 339 976 c 128,-1,4
 430 1016 430 1016 535 1016 c 0,5,6
 574 1016 574 1016 607.5 1012 c 128,-1,7
 641 1008 641 1008 676 995 c 1,8,9
 729 1063 729 1063 806 1104 c 128,-1,10
 883 1145 883 1145 973 1145 c 0,11,12
 1053 1145 1053 1145 1121.5 1115 c 128,-1,13
 1190 1085 1190 1085 1241 1034 c 128,-1,14
 1292 983 1292 983 1322 913.5 c 128,-1,15
 1352 844 1352 844 1352 766 c 0,16,17
 1352 729 1352 729 1344.5 696.5 c 128,-1,18
 1337 664 1337 664 1325 631 c 1,19,20
 1368 584 1368 584 1391.5 521.5 c 128,-1,21
 1415 459 1415 459 1415 389 c 0,22,23
 1415 328 1415 328 1396.5 271.5 c 128,-1,24
 1378 215 1378 215 1344.5 169 c 128,-1,25
 1311 123 1311 123 1265 88 c 128,-1,26
 1219 53 1219 53 1163 35 c 1,27,-1
 1163 170 l 1,28,29
 1220 203 1220 203 1254 260 c 128,-1,30
 1288 317 1288 317 1288 389 c 0,31,32
 1288 440 1288 440 1268.5 486 c 128,-1,33
 1249 532 1249 532 1214.5 567 c 128,-1,34
 1180 602 1180 602 1133.5 621.5 c 128,-1,35
 1087 641 1087 641 1036 641 c 0,36,37
 997 641 997 641 963.5 629.5 c 128,-1,38
 930 618 930 618 901 600 c 1,39,40
 887 661 887 661 853 714.5 c 128,-1,41
 819 768 819 768 771 807 c 128,-1,42
 723 846 723 846 662.5 868.5 c 128,-1,43
 602 891 602 891 535 891 c 0,44,45
 457 891 457 891 388 861 c 128,-1,46
 319 831 319 831 268 781 c 128,-1,47
 217 731 217 731 187.5 662.5 c 128,-1,48
 158 594 158 594 158 516 c 0,49,50
 158 430 158 430 191.5 358.5 c 128,-1,51
 225 287 225 287 283 233 c 1,52,-1
 283 80 l 1,53,54
 170 146 170 146 101.5 260.5 c 128,-1,55
 33 375 33 375 33 516 c 0,0,1
408 -178 m 2,56,-1
 408 326 l 2,57,58
 408 351 408 351 426 370 c 128,-1,59
 444 389 444 389 473 389 c 0,60,61
 498 389 498 389 516.5 369.5 c 128,-1,62
 535 350 535 350 535 326 c 2,63,-1
 535 -178 l 2,64,65
 535 -203 535 -203 516.5 -221.5 c 128,-1,66
 498 -240 498 -240 473 -240 c 0,67,68
 444 -240 444 -240 426 -221.5 c 128,-1,69
 408 -203 408 -203 408 -178 c 2,56,-1
422 1253 m 128,-1,71
 422 1280 422 1280 442 1300 c 0,72,73
 458 1316 458 1316 485 1316.5 c 128,-1,74
 512 1317 512 1317 530 1300 c 2,75,-1
 618 1210 l 2,76,77
 636 1192 636 1192 636.5 1166.5 c 128,-1,78
 637 1141 637 1141 618 1120 c 0,79,80
 602 1104 602 1104 575 1104 c 128,-1,81
 548 1104 548 1104 530 1120 c 2,82,-1
 442 1210 l 2,83,70
 422 1226 422 1226 422 1253 c 128,-1,71
662 201 m 2,84,85
 662 226 662 226 680 244 c 128,-1,86
 698 262 698 262 723 262 c 0,87,88
 750 262 750 262 768 243.5 c 128,-1,89
 786 225 786 225 786 201 c 2,90,-1
 786 -303 l 2,91,92
 786 -330 786 -330 768 -348.5 c 128,-1,93
 750 -367 750 -367 723 -367 c 0,94,95
 698 -367 698 -367 680 -348.5 c 128,-1,96
 662 -330 662 -330 662 -303 c 2,97,-1
 662 201 l 2,84,85
797 942 m 1,98,99
 910 876 910 876 973 760 c 1,100,101
 1004 766 1004 766 1036 766 c 0,102,103
 1087 766 1087 766 1133.5 752.5 c 128,-1,104
 1180 739 1180 739 1221 717 c 1,105,106
 1227 742 1227 742 1227 766 c 0,107,108
 1227 817 1227 817 1207.5 863 c 128,-1,109
 1188 909 1188 909 1153 943 c 128,-1,110
 1118 977 1118 977 1072 996.5 c 128,-1,111
 1026 1016 1026 1016 973 1016 c 0,112,113
 922 1016 922 1016 876.5 996.5 c 128,-1,114
 831 977 831 977 797 942 c 1,98,99
911 -178 m 2,115,-1
 911 326 l 2,116,117
 911 351 911 351 929.5 370 c 128,-1,118
 948 389 948 389 973 389 c 0,119,120
 1002 389 1002 389 1019 369.5 c 128,-1,121
 1036 350 1036 350 1036 326 c 2,122,-1
 1036 -178 l 2,123,124
 1036 -203 1036 -203 1018.5 -221.5 c 128,-1,125
 1001 -240 1001 -240 973 -240 c 0,126,127
 948 -240 948 -240 929.5 -221.5 c 128,-1,128
 911 -203 911 -203 911 -178 c 2,115,-1
911 1331 m 2,129,-1
 911 1456 l 2,130,131
 911 1483 911 1483 929.5 1501.5 c 128,-1,132
 948 1520 948 1520 973 1520 c 0,133,134
 1002 1520 1002 1520 1019 1501.5 c 128,-1,135
 1036 1483 1036 1483 1036 1456 c 2,136,-1
 1036 1331 l 2,137,138
 1036 1304 1036 1304 1019 1287 c 128,-1,139
 1002 1270 1002 1270 973 1270 c 0,140,141
 948 1270 948 1270 929.5 1287.5 c 128,-1,142
 911 1305 911 1305 911 1331 c 2,129,-1
1311 1166 m 128,-1,144
 1311 1192 1311 1192 1331 1210 c 2,145,-1
 1417 1300 l 2,146,147
 1437 1316 1437 1316 1463 1316.5 c 128,-1,148
 1489 1317 1489 1317 1507 1300 c 0,149,150
 1527 1280 1527 1280 1527.5 1253.5 c 128,-1,151
 1528 1227 1528 1227 1507 1210 c 2,152,-1
 1417 1120 l 2,153,154
 1401 1104 1401 1104 1374.5 1104 c 128,-1,155
 1348 1104 1348 1104 1331 1120 c 0,156,143
 1311 1140 1311 1140 1311 1166 c 128,-1,144
1477 766 m 0,157,158
 1477 793 1477 793 1495 811 c 128,-1,159
 1513 829 1513 829 1540 829 c 2,160,-1
 1665 829 l 2,161,162
 1692 829 1692 829 1711.5 811 c 128,-1,163
 1731 793 1731 793 1731 766 c 0,164,165
 1731 737 1731 737 1711.5 719.5 c 128,-1,166
 1692 702 1692 702 1665 702 c 2,167,-1
 1540 702 l 2,168,169
 1513 702 1513 702 1495 719.5 c 128,-1,170
 1477 737 1477 737 1477 766 c 0,157,158
EndSplineSet
Validated: 1
EndChar

StartChar: one
Encoding: 49 49 20
Width: 2007
GlyphClass: 2
Flags: W
LayerCount: 2
Fore
SplineSet
33 512 m 256,0,1
 33 616 33 616 73 707.5 c 128,-1,2
 113 799 113 799 180.5 867.5 c 128,-1,3
 248 936 248 936 339 975 c 128,-1,4
 430 1014 430 1014 535 1014 c 0,5,6
 572 1014 572 1014 607.5 1009 c 128,-1,7
 643 1004 643 1004 678 993 c 1,8,9
 729 1061 729 1061 806 1100 c 128,-1,10
 883 1139 883 1139 975 1139 c 0,11,12
 1053 1139 1053 1139 1121.5 1109 c 128,-1,13
 1190 1079 1190 1079 1240 1029 c 128,-1,14
 1290 979 1290 979 1320 910.5 c 128,-1,15
 1350 842 1350 842 1350 764 c 0,16,17
 1350 692 1350 692 1325 629 c 1,18,19
 1366 580 1366 580 1389.5 518.5 c 128,-1,20
 1413 457 1413 457 1413 387 c 0,21,22
 1413 309 1413 309 1383.5 240.5 c 128,-1,23
 1354 172 1354 172 1302.5 122 c 128,-1,24
 1251 72 1251 72 1182.5 42 c 128,-1,25
 1114 12 1114 12 1036 12 c 2,26,-1
 535 12 l 2,27,28
 431 12 431 12 339.5 51 c 128,-1,29
 248 90 248 90 180.5 157.5 c 128,-1,30
 113 225 113 225 73 316.5 c 128,-1,31
 33 408 33 408 33 512 c 256,0,1
160 512 m 256,32,33
 160 434 160 434 189.5 365.5 c 128,-1,34
 219 297 219 297 269 247 c 128,-1,35
 319 197 319 197 388 167 c 128,-1,36
 457 137 457 137 535 137 c 2,37,-1
 1036 137 l 2,38,39
 1087 137 1087 137 1133.5 156.5 c 128,-1,40
 1180 176 1180 176 1214.5 210 c 128,-1,41
 1249 244 1249 244 1268.5 290 c 128,-1,42
 1288 336 1288 336 1288 387 c 256,43,44
 1288 438 1288 438 1268.5 484 c 128,-1,45
 1249 530 1249 530 1214.5 565 c 128,-1,46
 1180 600 1180 600 1133.5 619.5 c 128,-1,47
 1087 639 1087 639 1036 639 c 0,48,49
 999 639 999 639 964.5 627.5 c 128,-1,50
 930 616 930 616 901 598 c 1,51,52
 887 659 887 659 853 712.5 c 128,-1,53
 819 766 819 766 770 805 c 128,-1,54
 721 844 721 844 661.5 866.5 c 128,-1,55
 602 889 602 889 535 889 c 0,56,57
 457 889 457 889 388 859 c 128,-1,58
 319 829 319 829 269 778 c 128,-1,59
 219 727 219 727 189.5 658.5 c 128,-1,60
 160 590 160 590 160 512 c 256,32,33
424 1251 m 128,-1,62
 424 1278 424 1278 442 1296 c 256,63,64
 460 1314 460 1314 486 1314.5 c 128,-1,65
 512 1315 512 1315 530 1296 c 2,66,-1
 618 1206 l 2,67,68
 636 1188 636 1188 636.5 1162.5 c 128,-1,69
 637 1137 637 1137 618 1118 c 0,70,71
 602 1100 602 1100 575 1100 c 128,-1,72
 548 1100 548 1100 530 1118 c 2,73,-1
 442 1206 l 2,74,61
 424 1224 424 1224 424 1251 c 128,-1,62
797 940 m 1,75,76
 910 870 910 870 973 758 c 1,77,78
 989 760 989 760 1004.5 762 c 128,-1,79
 1020 764 1020 764 1036 764 c 0,80,81
 1087 764 1087 764 1133.5 750.5 c 128,-1,82
 1180 737 1180 737 1221 715 c 1,83,84
 1223 727 1223 727 1224 739.5 c 128,-1,85
 1225 752 1225 752 1225 764 c 0,86,87
 1225 815 1225 815 1205.5 861 c 128,-1,88
 1186 907 1186 907 1152 941 c 128,-1,89
 1118 975 1118 975 1072 994.5 c 128,-1,90
 1026 1014 1026 1014 975 1014 c 0,91,92
 866 1014 866 1014 797 940 c 1,75,76
911 1327 m 2,93,-1
 911 1454 l 2,94,95
 911 1479 911 1479 929.5 1497.5 c 128,-1,96
 948 1516 948 1516 975 1516 c 256,97,98
 1002 1516 1002 1516 1019 1497.5 c 128,-1,99
 1036 1479 1036 1479 1036 1454 c 2,100,-1
 1036 1327 l 2,101,102
 1036 1300 1036 1300 1019 1283 c 128,-1,103
 1002 1266 1002 1266 975 1266 c 256,104,105
 948 1266 948 1266 929.5 1283 c 128,-1,106
 911 1300 911 1300 911 1327 c 2,93,-1
1311 1162 m 128,-1,108
 1311 1188 1311 1188 1329 1206 c 2,109,-1
 1417 1296 l 2,110,111
 1435 1314 1435 1314 1461 1314.5 c 128,-1,112
 1487 1315 1487 1315 1505 1296 c 0,113,114
 1523 1278 1523 1278 1523.5 1251.5 c 128,-1,115
 1524 1225 1524 1225 1505 1206 c 2,116,-1
 1417 1118 l 2,117,118
 1399 1100 1399 1100 1373.5 1100 c 128,-1,119
 1348 1100 1348 1100 1329 1118 c 0,120,107
 1311 1136 1311 1136 1311 1162 c 128,-1,108
1475 764 m 256,121,122
 1475 791 1475 791 1493 808 c 128,-1,123
 1511 825 1511 825 1538 825 c 2,124,-1
 1663 825 l 2,125,126
 1690 825 1690 825 1708 808 c 128,-1,127
 1726 791 1726 791 1726 764 c 256,128,129
 1726 737 1726 737 1708 718.5 c 128,-1,130
 1690 700 1690 700 1663 700 c 2,131,-1
 1538 700 l 2,132,133
 1511 700 1511 700 1493 718.5 c 128,-1,134
 1475 737 1475 737 1475 764 c 256,121,122
EndSplineSet
Validated: 1
EndChar

StartChar: two
Encoding: 50 50 21
Width: 2007
GlyphClass: 2
Flags: W
LayerCount: 2
Fore
SplineSet
33 504 m 0,0,1
 33 606 33 606 72 696 c 128,-1,2
 111 786 111 786 177.5 853 c 128,-1,3
 244 920 244 920 333 958.5 c 128,-1,4
 422 997 422 997 524 997 c 0,5,6
 571 997 571 997 614 989 c 128,-1,7
 657 981 657 981 698 965 c 1,8,9
 737 1074 737 1074 831.5 1143 c 128,-1,10
 926 1212 926 1212 1047 1212 c 0,11,12
 1065 1212 1065 1212 1082.5 1210 c 128,-1,13
 1100 1208 1100 1208 1116 1206 c 1,14,15
 1110 1177 1110 1177 1110 1151 c 0,16,17
 1110 1100 1110 1100 1129.5 1055 c 128,-1,18
 1149 1010 1149 1010 1183 976 c 128,-1,19
 1217 942 1217 942 1261 922.5 c 128,-1,20
 1305 903 1305 903 1356 903 c 0,21,22
 1370 903 1370 903 1384.5 905 c 128,-1,23
 1399 907 1399 907 1411 909 c 1,24,25
 1417 878 1417 878 1417 844 c 0,26,27
 1417 770 1417 770 1391.5 706.5 c 128,-1,28
 1366 643 1366 643 1319 594 c 1,29,30
 1387 498 1387 498 1386 381 c 0,31,32
 1386 305 1386 305 1357.5 237.5 c 128,-1,33
 1329 170 1329 170 1279 120 c 128,-1,34
 1229 70 1229 70 1161.5 41 c 128,-1,35
 1094 12 1094 12 1018 12 c 2,36,-1
 524 12 l 2,37,38
 422 12 422 12 333 51 c 128,-1,39
 244 90 244 90 177.5 156.5 c 128,-1,40
 111 223 111 223 72 312 c 128,-1,41
 33 401 33 401 33 504 c 0,0,1
156 504 m 0,42,43
 156 426 156 426 184.5 359.5 c 128,-1,44
 213 293 213 293 263 243 c 128,-1,45
 313 193 313 193 379.5 164 c 128,-1,46
 446 135 446 135 524 135 c 2,47,-1
 1018 135 l 2,48,49
 1069 135 1069 135 1114 154.5 c 128,-1,50
 1159 174 1159 174 1192 208 c 128,-1,51
 1225 242 1225 242 1244.5 286 c 128,-1,52
 1264 330 1264 330 1264 381 c 256,53,54
 1264 432 1264 432 1244.5 477 c 128,-1,55
 1225 522 1225 522 1192 556 c 128,-1,56
 1159 590 1159 590 1114 609.5 c 128,-1,57
 1069 629 1069 629 1018 629 c 0,58,59
 981 629 981 629 946 617.5 c 128,-1,60
 911 606 911 606 883 588 c 1,61,62
 869 649 869 649 836 701.5 c 128,-1,63
 803 754 803 754 755 792.5 c 128,-1,64
 707 831 707 831 648.5 852.5 c 128,-1,65
 590 874 590 874 524 874 c 0,66,67
 446 874 446 874 379.5 845.5 c 128,-1,68
 313 817 313 817 263 766 c 128,-1,69
 213 715 213 715 184.5 647.5 c 128,-1,70
 156 580 156 580 156 504 c 0,42,43
811 905 m 1,71,72
 901 839 901 839 956 745 c 1,73,74
 970 747 970 747 985.5 749.5 c 128,-1,75
 1001 752 1001 752 1018 752 c 0,76,77
 1077 752 1077 752 1131.5 733.5 c 128,-1,78
 1186 715 1186 715 1233 680 c 1,79,80
 1272 725 1272 725 1288 786 c 1,81,82
 1175 809 1175 809 1095.5 890 c 128,-1,83
 1016 971 1016 971 993 1083 c 1,84,85
 927 1067 927 1067 877 1019 c 128,-1,86
 827 971 827 971 811 905 c 1,71,72
EndSplineSet
Validated: 33
EndChar

StartChar: three
Encoding: 51 51 22
Width: 2007
GlyphClass: 2
Flags: W
LayerCount: 2
Fore
SplineSet
33 516 m 0,0,1
 33 620 33 620 73 711.5 c 128,-1,2
 113 803 113 803 180.5 870.5 c 128,-1,3
 248 938 248 938 339 978 c 128,-1,4
 430 1018 430 1018 535 1018 c 0,5,6
 678 1018 678 1018 794.5 947.5 c 128,-1,7
 911 877 911 877 975 762 c 1,8,9
 991 762 991 762 1006.5 764 c 128,-1,10
 1022 766 1022 766 1040 766 c 0,11,12
 1118 766 1118 766 1186.5 736.5 c 128,-1,13
 1255 707 1255 707 1306.5 655.5 c 128,-1,14
 1358 604 1358 604 1387.5 535.5 c 128,-1,15
 1417 467 1417 467 1417 389 c 0,16,17
 1417 328 1417 328 1398.5 271.5 c 128,-1,18
 1380 215 1380 215 1346.5 169 c 128,-1,19
 1313 123 1313 123 1266.5 88 c 128,-1,20
 1220 53 1220 53 1165 35 c 1,21,-1
 1165 172 l 1,22,23
 1222 205 1222 205 1256 262 c 128,-1,24
 1290 319 1290 319 1290 389 c 0,25,26
 1290 440 1290 440 1270.5 486 c 128,-1,27
 1251 532 1251 532 1217.5 567 c 128,-1,28
 1184 602 1184 602 1138 621.5 c 128,-1,29
 1092 641 1092 641 1040 641 c 0,30,31
 1001 641 1001 641 967.5 629.5 c 128,-1,32
 934 618 934 618 903 600 c 1,33,34
 889 661 889 661 855 715.5 c 128,-1,35
 821 770 821 770 772 809 c 128,-1,36
 723 848 723 848 662.5 870.5 c 128,-1,37
 602 893 602 893 535 893 c 0,38,39
 457 893 457 893 388 863.5 c 128,-1,40
 319 834 319 834 268 782.5 c 128,-1,41
 217 731 217 731 187.5 662.5 c 128,-1,42
 158 594 158 594 158 516 c 0,43,44
 158 430 158 430 191.5 358.5 c 128,-1,45
 225 287 225 287 285 233 c 1,46,-1
 285 80 l 1,47,48
 170 146 170 146 101.5 260.5 c 128,-1,49
 33 375 33 375 33 516 c 0,0,1
410 -51 m 2,50,51
 410 -24 410 -24 428 -7 c 128,-1,52
 446 10 446 10 473 10 c 0,53,54
 498 10 498 10 516.5 -7.5 c 128,-1,55
 535 -25 535 -25 535 -51 c 2,56,-1
 535 -178 l 2,57,58
 535 -203 535 -203 516.5 -221.5 c 128,-1,59
 498 -240 498 -240 473 -240 c 0,60,61
 446 -240 446 -240 428 -221.5 c 128,-1,62
 410 -203 410 -203 410 -178 c 2,63,-1
 410 -51 l 2,50,51
410 201 m 2,64,-1
 410 326 l 2,65,66
 410 353 410 353 428 371 c 128,-1,67
 446 389 446 389 473 389 c 0,68,69
 498 389 498 389 516.5 370.5 c 128,-1,70
 535 352 535 352 535 326 c 2,71,-1
 535 201 l 2,72,73
 535 174 535 174 516.5 155.5 c 128,-1,74
 498 137 498 137 473 137 c 0,75,76
 446 137 446 137 428 155.5 c 128,-1,77
 410 174 410 174 410 201 c 2,64,-1
662 74 m 2,78,-1
 662 201 l 2,79,80
 662 226 662 226 680 244 c 128,-1,81
 698 262 698 262 725 262 c 256,82,83
 752 262 752 262 770 243.5 c 128,-1,84
 788 225 788 225 788 201 c 2,85,-1
 788 74 l 2,86,87
 788 47 788 47 770 28.5 c 128,-1,88
 752 10 752 10 725 10 c 256,89,90
 698 10 698 10 680 28.5 c 128,-1,91
 662 47 662 47 662 74 c 2,78,-1
662 -178 m 2,92,93
 662 -151 662 -151 680 -133 c 128,-1,94
 698 -115 698 -115 725 -115 c 256,95,96
 752 -115 752 -115 770 -133.5 c 128,-1,97
 788 -152 788 -152 788 -178 c 2,98,-1
 788 -305 l 2,99,100
 788 -330 788 -330 770 -348.5 c 128,-1,101
 752 -367 752 -367 725 -367 c 256,102,103
 698 -367 698 -367 680 -348.5 c 128,-1,104
 662 -330 662 -330 662 -305 c 2,105,-1
 662 -178 l 2,92,93
913 -51 m 2,106,107
 913 -24 913 -24 931.5 -7 c 128,-1,108
 950 10 950 10 977 10 c 256,109,110
 1004 10 1004 10 1022 -7.5 c 128,-1,111
 1040 -25 1040 -25 1040 -51 c 2,112,-1
 1040 -178 l 2,113,114
 1040 -203 1040 -203 1022 -221.5 c 128,-1,115
 1004 -240 1004 -240 977 -240 c 256,116,117
 950 -240 950 -240 931.5 -221.5 c 128,-1,118
 913 -203 913 -203 913 -178 c 2,119,-1
 913 -51 l 2,106,107
913 201 m 2,120,-1
 913 326 l 2,121,122
 913 353 913 353 931.5 371 c 128,-1,123
 950 389 950 389 977 389 c 256,124,125
 1004 389 1004 389 1022 370.5 c 128,-1,126
 1040 352 1040 352 1040 326 c 2,127,-1
 1040 201 l 2,128,129
 1040 174 1040 174 1022 155.5 c 128,-1,130
 1004 137 1004 137 977 137 c 256,131,132
 950 137 950 137 931.5 155.5 c 128,-1,133
 913 174 913 174 913 201 c 2,120,-1
EndSplineSet
Validated: 1
EndChar

StartChar: four
Encoding: 52 52 23
Width: 2007
GlyphClass: 2
Flags: W
LayerCount: 2
Fore
SplineSet
33 516 m 0,0,1
 33 620 33 620 73 711.5 c 128,-1,2
 113 803 113 803 180.5 870.5 c 128,-1,3
 248 938 248 938 339 977 c 128,-1,4
 430 1016 430 1016 532 1016 c 0,5,6
 571 1016 571 1016 606 1012 c 128,-1,7
 641 1008 641 1008 676 997 c 1,8,9
 729 1063 729 1063 805 1104 c 128,-1,10
 881 1145 881 1145 973 1145 c 0,11,12
 1051 1145 1051 1145 1119.5 1115 c 128,-1,13
 1188 1085 1188 1085 1239 1034 c 128,-1,14
 1290 983 1290 983 1320 914.5 c 128,-1,15
 1350 846 1350 846 1350 766 c 0,16,17
 1350 731 1350 731 1342.5 698.5 c 128,-1,18
 1335 666 1335 666 1325 631 c 1,19,20
 1366 584 1366 584 1389.5 522.5 c 128,-1,21
 1413 461 1413 461 1413 391 c 0,22,23
 1413 330 1413 330 1394.5 273.5 c 128,-1,24
 1376 217 1376 217 1342.5 171 c 128,-1,25
 1309 125 1309 125 1263 90 c 128,-1,26
 1217 55 1217 55 1161 37 c 1,27,-1
 1161 172 l 1,28,29
 1218 205 1218 205 1252 262 c 128,-1,30
 1286 319 1286 319 1286 391 c 0,31,32
 1286 442 1286 442 1266.5 488.5 c 128,-1,33
 1247 535 1247 535 1213.5 568.5 c 128,-1,34
 1180 602 1180 602 1133.5 621.5 c 128,-1,35
 1087 641 1087 641 1036 641 c 0,36,37
 958 641 958 641 901 600 c 1,38,39
 887 661 887 661 852 714.5 c 128,-1,40
 817 768 817 768 769 807 c 128,-1,41
 721 846 721 846 660.5 868.5 c 128,-1,42
 600 891 600 891 532 891 c 0,43,44
 454 891 454 891 385.5 861 c 128,-1,45
 317 831 317 831 267 781 c 128,-1,46
 217 731 217 731 187.5 662.5 c 128,-1,47
 158 594 158 594 158 516 c 0,48,49
 158 430 158 430 191.5 359.5 c 128,-1,50
 225 289 225 289 283 236 c 1,51,-1
 283 82 l 1,52,53
 170 148 170 148 101.5 261.5 c 128,-1,54
 33 375 33 375 33 516 c 0,0,1
408 -49 m 2,55,56
 408 -22 408 -22 426 -4 c 128,-1,57
 444 14 444 14 471 14 c 256,58,59
 498 14 498 14 515 -4.5 c 128,-1,60
 532 -23 532 -23 532 -49 c 2,61,-1
 532 -174 l 2,62,63
 532 -201 532 -201 515 -218.5 c 128,-1,64
 498 -236 498 -236 471 -236 c 256,65,66
 444 -236 444 -236 426 -218.5 c 128,-1,67
 408 -201 408 -201 408 -174 c 2,68,-1
 408 -49 l 2,55,56
408 203 m 2,69,-1
 408 328 l 2,70,71
 408 353 408 353 426 372 c 128,-1,72
 444 391 444 391 471 391 c 256,73,74
 498 391 498 391 515 371.5 c 128,-1,75
 532 352 532 352 532 328 c 2,76,-1
 532 203 l 2,77,78
 532 176 532 176 515 157.5 c 128,-1,79
 498 139 498 139 471 139 c 256,80,81
 444 139 444 139 426 157.5 c 128,-1,82
 408 176 408 176 408 203 c 2,69,-1
422 1253 m 128,-1,84
 422 1280 422 1280 440 1300 c 0,85,86
 458 1316 458 1316 485 1316.5 c 128,-1,87
 512 1317 512 1317 530 1300 c 2,88,-1
 616 1210 l 2,89,90
 636 1192 636 1192 636.5 1166.5 c 128,-1,91
 637 1141 637 1141 616 1122 c 0,92,93
 600 1104 600 1104 573 1104 c 128,-1,94
 546 1104 546 1104 530 1122 c 2,95,-1
 440 1210 l 2,96,83
 422 1226 422 1226 422 1253 c 128,-1,84
662 78 m 2,97,-1
 662 203 l 2,98,99
 662 228 662 228 679 246 c 128,-1,100
 696 264 696 264 721 264 c 0,101,102
 750 264 750 264 768 245.5 c 128,-1,103
 786 227 786 227 786 203 c 2,104,-1
 786 78 l 2,105,106
 786 49 786 49 768 31.5 c 128,-1,107
 750 14 750 14 721 14 c 0,108,109
 696 14 696 14 679 31.5 c 128,-1,110
 662 49 662 49 662 78 c 2,97,-1
662 -174 m 2,111,112
 662 -147 662 -147 679 -129 c 128,-1,113
 696 -111 696 -111 721 -111 c 0,114,115
 750 -111 750 -111 768 -129 c 128,-1,116
 786 -147 786 -147 786 -174 c 2,117,-1
 786 -301 l 2,118,119
 786 -328 786 -328 768 -346.5 c 128,-1,120
 750 -365 750 -365 721 -365 c 0,121,122
 696 -365 696 -365 679 -346.5 c 128,-1,123
 662 -328 662 -328 662 -301 c 2,124,-1
 662 -174 l 2,111,112
797 942 m 1,125,126
 910 876 910 876 973 762 c 1,127,128
 989 764 989 764 1004.5 765 c 128,-1,129
 1020 766 1020 766 1036 766 c 0,130,131
 1136 766 1136 766 1219 719 c 1,132,133
 1225 739 1225 739 1225 766 c 0,134,135
 1225 817 1225 817 1205.5 863 c 128,-1,136
 1186 909 1186 909 1151 943 c 128,-1,137
 1116 977 1116 977 1070 996.5 c 128,-1,138
 1024 1016 1024 1016 973 1016 c 0,139,140
 867 1016 867 1016 797 942 c 1,125,126
911 -49 m 2,141,142
 911 -22 911 -22 928.5 -4 c 128,-1,143
 946 14 946 14 973 14 c 256,144,145
 1000 14 1000 14 1018 -4.5 c 128,-1,146
 1036 -23 1036 -23 1036 -49 c 2,147,-1
 1036 -174 l 2,148,149
 1036 -201 1036 -201 1017.5 -218.5 c 128,-1,150
 999 -236 999 -236 973 -236 c 0,151,152
 946 -236 946 -236 928.5 -218.5 c 128,-1,153
 911 -201 911 -201 911 -174 c 2,154,-1
 911 -49 l 2,141,142
911 203 m 2,155,-1
 911 328 l 2,156,157
 911 353 911 353 928.5 372 c 128,-1,158
 946 391 946 391 973 391 c 256,159,160
 1000 391 1000 391 1018 371.5 c 128,-1,161
 1036 352 1036 352 1036 328 c 2,162,-1
 1036 203 l 2,163,164
 1036 176 1036 176 1017.5 157.5 c 128,-1,165
 999 139 999 139 973 139 c 0,166,167
 946 139 946 139 928.5 157.5 c 128,-1,168
 911 176 911 176 911 203 c 2,155,-1
911 1331 m 2,169,-1
 911 1456 l 2,170,171
 911 1483 911 1483 928.5 1501.5 c 128,-1,172
 946 1520 946 1520 973 1520 c 256,173,174
 1000 1520 1000 1520 1018 1501.5 c 128,-1,175
 1036 1483 1036 1483 1036 1456 c 2,176,-1
 1036 1331 l 2,177,178
 1036 1306 1036 1306 1018 1288 c 128,-1,179
 1000 1270 1000 1270 973 1270 c 256,180,181
 946 1270 946 1270 928.5 1288.5 c 128,-1,182
 911 1307 911 1307 911 1331 c 2,169,-1
1311 1166 m 128,-1,184
 1311 1192 1311 1192 1329 1210 c 2,185,-1
 1415 1300 l 2,186,187
 1435 1316 1435 1316 1461 1316.5 c 128,-1,188
 1487 1317 1487 1317 1505 1300 c 0,189,190
 1525 1280 1525 1280 1525.5 1253.5 c 128,-1,191
 1526 1227 1526 1227 1505 1210 c 2,192,-1
 1415 1122 l 2,193,194
 1399 1104 1399 1104 1372.5 1104 c 128,-1,195
 1346 1104 1346 1104 1329 1122 c 0,196,183
 1311 1140 1311 1140 1311 1166 c 128,-1,184
1475 766 m 0,197,198
 1475 795 1475 795 1493 813 c 128,-1,199
 1511 831 1511 831 1538 831 c 2,200,-1
 1663 831 l 2,201,202
 1690 831 1690 831 1707 813 c 128,-1,203
 1724 795 1724 795 1724 766 c 0,204,205
 1724 739 1724 739 1707 720.5 c 128,-1,206
 1690 702 1690 702 1663 702 c 2,207,-1
 1538 702 l 2,208,209
 1511 702 1511 702 1493 720.5 c 128,-1,210
 1475 739 1475 739 1475 766 c 0,197,198
EndSplineSet
Validated: 1
EndChar

StartChar: five
Encoding: 53 53 24
Width: 2007
GlyphClass: 2
Flags: W
LayerCount: 2
Fore
SplineSet
33 514 m 0,0,1
 33 618 33 618 72 709.5 c 128,-1,2
 111 801 111 801 178.5 869.5 c 128,-1,3
 246 938 246 938 337 978 c 128,-1,4
 428 1018 428 1018 532 1018 c 0,5,6
 579 1018 579 1018 624.5 1009.5 c 128,-1,7
 670 1001 670 1001 711 985 c 1,8,9
 752 1096 752 1096 848 1166.5 c 128,-1,10
 944 1237 944 1237 1069 1237 c 0,11,12
 1102 1237 1102 1237 1137 1231 c 1,13,14
 1131 1202 1131 1202 1130 1174 c 0,15,16
 1130 1123 1130 1123 1149.5 1077.5 c 128,-1,17
 1169 1032 1169 1032 1204 998.5 c 128,-1,18
 1239 965 1239 965 1284 945.5 c 128,-1,19
 1329 926 1329 926 1382 926 c 0,20,21
 1411 926 1411 926 1440 932 c 1,22,23
 1442 912 1442 912 1444 895.5 c 128,-1,24
 1446 879 1446 879 1446 862 c 0,25,26
 1446 786 1446 786 1419.5 720.5 c 128,-1,27
 1393 655 1393 655 1346 606 c 1,28,29
 1414 510 1414 510 1413 389 c 0,30,31
 1413 328 1413 328 1394.5 271.5 c 128,-1,32
 1376 215 1376 215 1342.5 169 c 128,-1,33
 1309 123 1309 123 1264 88 c 128,-1,34
 1219 53 1219 53 1163 33 c 1,35,-1
 1163 174 l 1,36,37
 1218 205 1218 205 1253 262 c 128,-1,38
 1288 319 1288 319 1288 389 c 0,39,40
 1288 440 1288 440 1268.5 486 c 128,-1,41
 1249 532 1249 532 1214.5 567 c 128,-1,42
 1180 602 1180 602 1133.5 622.5 c 128,-1,43
 1087 643 1087 643 1036 643 c 0,44,45
 966 643 966 643 901 600 c 1,46,47
 887 663 887 663 852 716.5 c 128,-1,48
 817 770 817 770 769 809 c 128,-1,49
 721 848 721 848 660.5 869.5 c 128,-1,50
 600 891 600 891 532 891 c 0,51,52
 454 891 454 891 385.5 861 c 128,-1,53
 317 831 317 831 266 781 c 128,-1,54
 215 731 215 731 185.5 662.5 c 128,-1,55
 156 594 156 594 156 514 c 0,56,57
 156 430 156 430 190.5 358.5 c 128,-1,58
 225 287 225 287 285 233 c 1,59,-1
 285 80 l 1,60,61
 170 146 170 146 101.5 260.5 c 128,-1,62
 33 375 33 375 33 514 c 0,0,1
410 -51 m 2,63,64
 410 -24 410 -24 427 -6 c 128,-1,65
 444 12 444 12 473 12 c 0,66,67
 498 12 498 12 515 -6.5 c 128,-1,68
 532 -25 532 -25 532 -51 c 2,69,-1
 532 -176 l 2,70,71
 532 -201 532 -201 515 -220.5 c 128,-1,72
 498 -240 498 -240 473 -240 c 0,73,74
 444 -240 444 -240 427 -220.5 c 128,-1,75
 410 -201 410 -201 410 -176 c 2,76,-1
 410 -51 l 2,63,64
410 201 m 2,77,-1
 410 326 l 2,78,79
 410 353 410 353 427 371 c 128,-1,80
 444 389 444 389 473 389 c 0,81,82
 498 389 498 389 515 370.5 c 128,-1,83
 532 352 532 352 532 326 c 2,84,-1
 532 201 l 2,85,86
 532 176 532 176 515 156.5 c 128,-1,87
 498 137 498 137 473 137 c 0,88,89
 444 137 444 137 427 156.5 c 128,-1,90
 410 176 410 176 410 201 c 2,77,-1
662 76 m 2,91,-1
 662 201 l 2,92,93
 662 228 662 228 679 247 c 128,-1,94
 696 266 696 266 723 266 c 256,95,96
 750 266 750 266 768 246.5 c 128,-1,97
 786 227 786 227 786 201 c 2,98,-1
 786 76 l 2,99,100
 786 47 786 47 768 29.5 c 128,-1,101
 750 12 750 12 723 12 c 256,102,103
 696 12 696 12 679 29.5 c 128,-1,104
 662 47 662 47 662 76 c 2,91,-1
662 -176 m 2,105,106
 662 -149 662 -149 679 -130 c 128,-1,107
 696 -111 696 -111 723 -111 c 256,108,109
 750 -111 750 -111 768 -130.5 c 128,-1,110
 786 -150 786 -150 786 -176 c 2,111,-1
 786 -301 l 2,112,113
 786 -328 786 -328 768 -346.5 c 128,-1,114
 750 -365 750 -365 723 -365 c 256,115,116
 696 -365 696 -365 679 -346.5 c 128,-1,117
 662 -328 662 -328 662 -301 c 2,118,-1
 662 -176 l 2,105,106
825 926 m 1,119,120
 872 891 872 891 909 850 c 128,-1,121
 946 809 946 809 973 760 c 1,122,123
 1004 766 1004 766 1036 766 c 0,124,125
 1099 766 1099 766 1154.5 747.5 c 128,-1,126
 1210 729 1210 729 1257 696 c 1,127,128
 1296 739 1296 739 1315 805 c 1,129,130
 1198 828 1198 828 1116.5 908.5 c 128,-1,131
 1035 989 1035 989 1012 1106 c 1,132,133
 942 1090 942 1090 893 1040.5 c 128,-1,134
 844 991 844 991 825 926 c 1,119,120
909 -51 m 2,135,136
 909 -24 909 -24 928.5 -6 c 128,-1,137
 948 12 948 12 973 12 c 0,138,139
 1000 12 1000 12 1018 -6.5 c 128,-1,140
 1036 -25 1036 -25 1036 -51 c 2,141,-1
 1036 -176 l 2,142,143
 1036 -201 1036 -201 1017.5 -220.5 c 128,-1,144
 999 -240 999 -240 973 -240 c 0,145,146
 948 -240 948 -240 928.5 -220.5 c 128,-1,147
 909 -201 909 -201 909 -176 c 2,148,-1
 909 -51 l 2,135,136
909 201 m 2,149,-1
 909 326 l 2,150,151
 909 353 909 353 928.5 371 c 128,-1,152
 948 389 948 389 973 389 c 0,153,154
 1000 389 1000 389 1018 370.5 c 128,-1,155
 1036 352 1036 352 1036 326 c 2,156,-1
 1036 201 l 2,157,158
 1036 176 1036 176 1017.5 156.5 c 128,-1,159
 999 137 999 137 973 137 c 0,160,161
 948 137 948 137 928.5 156.5 c 128,-1,162
 909 176 909 176 909 201 c 2,149,-1
EndSplineSet
Validated: 33
EndChar

StartChar: six
Encoding: 54 54 25
Width: 2007
GlyphClass: 2
Flags: W
LayerCount: 2
Fore
SplineSet
33 514 m 0,0,1
 33 618 33 618 73 709.5 c 128,-1,2
 113 801 113 801 180.5 868.5 c 128,-1,3
 248 936 248 936 339 976 c 128,-1,4
 430 1016 430 1016 535 1016 c 0,5,6
 676 1016 676 1016 791.5 945 c 128,-1,7
 907 874 907 874 973 758 c 1,8,9
 989 762 989 762 1004.5 764 c 128,-1,10
 1020 766 1020 766 1036 766 c 0,11,12
 1114 766 1114 766 1182.5 736.5 c 128,-1,13
 1251 707 1251 707 1302.5 655.5 c 128,-1,14
 1354 604 1354 604 1383.5 535.5 c 128,-1,15
 1413 467 1413 467 1413 389 c 0,16,17
 1413 328 1413 328 1394.5 271.5 c 128,-1,18
 1376 215 1376 215 1342.5 169 c 128,-1,19
 1309 123 1309 123 1263 88 c 128,-1,20
 1217 53 1217 53 1161 33 c 1,21,22
 1161 66 1161 66 1151 96.5 c 128,-1,23
 1141 127 1141 127 1124 154 c 1,24,25
 1196 183 1196 183 1242 245 c 128,-1,26
 1288 307 1288 307 1288 389 c 0,27,28
 1288 440 1288 440 1268.5 486 c 128,-1,29
 1249 532 1249 532 1214.5 566 c 128,-1,30
 1180 600 1180 600 1133.5 620.5 c 128,-1,31
 1087 641 1087 641 1036 641 c 0,32,33
 997 641 997 641 963.5 629.5 c 128,-1,34
 930 618 930 618 901 600 c 1,35,36
 887 661 887 661 853 714.5 c 128,-1,37
 819 768 819 768 770 807 c 128,-1,38
 721 846 721 846 661.5 868.5 c 128,-1,39
 602 891 602 891 535 891 c 0,40,41
 457 891 457 891 388 861 c 128,-1,42
 319 831 319 831 268 780 c 128,-1,43
 217 729 217 729 187.5 660.5 c 128,-1,44
 158 592 158 592 158 514 c 0,45,46
 158 408 158 408 211 320.5 c 128,-1,47
 264 233 264 233 350 186 c 1,48,-1
 348 184 l 2,49,50
 301 139 301 139 291 78 c 1,51,52
 174 141 174 141 103.5 257 c 128,-1,53
 33 373 33 373 33 514 c 0,0,1
409.5 30 m 128,-1,55
 410 68 410 68 438 96 c 2,56,-1
 504 162 l 1,57,-1
 569 96 l 2,58,59
 598 67 598 67 598 29.5 c 128,-1,60
 598 -8 598 -8 569 -37 c 256,61,62
 540 -66 540 -66 503.5 -66 c 128,-1,63
 467 -66 467 -66 438 -37 c 256,64,54
 409 -8 409 -8 409.5 30 c 128,-1,55
628.5 -221 m 128,-1,66
 629 -182 629 -182 657 -154 c 2,67,-1
 723 -88 l 1,68,-1
 788 -154 l 2,69,70
 817 -183 817 -183 817 -221.5 c 128,-1,71
 817 -260 817 -260 788 -289 c 0,72,73
 759 -316 759 -316 722.5 -315.5 c 128,-1,74
 686 -315 686 -315 657 -289 c 0,75,65
 628 -260 628 -260 628.5 -221 c 128,-1,66
845.5 30 m 128,-1,77
 846 68 846 68 874 96 c 2,78,-1
 942 162 l 1,79,-1
 1010 96 l 2,80,81
 1039 67 1039 67 1038.5 29.5 c 128,-1,82
 1038 -8 1038 -8 1010 -37 c 0,83,84
 981 -66 981 -66 942 -66 c 128,-1,85
 903 -66 903 -66 874 -37 c 256,86,76
 845 -8 845 -8 845.5 30 c 128,-1,77
EndSplineSet
Validated: 33
EndChar

StartChar: seven
Encoding: 55 55 26
Width: 2007
GlyphClass: 2
Flags: W
LayerCount: 2
Fore
SplineSet
33 512 m 0,0,1
 33 616 33 616 72 708.5 c 128,-1,2
 111 801 111 801 179.5 868.5 c 128,-1,3
 248 936 248 936 340 976 c 128,-1,4
 432 1016 432 1016 537 1016 c 0,5,6
 572 1016 572 1016 607.5 1011 c 128,-1,7
 643 1006 643 1006 676 995 c 1,8,9
 729 1061 729 1061 807 1102 c 128,-1,10
 885 1143 885 1143 977 1143 c 0,11,12
 1055 1143 1055 1143 1123.5 1113 c 128,-1,13
 1192 1083 1192 1083 1243 1032 c 128,-1,14
 1294 981 1294 981 1324 912.5 c 128,-1,15
 1354 844 1354 844 1354 766 c 0,16,17
 1354 729 1354 729 1346.5 695.5 c 128,-1,18
 1339 662 1339 662 1329 629 c 1,19,20
 1370 580 1370 580 1393.5 518.5 c 128,-1,21
 1417 457 1417 457 1417 389 c 0,22,23
 1417 328 1417 328 1397.5 270.5 c 128,-1,24
 1378 213 1378 213 1344.5 167 c 128,-1,25
 1311 121 1311 121 1265 87 c 128,-1,26
 1219 53 1219 53 1163 35 c 1,27,28
 1161 64 1161 64 1152 93.5 c 128,-1,29
 1143 123 1143 123 1124 152 c 1,30,31
 1198 179 1198 179 1244 242 c 128,-1,32
 1290 305 1290 305 1290 389 c 0,33,34
 1290 440 1290 440 1270.5 485 c 128,-1,35
 1251 530 1251 530 1217.5 564 c 128,-1,36
 1184 598 1184 598 1138 618.5 c 128,-1,37
 1092 639 1092 639 1040 639 c 0,38,39
 962 639 962 639 903 598 c 1,40,41
 887 661 887 661 853 714.5 c 128,-1,42
 819 768 819 768 771 807 c 128,-1,43
 723 846 723 846 663.5 867.5 c 128,-1,44
 604 889 604 889 537 889 c 0,45,46
 457 889 457 889 388 859 c 128,-1,47
 319 829 319 829 269 779 c 128,-1,48
 219 729 219 729 189.5 660.5 c 128,-1,49
 160 592 160 592 160 512 c 0,50,51
 160 442 160 442 182 389 c 0,52,53
 205 323 205 323 248 271 c 128,-1,54
 291 219 291 219 350 184 c 1,55,-1
 346 184 l 1,56,57
 323 159 323 159 310 130.5 c 128,-1,58
 297 102 297 102 289 74 c 1,59,60
 201 125 201 125 138.5 206 c 128,-1,61
 76 287 76 287 47 389 c 0,62,63
 33 444 33 444 33 512 c 0,0,1
409.5 28 m 128,-1,65
 410 66 410 66 438 92 c 2,66,-1
 504 160 l 1,67,-1
 571 92 l 2,68,69
 598 65 598 65 598 27.5 c 128,-1,70
 598 -10 598 -10 571 -39 c 0,71,72
 542 -68 542 -68 503.5 -68 c 128,-1,73
 465 -68 465 -68 438 -39 c 0,74,64
 409 -10 409 -10 409.5 28 c 128,-1,65
424 1253 m 128,-1,76
 424 1280 424 1280 442 1298 c 0,77,78
 458 1316 458 1316 485 1316.5 c 128,-1,79
 512 1317 512 1317 530 1298 c 2,80,-1
 621 1210 l 2,81,82
 639 1192 639 1192 639 1165.5 c 128,-1,83
 639 1139 639 1139 621 1120 c 0,84,85
 603 1104 603 1104 576.5 1104 c 128,-1,86
 550 1104 550 1104 530 1120 c 2,87,-1
 442 1210 l 2,88,75
 424 1226 424 1226 424 1253 c 128,-1,76
630.5 -225 m 128,-1,90
 631 -186 631 -186 657 -158 c 2,91,-1
 723 -90 l 1,92,-1
 791 -158 l 2,93,94
 820 -187 820 -187 819.5 -225.5 c 128,-1,95
 819 -264 819 -264 791 -293 c 0,96,97
 762 -320 762 -320 724 -319.5 c 128,-1,98
 686 -319 686 -319 657 -293 c 0,99,89
 630 -264 630 -264 630.5 -225 c 128,-1,90
797 942 m 1,100,101
 852 907 852 907 898 861 c 128,-1,102
 944 815 944 815 975 758 c 1,103,104
 991 762 991 762 1007.5 764 c 128,-1,105
 1024 766 1024 766 1040 766 c 0,106,107
 1087 766 1087 766 1134.5 752.5 c 128,-1,108
 1182 739 1182 739 1223 717 c 1,109,110
 1225 729 1225 729 1226 740.5 c 128,-1,111
 1227 752 1227 752 1227 766 c 0,112,113
 1227 817 1227 817 1207.5 863 c 128,-1,114
 1188 909 1188 909 1154 943 c 128,-1,115
 1120 977 1120 977 1074 996.5 c 128,-1,116
 1028 1016 1028 1016 977 1016 c 0,117,118
 866 1016 866 1016 797 942 c 1,100,101
850 28 m 128,-1,120
 850 66 850 66 879 92 c 2,121,-1
 944 160 l 1,122,-1
 1012 92 l 2,123,124
 1039 65 1039 65 1038.5 27.5 c 128,-1,125
 1038 -10 1038 -10 1012 -39 c 0,126,127
 983 -68 983 -68 944 -68 c 128,-1,128
 905 -68 905 -68 879 -39 c 0,129,119
 850 -10 850 -10 850 28 c 128,-1,120
913 1329 m 2,130,-1
 913 1456 l 2,131,132
 913 1483 913 1483 931.5 1501.5 c 128,-1,133
 950 1520 950 1520 977 1520 c 256,134,135
 1004 1520 1004 1520 1022 1501.5 c 128,-1,136
 1040 1483 1040 1483 1040 1456 c 2,137,-1
 1040 1329 l 2,138,139
 1040 1304 1040 1304 1022 1287 c 128,-1,140
 1004 1270 1004 1270 977 1270 c 256,141,142
 950 1270 950 1270 931.5 1287.5 c 128,-1,143
 913 1305 913 1305 913 1329 c 2,130,-1
1313 1165 m 128,-1,145
 1313 1192 1313 1192 1331 1210 c 2,146,-1
 1421 1298 l 2,147,148
 1437 1316 1437 1316 1464 1316.5 c 128,-1,149
 1491 1317 1491 1317 1511 1298 c 0,150,151
 1527 1280 1527 1280 1527.5 1253.5 c 128,-1,152
 1528 1227 1528 1227 1511 1210 c 2,153,-1
 1421 1120 l 2,154,155
 1403 1104 1403 1104 1376.5 1104 c 128,-1,156
 1350 1104 1350 1104 1331 1120 c 0,157,144
 1313 1138 1313 1138 1313 1165 c 128,-1,145
1481 766 m 0,158,159
 1481 793 1481 793 1498.5 811 c 128,-1,160
 1516 829 1516 829 1542 829 c 2,161,-1
 1667 829 l 2,162,163
 1696 829 1696 829 1713.5 811 c 128,-1,164
 1731 793 1731 793 1731 766 c 0,165,166
 1731 737 1731 737 1713.5 719.5 c 128,-1,167
 1696 702 1696 702 1667 702 c 2,168,-1
 1542 702 l 2,169,170
 1515 702 1515 702 1498 719.5 c 128,-1,171
 1481 737 1481 737 1481 766 c 0,158,159
EndSplineSet
Validated: 33
EndChar

StartChar: eight
Encoding: 56 56 27
Width: 2007
GlyphClass: 2
Flags: W
LayerCount: 2
Fore
SplineSet
33 512 m 0,0,1
 33 616 33 616 73 708.5 c 128,-1,2
 113 801 113 801 180.5 868.5 c 128,-1,3
 248 936 248 936 339 976 c 128,-1,4
 430 1016 430 1016 535 1016 c 0,5,6
 584 1016 584 1016 629 1007.5 c 128,-1,7
 674 999 674 999 715 983 c 1,8,9
 733 1038 733 1038 768 1084 c 128,-1,10
 803 1130 803 1130 849 1164 c 128,-1,11
 895 1198 895 1198 951.5 1217.5 c 128,-1,12
 1008 1237 1008 1237 1069 1237 c 0,13,14
 1087 1237 1087 1237 1104.5 1235 c 128,-1,15
 1122 1233 1122 1233 1141 1229 c 1,16,17
 1135 1200 1135 1200 1135 1174 c 0,18,19
 1135 1121 1135 1121 1154.5 1075.5 c 128,-1,20
 1174 1030 1174 1030 1207.5 995.5 c 128,-1,21
 1241 961 1241 961 1286 941.5 c 128,-1,22
 1331 922 1331 922 1384 922 c 0,23,24
 1398 922 1398 922 1411.5 924 c 128,-1,25
 1425 926 1425 926 1440 930 c 1,26,27
 1444 912 1444 912 1446 894.5 c 128,-1,28
 1448 877 1448 877 1448 858 c 0,29,30
 1448 784 1448 784 1421.5 718.5 c 128,-1,31
 1395 653 1395 653 1348 604 c 1,32,33
 1416 508 1416 508 1415 389 c 0,34,35
 1415 264 1415 264 1344.5 167 c 128,-1,36
 1274 70 1274 70 1163 31 c 1,37,38
 1163 99 1163 99 1124 152 c 1,39,40
 1196 181 1196 181 1243 243 c 128,-1,41
 1290 305 1290 305 1290 389 c 0,42,43
 1290 440 1290 440 1269.5 485 c 128,-1,44
 1249 530 1249 530 1215.5 564 c 128,-1,45
 1182 598 1182 598 1136 618.5 c 128,-1,46
 1090 639 1090 639 1038 639 c 0,47,48
 1001 639 1001 639 966.5 627.5 c 128,-1,49
 932 616 932 616 903 598 c 1,50,51
 889 659 889 659 855 713.5 c 128,-1,52
 821 768 821 768 772 807 c 128,-1,53
 723 846 723 846 662.5 868.5 c 128,-1,54
 602 891 602 891 535 891 c 0,55,56
 457 891 457 891 388 861 c 128,-1,57
 319 831 319 831 269 780 c 128,-1,58
 219 729 219 729 189.5 659.5 c 128,-1,59
 160 590 160 590 160 512 c 0,60,61
 160 442 160 442 180 389 c 0,62,63
 231 252 231 252 352 184 c 1,64,-1
 348 182 l 1,65,66
 301 135 301 135 289 74 c 1,67,68
 201 125 201 125 138.5 206 c 128,-1,69
 76 287 76 287 49 389 c 0,70,71
 33 448 33 448 33 512 c 0,0,1
409.5 28 m 128,-1,73
 410 66 410 66 436 94 c 2,74,-1
 504 160 l 1,75,-1
 571 94 l 2,76,77
 600 65 600 65 600 27.5 c 128,-1,78
 600 -10 600 -10 571 -39 c 256,79,80
 542 -68 542 -68 503.5 -68 c 128,-1,81
 465 -68 465 -68 436 -39 c 0,82,72
 409 -10 409 -10 409.5 28 c 128,-1,73
628.5 -224 m 128,-1,84
 629 -186 629 -186 657 -158 c 2,85,-1
 723 -90 l 1,86,-1
 793 -158 l 2,87,88
 820 -187 820 -187 819.5 -224.5 c 128,-1,89
 819 -262 819 -262 793 -291 c 0,90,91
 764 -320 764 -320 725 -319.5 c 128,-1,92
 686 -319 686 -319 657 -291 c 0,93,83
 628 -262 628 -262 628.5 -224 c 128,-1,84
827 924 m 1,94,95
 872 891 872 891 910 849 c 128,-1,96
 948 807 948 807 975 758 c 1,97,98
 1006 764 1006 764 1038 764 c 0,99,100
 1163 764 1163 764 1257 694 c 1,101,102
 1300 739 1300 739 1315 803 c 1,103,104
 1198 826 1198 826 1117.5 906.5 c 128,-1,105
 1037 987 1037 987 1014 1104 c 1,106,107
 944 1088 944 1088 895 1038.5 c 128,-1,108
 846 989 846 989 827 924 c 1,94,95
850 28 m 128,-1,110
 850 66 850 66 877 94 c 2,111,-1
 944 160 l 1,112,-1
 1012 94 l 2,113,114
 1041 65 1041 65 1040.5 27.5 c 128,-1,115
 1040 -10 1040 -10 1012 -39 c 0,116,117
 983 -68 983 -68 944 -68 c 128,-1,118
 905 -68 905 -68 877 -39 c 0,119,109
 850 -10 850 -10 850 28 c 128,-1,110
EndSplineSet
Validated: 33
EndChar

StartChar: nine
Encoding: 57 57 28
Width: 2007
GlyphClass: 2
Flags: W
LayerCount: 2
Fore
SplineSet
33 514 m 0,0,1
 33 618 33 618 73 709.5 c 128,-1,2
 113 801 113 801 180.5 868.5 c 128,-1,3
 248 936 248 936 339 976 c 128,-1,4
 430 1016 430 1016 535 1016 c 0,5,6
 605 1016 605 1016 671 997.5 c 128,-1,7
 737 979 737 979 793.5 945 c 128,-1,8
 850 911 850 911 897 864 c 128,-1,9
 944 817 944 817 975 760 c 1,10,11
 991 760 991 760 1006.5 762 c 128,-1,12
 1022 764 1022 764 1038 764 c 0,13,14
 1118 764 1118 764 1186.5 734.5 c 128,-1,15
 1255 705 1255 705 1306.5 653.5 c 128,-1,16
 1358 602 1358 602 1387.5 533.5 c 128,-1,17
 1417 465 1417 465 1417 387 c 0,18,19
 1417 326 1417 326 1398.5 269.5 c 128,-1,20
 1380 213 1380 213 1346.5 167 c 128,-1,21
 1313 121 1313 121 1266.5 85 c 128,-1,22
 1220 49 1220 49 1165 31 c 1,23,-1
 1165 170 l 1,24,25
 1222 203 1222 203 1256 260 c 128,-1,26
 1290 317 1290 317 1290 387 c 0,27,28
 1290 438 1290 438 1270.5 484 c 128,-1,29
 1251 530 1251 530 1217.5 564 c 128,-1,30
 1184 598 1184 598 1138 617.5 c 128,-1,31
 1092 637 1092 637 1038 637 c 0,32,33
 964 637 964 637 903 598 c 1,34,35
 889 659 889 659 855 713.5 c 128,-1,36
 821 768 821 768 772 807 c 128,-1,37
 723 846 723 846 662.5 868.5 c 128,-1,38
 602 891 602 891 535 891 c 0,39,40
 457 891 457 891 388 861 c 128,-1,41
 319 831 319 831 268 780 c 128,-1,42
 217 729 217 729 187.5 660.5 c 128,-1,43
 158 592 158 592 158 514 c 0,44,45
 158 428 158 428 191.5 356.5 c 128,-1,46
 225 285 225 285 285 231 c 1,47,-1
 285 78 l 1,48,49
 170 144 170 144 101.5 258.5 c 128,-1,50
 33 373 33 373 33 514 c 0,0,1
410 -180 m 2,51,-1
 410 324 l 2,52,53
 410 351 410 351 428 369 c 128,-1,54
 446 387 446 387 473 387 c 256,55,56
 500 387 500 387 517.5 368.5 c 128,-1,57
 535 350 535 350 535 324 c 2,58,-1
 535 -180 l 2,59,60
 535 -205 535 -205 517.5 -223.5 c 128,-1,61
 500 -242 500 -242 473 -242 c 256,62,63
 446 -242 446 -242 428 -223.5 c 128,-1,64
 410 -205 410 -205 410 -180 c 2,51,-1
662 199 m 2,65,66
 662 224 662 224 680 242 c 128,-1,67
 698 260 698 260 723 260 c 0,68,69
 752 260 752 260 770 241.5 c 128,-1,70
 788 223 788 223 788 199 c 2,71,-1
 788 -307 l 2,72,73
 788 -332 788 -332 770 -350.5 c 128,-1,74
 752 -369 752 -369 723 -369 c 0,75,76
 698 -369 698 -369 680 -350.5 c 128,-1,77
 662 -332 662 -332 662 -307 c 2,78,-1
 662 199 l 2,65,66
913 -180 m 2,79,-1
 913 324 l 2,80,81
 913 351 913 351 931.5 369 c 128,-1,82
 950 387 950 387 977 387 c 256,83,84
 1004 387 1004 387 1021 368.5 c 128,-1,85
 1038 350 1038 350 1038 324 c 2,86,-1
 1038 -180 l 2,87,88
 1038 -205 1038 -205 1021 -223.5 c 128,-1,89
 1004 -242 1004 -242 977 -242 c 256,90,91
 950 -242 950 -242 931.5 -223.5 c 128,-1,92
 913 -205 913 -205 913 -180 c 2,79,-1
EndSplineSet
Validated: 1
EndChar

StartChar: semicolon
Encoding: 59 59 30
Width: 2007
GlyphClass: 2
Flags: W
LayerCount: 2
Fore
SplineSet
33 510 m 0,0,1
 33 614 33 614 73 705.5 c 128,-1,2
 113 797 113 797 180.5 865.5 c 128,-1,3
 248 934 248 934 340 973 c 128,-1,4
 432 1012 432 1012 537 1012 c 0,5,6
 609 1012 609 1012 676 991 c 1,7,8
 729 1059 729 1059 805 1098 c 128,-1,9
 881 1137 881 1137 973 1137 c 0,10,11
 1051 1137 1051 1137 1119.5 1107 c 128,-1,12
 1188 1077 1188 1077 1238 1027 c 128,-1,13
 1288 977 1288 977 1318 908.5 c 128,-1,14
 1348 840 1348 840 1348 764 c 0,15,16
 1348 692 1348 692 1323 629 c 1,17,18
 1346 604 1346 604 1362 573.5 c 128,-1,19
 1378 543 1378 543 1391 510 c 1,20,-1
 1389 510 l 1,21,22
 1399 485 1399 485 1403 453 c 1,23,24
 1372 476 1372 476 1333 491 c 128,-1,25
 1294 506 1294 506 1253 510 c 1,26,27
 1218 567 1218 567 1162 603 c 128,-1,28
 1106 639 1106 639 1034 639 c 0,29,30
 997 639 997 639 963.5 626.5 c 128,-1,31
 930 614 930 614 899 598 c 1,32,33
 885 659 885 659 851 712.5 c 128,-1,34
 817 766 817 766 770 805 c 128,-1,35
 723 844 723 844 662.5 866.5 c 128,-1,36
 602 889 602 889 537 889 c 0,37,38
 457 889 457 889 388 859 c 128,-1,39
 319 829 319 829 268 778 c 128,-1,40
 217 727 217 727 187.5 657.5 c 128,-1,41
 158 588 158 588 158 510 c 256,42,43
 158 432 158 432 187.5 364.5 c 128,-1,44
 217 297 217 297 268 246 c 128,-1,45
 319 195 319 195 388 165 c 128,-1,46
 457 135 457 135 537 135 c 2,47,-1
 915 135 l 1,48,-1
 1223 135 l 2,49,50
 1250 135 1250 135 1268 152.5 c 128,-1,51
 1286 170 1286 170 1286 199 c 0,52,53
 1286 226 1286 226 1267.5 243 c 128,-1,54
 1249 260 1249 260 1223 260 c 0,55,56
 1198 260 1198 260 1179.5 278.5 c 128,-1,57
 1161 297 1161 297 1161 324 c 256,58,59
 1161 351 1161 351 1179.5 368 c 128,-1,60
 1198 385 1198 385 1223 385 c 2,61,-1
 1235 385 l 2,62,63
 1272 383 1272 383 1304.5 367.5 c 128,-1,64
 1337 352 1337 352 1360.5 326.5 c 128,-1,65
 1384 301 1384 301 1398.5 268.5 c 128,-1,66
 1413 236 1413 236 1413 199 c 0,67,68
 1413 127 1413 127 1365 75 c 128,-1,69
 1317 23 1317 23 1247 12 c 1,70,-1
 1223 12 l 1,71,-1
 973 12 l 1,72,-1
 537 12 l 2,73,74
 508 12 508 12 489.5 -7.5 c 128,-1,75
 471 -27 471 -27 471 -51 c 0,76,77
 471 -78 471 -78 489.5 -95.5 c 128,-1,78
 508 -113 508 -113 537 -113 c 2,79,-1
 1223 -113 l 1,80,-1
 1247 -113 l 1,81,-1
 1247 -115 l 1,82,83
 1317 -125 1317 -125 1365 -177 c 128,-1,84
 1413 -229 1413 -229 1413 -303 c 0,85,86
 1413 -340 1413 -340 1398.5 -373 c 128,-1,87
 1384 -406 1384 -406 1360.5 -431.5 c 128,-1,88
 1337 -457 1337 -457 1304.5 -472 c 128,-1,89
 1272 -487 1272 -487 1235 -489 c 0,90,91
 1231 -491 1231 -491 1223 -492 c 0,92,93
 1198 -492 1198 -492 1179.5 -472.5 c 128,-1,94
 1161 -453 1161 -453 1161 -428 c 0,95,96
 1161 -401 1161 -401 1179.5 -384 c 128,-1,97
 1198 -367 1198 -367 1223 -367 c 0,98,99
 1250 -367 1250 -367 1268 -347.5 c 128,-1,100
 1286 -328 1286 -328 1286 -303 c 0,101,102
 1286 -276 1286 -276 1267.5 -259 c 128,-1,103
 1249 -242 1249 -242 1223 -242 c 2,104,-1
 537 -242 l 1,105,-1
 512 -242 l 1,106,-1
 512 -238 l 1,107,108
 440 -232 440 -232 393 -177.5 c 128,-1,109
 346 -123 346 -123 346 -51 c 0,110,111
 346 -26 346 -26 352 -4 c 128,-1,112
 358 18 358 18 369 37 c 1,113,114
 295 62 295 62 233.5 109 c 128,-1,115
 172 156 172 156 128 217.5 c 128,-1,116
 84 279 84 279 58.5 353.5 c 128,-1,117
 33 428 33 428 33 510 c 0,0,1
422 1249 m 128,-1,119
 422 1274 422 1274 440 1292 c 0,120,121
 456 1312 456 1312 484 1312.5 c 128,-1,122
 512 1313 512 1313 528 1292 c 2,123,-1
 618 1204 l 2,124,125
 638 1188 638 1188 638.5 1161.5 c 128,-1,126
 639 1135 639 1135 618 1118 c 1,127,128
 600 1098 600 1098 574 1098 c 128,-1,129
 548 1098 548 1098 528 1118 c 2,130,-1
 440 1204 l 2,131,118
 422 1224 422 1224 422 1249 c 128,-1,119
797 940 m 1,132,133
 906 872 906 872 973 756 c 1,134,135
 1000 764 1000 764 1034 764 c 0,136,137
 1087 764 1087 764 1133.5 750.5 c 128,-1,138
 1180 737 1180 737 1221 715 c 1,139,140
 1223 727 1223 727 1223 739.5 c 128,-1,141
 1223 752 1223 752 1223 764 c 0,142,143
 1223 815 1223 815 1203.5 860 c 128,-1,144
 1184 905 1184 905 1150 939 c 128,-1,145
 1116 973 1116 973 1070 992.5 c 128,-1,146
 1024 1012 1024 1012 973 1012 c 256,147,148
 922 1012 922 1012 875.5 993.5 c 128,-1,149
 829 975 829 975 797 940 c 1,132,133
909 1325 m 2,150,-1
 909 1450 l 2,151,152
 909 1479 909 1479 927.5 1497.5 c 128,-1,153
 946 1516 946 1516 973 1516 c 256,154,155
 1000 1516 1000 1516 1017 1497.5 c 128,-1,156
 1034 1479 1034 1479 1034 1450 c 2,157,-1
 1034 1325 l 2,158,159
 1034 1300 1034 1300 1017 1282 c 128,-1,160
 1000 1264 1000 1264 973 1264 c 256,161,162
 946 1264 946 1264 927.5 1282 c 128,-1,163
 909 1300 909 1300 909 1325 c 2,150,-1
1309 1161 m 128,-1,165
 1309 1188 1309 1188 1329 1204 c 2,166,-1
 1415 1292 l 2,167,168
 1431 1312 1431 1312 1459 1312.5 c 128,-1,169
 1487 1313 1487 1313 1503 1292 c 1,170,171
 1523 1274 1523 1274 1523.5 1249.5 c 128,-1,172
 1524 1225 1524 1225 1503 1204 c 2,173,-1
 1415 1118 l 2,174,175
 1397 1098 1397 1098 1372.5 1098 c 128,-1,176
 1348 1098 1348 1098 1329 1118 c 0,177,164
 1309 1134 1309 1134 1309 1161 c 128,-1,165
1380 -51 m 0,178,179
 1380 -26 1380 -26 1397.5 -7 c 128,-1,180
 1415 12 1415 12 1444 12 c 2,181,-1
 1536 12 l 2,182,183
 1561 12 1561 12 1580 28.5 c 128,-1,184
 1599 45 1599 45 1599 72 c 0,185,186
 1599 101 1599 101 1580 118 c 128,-1,187
 1561 135 1561 135 1536 135 c 0,188,189
 1509 135 1509 135 1493 152.5 c 128,-1,190
 1477 170 1477 170 1477 199 c 0,191,192
 1477 226 1477 226 1493 243 c 128,-1,193
 1509 260 1509 260 1536 260 c 2,194,-1
 1548 260 l 1,195,196
 1622 254 1622 254 1673 202 c 128,-1,197
 1724 150 1724 150 1724 72 c 0,198,199
 1724 2 1724 2 1677 -50 c 128,-1,200
 1630 -102 1630 -102 1559 -113 c 1,201,-1
 1536 -113 l 1,202,-1
 1444 -113 l 2,203,204
 1415 -113 1415 -113 1397.5 -95.5 c 128,-1,205
 1380 -78 1380 -78 1380 -51 c 0,178,179
1477 764 m 0,206,207
 1477 789 1477 789 1493 808 c 128,-1,208
 1509 827 1509 827 1536 827 c 2,209,-1
 1661 827 l 2,210,211
 1690 827 1690 827 1707 807.5 c 128,-1,212
 1724 788 1724 788 1724 764 c 0,213,214
 1724 737 1724 737 1707 718.5 c 128,-1,215
 1690 700 1690 700 1661 700 c 2,216,-1
 1536 700 l 2,217,218
 1509 700 1509 700 1493 718.5 c 128,-1,219
 1477 737 1477 737 1477 764 c 0,206,207
EndSplineSet
Validated: 1
EndChar

StartChar: equal
Encoding: 61 61 32
Width: 2007
GlyphClass: 2
Flags: W
LayerCount: 2
Fore
SplineSet
33 514 m 0,0,1
 33 618 33 618 73 709.5 c 128,-1,2
 113 801 113 801 180.5 868.5 c 128,-1,3
 248 936 248 936 339 976 c 128,-1,4
 430 1016 430 1016 535 1016 c 0,5,6
 676 1016 676 1016 792.5 944 c 128,-1,7
 909 872 909 872 975 758 c 1,8,9
 1006 764 1006 764 1038 764 c 0,10,11
 1116 764 1116 764 1184.5 734.5 c 128,-1,12
 1253 705 1253 705 1304.5 653.5 c 128,-1,13
 1356 602 1356 602 1385.5 533.5 c 128,-1,14
 1415 465 1415 465 1415 387 c 256,15,16
 1415 309 1415 309 1385.5 240.5 c 128,-1,17
 1356 172 1356 172 1304.5 121 c 128,-1,18
 1253 70 1253 70 1184.5 40 c 128,-1,19
 1116 10 1116 10 1038 10 c 2,20,-1
 1006 10 l 1,21,22
 1006 73 1006 73 977 135 c 1,23,-1
 1038 135 l 2,24,25
 1089 135 1089 135 1135.5 154.5 c 128,-1,26
 1182 174 1182 174 1215.5 209 c 128,-1,27
 1249 244 1249 244 1269.5 289 c 128,-1,28
 1290 334 1290 334 1290 387 c 0,29,30
 1290 438 1290 438 1269.5 484 c 128,-1,31
 1249 530 1249 530 1215.5 564 c 128,-1,32
 1182 598 1182 598 1136 617.5 c 128,-1,33
 1090 637 1090 637 1038 637 c 0,34,35
 960 637 960 637 903 598 c 1,36,37
 887 661 887 661 853 714.5 c 128,-1,38
 819 768 819 768 771 807 c 128,-1,39
 723 846 723 846 662.5 867.5 c 128,-1,40
 602 889 602 889 535 889 c 0,41,42
 457 889 457 889 388 859 c 128,-1,43
 319 829 319 829 268 779 c 128,-1,44
 217 729 217 729 187.5 660.5 c 128,-1,45
 158 592 158 592 158 514 c 0,46,47
 158 442 158 442 182.5 379.5 c 128,-1,48
 207 317 207 317 249 268 c 128,-1,49
 291 219 291 219 348.5 186.5 c 128,-1,50
 406 154 406 154 473 141 c 1,51,52
 442 82 442 82 442 20 c 1,53,54
 354 36 354 36 279.5 80.5 c 128,-1,55
 205 125 205 125 149.5 190.5 c 128,-1,56
 94 256 94 256 63.5 339 c 128,-1,57
 33 422 33 422 33 514 c 0,0,1
567 10.5 m 128,-1,59
 567 74 567 74 612 121 c 2,60,-1
 723 231 l 1,61,-1
 836 121 l 2,62,63
 881 74 881 74 881 10.5 c 128,-1,64
 881 -53 881 -53 836 -100 c 0,65,66
 789 -147 789 -147 724 -147 c 128,-1,67
 659 -147 659 -147 612 -100 c 0,68,58
 567 -53 567 -53 567 10.5 c 128,-1,59
EndSplineSet
Validated: 1
EndChar

StartChar: at
Encoding: 64 64 35
Width: 1103
GlyphClass: 2
Flags: W
LayerCount: 2
Fore
SplineSet
33 520 m 256,0,1
 33 598 33 598 62.5 666.5 c 128,-1,2
 92 735 92 735 143.5 786.5 c 128,-1,3
 195 838 195 838 264.5 867.5 c 128,-1,4
 334 897 334 897 412 897 c 256,5,6
 490 897 490 897 558.5 867.5 c 128,-1,7
 627 838 627 838 678 786.5 c 128,-1,8
 729 735 729 735 758.5 666.5 c 128,-1,9
 788 598 788 598 788 520 c 256,10,11
 788 442 788 442 758.5 372.5 c 128,-1,12
 729 303 729 303 678 252 c 128,-1,13
 627 201 627 201 558.5 171 c 128,-1,14
 490 141 490 141 412 141 c 256,15,16
 334 141 334 141 264.5 171 c 128,-1,17
 195 201 195 201 143.5 252 c 128,-1,18
 92 303 92 303 62.5 372.5 c 128,-1,19
 33 442 33 442 33 520 c 256,0,1
412 266 m 1,20,21
 463 266 463 266 509 286.5 c 128,-1,22
 555 307 555 307 590 341 c 128,-1,23
 625 375 625 375 644.5 421 c 128,-1,24
 664 467 664 467 664 520 c 0,25,26
 664 571 664 571 644.5 617.5 c 128,-1,27
 625 664 625 664 590 697.5 c 128,-1,28
 555 731 555 731 509 751.5 c 128,-1,29
 463 772 463 772 412 772 c 1,30,-1
 412 266 l 1,20,21
EndSplineSet
Validated: 1
EndChar

StartChar: A
Encoding: 65 65 36
Width: 2007
GlyphClass: 2
Flags: W
LayerCount: 2
Fore
SplineSet
33 512 m 256,0,1
 33 616 33 616 73 707.5 c 128,-1,2
 113 799 113 799 180.5 867.5 c 128,-1,3
 248 936 248 936 339 975 c 128,-1,4
 430 1014 430 1014 535 1014 c 0,5,6
 676 1014 676 1014 791.5 944 c 128,-1,7
 907 874 907 874 973 758 c 1,8,9
 989 760 989 760 1004.5 761 c 128,-1,10
 1020 762 1020 762 1036 762 c 0,11,12
 1114 762 1114 762 1182.5 732 c 128,-1,13
 1251 702 1251 702 1302.5 652 c 128,-1,14
 1354 602 1354 602 1383.5 533.5 c 128,-1,15
 1413 465 1413 465 1413 387 c 256,16,17
 1413 309 1413 309 1383.5 240.5 c 128,-1,18
 1354 172 1354 172 1302.5 121 c 128,-1,19
 1251 70 1251 70 1182.5 40 c 128,-1,20
 1114 10 1114 10 1036 10 c 2,21,-1
 909 10 l 1,22,23
 909 14 909 14 910 20.5 c 128,-1,24
 911 27 911 27 911 31 c 2,25,-1
 911 135 l 1,26,-1
 1036 135 l 2,27,28
 1087 135 1087 135 1133.5 154.5 c 128,-1,29
 1180 174 1180 174 1214.5 209 c 128,-1,30
 1249 244 1249 244 1268.5 289 c 128,-1,31
 1288 334 1288 334 1288 387 c 0,32,33
 1288 438 1288 438 1268.5 484 c 128,-1,34
 1249 530 1249 530 1214.5 564 c 128,-1,35
 1180 598 1180 598 1133.5 617.5 c 128,-1,36
 1087 637 1087 637 1036 637 c 0,37,38
 979 637 979 637 930 612 c 1,39,-1
 879 664 l 1,40,41
 834 762 834 762 742.5 825.5 c 128,-1,42
 651 889 651 889 535 889 c 0,43,44
 457 889 457 889 388 859 c 128,-1,45
 319 829 319 829 268 778 c 128,-1,46
 217 727 217 727 187.5 658.5 c 128,-1,47
 158 590 158 590 158 512 c 256,48,49
 158 434 158 434 187.5 365.5 c 128,-1,50
 217 297 217 297 268 246 c 128,-1,51
 319 195 319 195 388 165 c 128,-1,52
 457 135 457 135 535 135 c 1,53,-1
 535 31 l 2,54,55
 535 17 535 17 537 10 c 1,56,-1
 535 10 l 2,57,58
 431 10 431 10 339.5 50 c 128,-1,59
 248 90 248 90 180.5 157.5 c 128,-1,60
 113 225 113 225 73 316.5 c 128,-1,61
 33 408 33 408 33 512 c 256,0,1
483 377 m 0,62,63
 483 402 483 402 502 420 c 2,64,-1
 678 598 l 2,65,66
 696 616 696 616 723 616 c 128,-1,67
 750 616 750 616 766 598 c 2,68,-1
 944 420 l 2,69,70
 962 402 962 402 962 376 c 0,71,72
 962 375 962 375 963 375 c 1,73,74
 963 350 963 350 944 332 c 0,75,76
 926 314 926 314 900 313.5 c 128,-1,77
 874 313 874 313 856 332 c 2,78,-1
 786 401 l 1,79,-1
 786 31 l 2,80,81
 786 4 786 4 768 -14.5 c 128,-1,82
 750 -33 750 -33 723 -33 c 256,83,84
 696 -33 696 -33 677.5 -14.5 c 128,-1,85
 659 4 659 4 659 31 c 2,86,-1
 659 401 l 1,87,-1
 590 332 l 2,88,89
 572 314 572 314 545 314 c 128,-1,90
 518 314 518 314 502 332 c 0,91,92
 483 351 483 351 483 377 c 0,62,63
EndSplineSet
Validated: 1
EndChar

StartChar: E
Encoding: 69 69 40
Width: 886
GlyphClass: 2
Flags: W
LayerCount: 2
Fore
SplineSet
33 4 m 0,0,1
 33 53 33 53 50.5 95 c 128,-1,2
 68 137 68 137 96 172 c 1,3,-1
 96 702 l 2,4,5
 96 741 96 741 111.5 776 c 128,-1,6
 127 811 127 811 152.5 837.5 c 128,-1,7
 178 864 178 864 213 878.5 c 128,-1,8
 248 893 248 893 287 893 c 256,9,10
 326 893 326 893 360.5 878.5 c 128,-1,11
 395 864 395 864 420.5 837.5 c 128,-1,12
 446 811 446 811 461.5 776 c 128,-1,13
 477 741 477 741 477 702 c 2,14,-1
 477 172 l 1,15,16
 506 137 506 137 523.5 95 c 128,-1,17
 541 53 541 53 541 4 c 0,18,19
 541 -49 541 -49 521.5 -95 c 128,-1,20
 502 -141 502 -141 467 -175 c 128,-1,21
 432 -209 432 -209 386 -229.5 c 128,-1,22
 340 -250 340 -250 287 -250 c 256,23,24
 234 -250 234 -250 187.5 -229.5 c 128,-1,25
 141 -209 141 -209 107.5 -175 c 128,-1,26
 74 -141 74 -141 53.5 -95 c 128,-1,27
 33 -49 33 -49 33 4 c 0,0,1
160 4 m 0,28,29
 160 -49 160 -49 196.5 -86 c 128,-1,30
 233 -123 233 -123 287 -123 c 0,31,32
 340 -123 340 -123 377 -86 c 128,-1,33
 414 -49 414 -49 414 4 c 0,34,35
 413 80 413 80 350 113 c 1,36,-1
 350 250 l 1,37,-1
 350 575 l 1,38,-1
 350 702 l 2,39,40
 350 729 350 729 331.5 747.5 c 128,-1,41
 313 766 313 766 287 766 c 0,42,43
 260 766 260 766 241.5 747.5 c 128,-1,44
 223 729 223 729 223 702 c 2,45,-1
 223 575 l 1,46,-1
 223 250 l 1,47,-1
 223 113 l 1,48,49
 194 97 194 97 177 68 c 128,-1,50
 160 39 160 39 160 4 c 0,28,29
193 4 m 0,51,52
 193 35 193 35 210 59.5 c 128,-1,53
 227 84 227 84 256 94 c 1,54,-1
 256 578 l 1,55,-1
 256 702 l 2,56,57
 256 735 256 735 287 735 c 0,58,59
 320 735 320 735 319 702 c 2,60,-1
 319 578 l 1,61,-1
 319 94 l 1,62,63
 346 84 346 84 363.5 59.5 c 128,-1,64
 381 35 381 35 381 4 c 0,65,66
 381 -35 381 -35 354.5 -62.5 c 128,-1,67
 328 -90 328 -90 287 -90 c 0,68,69
 248 -90 248 -90 220.5 -62.5 c 128,-1,70
 193 -35 193 -35 193 4 c 0,51,52
EndSplineSet
Validated: 1
EndChar

StartChar: I
Encoding: 73 73 44
Width: 1181
GlyphClass: 2
Flags: W
LayerCount: 2
Fore
SplineSet
33 422 m 256,0,1
 33 512 33 512 66.5 591 c 128,-1,2
 100 670 100 670 159.5 728 c 128,-1,3
 219 786 219 786 299 820 c 128,-1,4
 379 854 379 854 469 854 c 0,5,6
 557 854 557 854 636 820 c 128,-1,7
 715 786 715 786 774.5 728 c 128,-1,8
 834 670 834 670 867.5 591 c 128,-1,9
 901 512 901 512 901 422 c 256,10,11
 901 332 901 332 867.5 252 c 128,-1,12
 834 172 834 172 774.5 113.5 c 128,-1,13
 715 55 715 55 636 21.5 c 128,-1,14
 557 -12 557 -12 469 -12 c 0,15,16
 379 -12 379 -12 299 21.5 c 128,-1,17
 219 55 219 55 159.5 113.5 c 128,-1,18
 100 172 100 172 66.5 252 c 128,-1,19
 33 332 33 332 33 422 c 256,0,1
158 422 m 256,20,21
 158 359 158 359 182.5 302.5 c 128,-1,22
 207 246 207 246 249 204 c 128,-1,23
 291 162 291 162 347 137.5 c 128,-1,24
 403 113 403 113 469 113 c 0,25,26
 532 113 532 113 587.5 137.5 c 128,-1,27
 643 162 643 162 685 204 c 128,-1,28
 727 246 727 246 751.5 302 c 128,-1,29
 776 358 776 358 776 422 c 0,30,31
 776 485 776 485 751.5 541.5 c 128,-1,32
 727 598 727 598 685 640 c 128,-1,33
 643 682 643 682 587.5 706.5 c 128,-1,34
 532 731 532 731 469 731 c 0,35,36
 403 731 403 731 347 706.5 c 128,-1,37
 291 682 291 682 249 640 c 128,-1,38
 207 598 207 598 182.5 541.5 c 128,-1,39
 158 485 158 485 158 422 c 256,20,21
342 422 m 256,40,41
 342 475 342 475 379 511 c 128,-1,42
 416 547 416 547 469 547 c 0,43,44
 494 547 494 547 534.5 526.5 c 128,-1,45
 575 506 575 506 616 483 c 0,46,47
 663 456 663 456 715 422 c 1,48,49
 664 385 664 385 616 358 c 0,50,51
 575 335 575 335 534.5 316 c 128,-1,52
 494 297 494 297 469 297 c 0,53,54
 416 297 416 297 379 333 c 128,-1,55
 342 369 342 369 342 422 c 256,40,41
436 422 m 256,56,57
 436 391 436 391 469 391 c 0,58,59
 498 391 498 391 498 422 c 256,60,61
 498 453 498 453 469 453 c 0,62,63
 436 453 436 453 436 422 c 256,56,57
EndSplineSet
Validated: 1
EndChar

StartChar: O
Encoding: 79 79 50
Width: 1177
GlyphClass: 2
Flags: W
LayerCount: 2
Fore
SplineSet
33 420 m 0,0,1
 33 508 33 508 67.5 587 c 128,-1,2
 102 666 102 666 160.5 725 c 128,-1,3
 219 784 219 784 298 818 c 128,-1,4
 377 852 377 852 465 852 c 256,5,6
 553 852 553 852 633 818 c 128,-1,7
 713 784 713 784 771 725 c 128,-1,8
 829 666 829 666 864 587 c 128,-1,9
 899 508 899 508 899 420 c 0,10,11
 899 330 899 330 864 252 c 128,-1,12
 829 174 829 174 771 114.5 c 128,-1,13
 713 55 713 55 633 21.5 c 128,-1,14
 553 -12 553 -12 465 -12 c 256,15,16
 377 -12 377 -12 298 21.5 c 128,-1,17
 219 55 219 55 160.5 114.5 c 128,-1,18
 102 174 102 174 67.5 252 c 128,-1,19
 33 330 33 330 33 420 c 0,0,1
158 420 m 256,20,21
 158 357 158 357 182.5 301.5 c 128,-1,22
 207 246 207 246 249 204 c 128,-1,23
 291 162 291 162 346.5 137.5 c 128,-1,24
 402 113 402 113 465 113 c 256,25,26
 528 113 528 113 584.5 137.5 c 128,-1,27
 641 162 641 162 683 204 c 128,-1,28
 725 246 725 246 749.5 301 c 128,-1,29
 774 356 774 356 774 420 c 0,30,31
 774 483 774 483 749.5 539.5 c 128,-1,32
 725 596 725 596 683 638 c 128,-1,33
 641 680 641 680 584.5 704.5 c 128,-1,34
 528 729 528 729 465 729 c 256,35,36
 402 729 402 729 346.5 704.5 c 128,-1,37
 291 680 291 680 249 638 c 128,-1,38
 207 596 207 596 182.5 539.5 c 128,-1,39
 158 483 158 483 158 420 c 256,20,21
344 420 m 0,40,41
 344 471 344 471 380 507 c 128,-1,42
 416 543 416 543 465 543 c 0,43,44
 516 543 516 543 552 507 c 128,-1,45
 588 471 588 471 588 420 c 0,46,47
 588 395 588 395 568.5 354 c 128,-1,48
 549 313 549 313 526 272 c 0,49,50
 499 225 499 225 465 174 c 1,51,52
 430 225 430 225 403 272 c 0,53,54
 380 313 380 313 362 354 c 128,-1,55
 344 395 344 395 344 420 c 0,40,41
436 420 m 0,56,57
 436 410 436 410 445.5 400.5 c 128,-1,58
 455 391 455 391 465 391 c 0,59,60
 477 391 477 391 486.5 400.5 c 128,-1,61
 496 410 496 410 496 420 c 0,62,63
 496 432 496 432 486.5 441.5 c 128,-1,64
 477 451 477 451 465 451 c 0,65,66
 455 451 455 451 445.5 441.5 c 128,-1,67
 436 432 436 432 436 420 c 0,56,57
EndSplineSet
Validated: 1
EndChar

StartChar: P
Encoding: 80 80 51
Width: 1177
GlyphClass: 2
Flags: W
LayerCount: 2
Fore
SplineSet
33 420 m 256,0,1
 33 510 33 510 66.5 589 c 128,-1,2
 100 668 100 668 158.5 726 c 128,-1,3
 217 784 217 784 296 818 c 128,-1,4
 375 852 375 852 465 852 c 0,5,6
 553 852 553 852 632 818 c 128,-1,7
 711 784 711 784 770 726 c 128,-1,8
 829 668 829 668 863 589 c 128,-1,9
 897 510 897 510 897 420 c 256,10,11
 897 330 897 330 863 252 c 128,-1,12
 829 174 829 174 770 114.5 c 128,-1,13
 711 55 711 55 632 21.5 c 128,-1,14
 553 -12 553 -12 465 -12 c 0,15,16
 375 -12 375 -12 296 21.5 c 128,-1,17
 217 55 217 55 158.5 114.5 c 128,-1,18
 100 174 100 174 66.5 252 c 128,-1,19
 33 330 33 330 33 420 c 256,0,1
156 420 m 256,20,21
 156 357 156 357 180.5 300.5 c 128,-1,22
 205 244 205 244 246 203 c 128,-1,23
 287 162 287 162 343 137.5 c 128,-1,24
 399 113 399 113 465 113 c 0,25,26
 528 113 528 113 584.5 137.5 c 128,-1,27
 641 162 641 162 682 203 c 128,-1,28
 723 244 723 244 747.5 300 c 128,-1,29
 772 356 772 356 772 420 c 0,30,31
 772 483 772 483 747.5 540.5 c 128,-1,32
 723 598 723 598 682 639 c 128,-1,33
 641 680 641 680 584.5 704.5 c 128,-1,34
 528 729 528 729 465 729 c 0,35,36
 399 729 399 729 343 704.5 c 128,-1,37
 287 680 287 680 246 639 c 128,-1,38
 205 598 205 598 180.5 540.5 c 128,-1,39
 156 483 156 483 156 420 c 256,20,21
289 246 m 1,40,41
 297 283 297 283 305 319 c 0,42,43
 313 350 313 350 323.5 387 c 128,-1,44
 334 424 334 424 346 453 c 0,45,46
 350 465 350 465 355 475 c 128,-1,47
 360 485 360 485 367 496 c 0,48,49
 375 504 375 504 377 508 c 0,50,51
 381 510 381 510 389 518 c 0,52,53
 412 534 412 534 432 539 c 0,54,55
 461 551 461 551 496.5 561 c 128,-1,56
 532 571 532 571 565 580 c 0,57,58
 602 588 602 588 639 596 c 1,59,60
 631 559 631 559 623 522 c 0,61,62
 615 489 615 489 604.5 452.5 c 128,-1,63
 594 416 594 416 582 387 c 0,64,65
 575 362 575 362 561 344 c 0,66,67
 553 336 553 336 553 332 c 1,68,69
 549 332 549 332 546 330 c 128,-1,70
 543 328 543 328 539 324 c 0,71,72
 523 310 523 310 498 303 c 0,73,74
 467 291 467 291 431 280.5 c 128,-1,75
 395 270 395 270 362 262 c 0,76,77
 325 254 325 254 289 246 c 1,40,41
442 399 m 0,78,79
 452 389 452 389 463.5 389 c 128,-1,80
 475 389 475 389 485 399 c 128,-1,81
 495 409 495 409 495 419.5 c 128,-1,82
 495 430 495 430 485 442 c 0,83,84
 473 451 473 451 462.5 451 c 128,-1,85
 452 451 452 451 442 442 c 0,86,87
 433 430 433 430 433 419.5 c 128,-1,88
 433 409 433 409 442 399 c 0,78,79
EndSplineSet
Validated: 1
EndChar

StartChar: Q
Encoding: 81 81 52
Width: 884
GlyphClass: 2
Flags: W
LayerCount: 2
Fore
SplineSet
33 4 m 0,0,1
 33 53 33 53 50.5 95 c 128,-1,2
 68 137 68 137 96 172 c 1,3,-1
 96 702 l 2,4,5
 96 741 96 741 111.5 776 c 128,-1,6
 127 811 127 811 152.5 837.5 c 128,-1,7
 178 864 178 864 213 878.5 c 128,-1,8
 248 893 248 893 287 893 c 256,9,10
 326 893 326 893 360.5 878.5 c 128,-1,11
 395 864 395 864 420.5 837.5 c 128,-1,12
 446 811 446 811 461.5 776 c 128,-1,13
 477 741 477 741 477 702 c 2,14,-1
 477 172 l 1,15,16
 506 137 506 137 523.5 95 c 128,-1,17
 541 53 541 53 541 4 c 0,18,19
 541 -49 541 -49 521.5 -95 c 128,-1,20
 502 -141 502 -141 467 -175 c 128,-1,21
 432 -209 432 -209 386 -229.5 c 128,-1,22
 340 -250 340 -250 287 -250 c 256,23,24
 234 -250 234 -250 187.5 -229.5 c 128,-1,25
 141 -209 141 -209 107.5 -175 c 128,-1,26
 74 -141 74 -141 53.5 -95 c 128,-1,27
 33 -49 33 -49 33 4 c 0,0,1
160 4 m 0,28,29
 160 -49 160 -49 196.5 -86 c 128,-1,30
 233 -123 233 -123 287 -123 c 0,31,32
 340 -123 340 -123 377 -86 c 128,-1,33
 414 -49 414 -49 414 4 c 0,34,35
 413 80 413 80 350 113 c 1,36,-1
 350 250 l 1,37,-1
 350 575 l 1,38,-1
 350 702 l 2,39,40
 350 729 350 729 331.5 747.5 c 128,-1,41
 313 766 313 766 287 766 c 0,42,43
 260 766 260 766 241.5 747.5 c 128,-1,44
 223 729 223 729 223 702 c 2,45,-1
 223 575 l 1,46,-1
 223 250 l 1,47,-1
 223 113 l 1,48,49
 194 97 194 97 177 68 c 128,-1,50
 160 39 160 39 160 4 c 0,28,29
193 4 m 0,51,52
 193 35 193 35 210 59.5 c 128,-1,53
 227 84 227 84 256 94 c 1,54,-1
 256 418 l 1,55,-1
 319 418 l 1,56,-1
 319 94 l 1,57,58
 346 84 346 84 363.5 59.5 c 128,-1,59
 381 35 381 35 381 4 c 0,60,61
 381 -35 381 -35 354.5 -62.5 c 128,-1,62
 328 -90 328 -90 287 -90 c 0,63,64
 248 -90 248 -90 220.5 -62.5 c 128,-1,65
 193 -35 193 -35 193 4 c 0,51,52
EndSplineSet
Validated: 1
EndChar

StartChar: R
Encoding: 82 82 53
Width: 1443
GlyphClass: 2
Flags: W
LayerCount: 2
Fore
SplineSet
33 549 m 0,0,1
 33 594 33 594 50.5 634 c 128,-1,2
 68 674 68 674 97.5 703.5 c 128,-1,3
 127 733 127 733 167 750.5 c 128,-1,4
 207 768 207 768 252 768 c 256,5,6
 297 768 297 768 338 750.5 c 128,-1,7
 379 733 379 733 408.5 703.5 c 128,-1,8
 438 674 438 674 455.5 634 c 128,-1,9
 473 594 473 594 473 549 c 0,10,11
 473 502 473 502 455.5 462 c 128,-1,12
 438 422 438 422 408.5 391 c 128,-1,13
 379 360 379 360 338 343 c 128,-1,14
 297 326 297 326 252 326 c 256,15,16
 207 326 207 326 167 343 c 128,-1,17
 127 360 127 360 97.5 391 c 128,-1,18
 68 422 68 422 50.5 462 c 128,-1,19
 33 502 33 502 33 549 c 0,0,1
158 549 m 0,20,21
 158 508 158 508 185.5 480.5 c 128,-1,22
 213 453 213 453 252 453 c 0,23,24
 293 453 293 453 319.5 480.5 c 128,-1,25
 346 508 346 508 346 549 c 0,26,27
 346 588 346 588 319.5 615.5 c 128,-1,28
 293 643 293 643 252 643 c 0,29,30
 213 643 213 643 185.5 615.5 c 128,-1,31
 158 588 158 588 158 549 c 0,20,21
598 264 m 2,32,-1
 598 516 l 2,33,34
 598 567 598 567 618.5 613 c 128,-1,35
 639 659 639 659 673 694 c 128,-1,36
 707 729 707 729 753 748.5 c 128,-1,37
 799 768 799 768 850 768 c 256,38,39
 901 768 901 768 947 748.5 c 128,-1,40
 993 729 993 729 1028 694 c 128,-1,41
 1063 659 1063 659 1082.5 613 c 128,-1,42
 1102 567 1102 567 1102 516 c 1,43,-1
 977 516 l 1,44,45
 977 569 977 569 940 606 c 128,-1,46
 903 643 903 643 850 643 c 256,47,48
 797 643 797 643 761 606 c 128,-1,49
 725 569 725 569 725 516 c 2,50,-1
 725 264 l 2,51,52
 725 211 725 211 761 175 c 128,-1,53
 797 139 797 139 850 139 c 256,54,55
 903 139 903 139 940 175 c 128,-1,56
 977 211 977 211 977 264 c 1,57,-1
 1102 264 l 1,58,59
 1102 211 1102 211 1082.5 166 c 128,-1,60
 1063 121 1063 121 1028 86 c 128,-1,61
 993 51 993 51 947 31.5 c 128,-1,62
 901 12 901 12 850 12 c 256,63,64
 799 12 799 12 753 31.5 c 128,-1,65
 707 51 707 51 673 86 c 128,-1,66
 639 121 639 121 618.5 166 c 128,-1,67
 598 211 598 211 598 264 c 2,32,-1
EndSplineSet
Validated: 1
EndChar

StartChar: S
Encoding: 83 83 54
Width: 2007
GlyphClass: 2
Flags: W
LayerCount: 2
Fore
SplineSet
33 516 m 0,0,1
 33 620 33 620 73 711.5 c 128,-1,2
 113 803 113 803 180.5 870.5 c 128,-1,3
 248 938 248 938 340 978 c 128,-1,4
 432 1018 432 1018 537 1018 c 0,5,6
 678 1018 678 1018 793.5 947.5 c 128,-1,7
 909 877 909 877 975 760 c 1,8,9
 1006 766 1006 766 1038 766 c 0,10,11
 1116 766 1116 766 1184.5 736.5 c 128,-1,12
 1253 707 1253 707 1304.5 655.5 c 128,-1,13
 1356 604 1356 604 1385.5 535.5 c 128,-1,14
 1415 467 1415 467 1415 389 c 256,15,16
 1415 311 1415 311 1385.5 242.5 c 128,-1,17
 1356 174 1356 174 1304.5 123 c 128,-1,18
 1253 72 1253 72 1184.5 42 c 128,-1,19
 1116 12 1116 12 1038 12 c 2,20,-1
 969 12 l 1,21,-1
 1034 78 l 2,22,23
 1063 107 1063 107 1075 141 c 1,24,25
 1167 155 1167 155 1228.5 224 c 128,-1,26
 1290 293 1290 293 1290 389 c 0,27,28
 1290 440 1290 440 1270.5 486 c 128,-1,29
 1251 532 1251 532 1216.5 567 c 128,-1,30
 1182 602 1182 602 1136 621.5 c 128,-1,31
 1090 641 1090 641 1038 641 c 0,32,33
 964 641 964 641 907 602 c 1,34,35
 903 616 903 616 898 628.5 c 128,-1,36
 893 641 893 641 887 651 c 0,37,38
 846 757 846 757 751.5 825 c 128,-1,39
 657 893 657 893 537 893 c 0,40,41
 459 893 459 893 389 863.5 c 128,-1,42
 319 834 319 834 268 782.5 c 128,-1,43
 217 731 217 731 187.5 662.5 c 128,-1,44
 158 594 158 594 158 516 c 0,45,46
 158 405 158 405 214 317 c 128,-1,47
 270 229 270 229 360 182 c 1,48,49
 370 123 370 123 412 78 c 2,50,-1
 475 16 l 1,51,52
 381 28 381 28 300 71.5 c 128,-1,53
 219 115 219 115 159.5 181.5 c 128,-1,54
 100 248 100 248 66.5 334 c 128,-1,55
 33 420 33 420 33 516 c 0,0,1
483 213 m 0,56,57
 483 238 483 238 502 256 c 0,58,59
 520 274 520 274 546 274 c 128,-1,60
 572 274 572 274 590 256 c 2,61,-1
 662 186 l 1,62,-1
 662 559 l 2,63,64
 662 584 662 584 679 602.5 c 128,-1,65
 696 621 696 621 725 621 c 0,66,67
 750 621 750 621 768 602.5 c 128,-1,68
 786 584 786 584 786 559 c 2,69,-1
 786 186 l 1,70,-1
 856 256 l 2,71,72
 876 274 876 274 902 274 c 128,-1,73
 928 274 928 274 946 256 c 256,74,75
 964 238 964 238 964 212 c 0,76,77
 964 211 964 211 965 211 c 1,78,79
 965 186 965 186 946 168 c 2,80,-1
 768 -10 l 2,81,82
 750 -28 750 -28 724 -28 c 0,83,84
 723 -28 723 -28 723 -29 c 1,85,86
 698 -29 698 -29 680 -10 c 2,87,-1
 502 168 l 2,88,89
 483 186 483 186 483 213 c 0,56,57
EndSplineSet
Validated: 1
EndChar

StartChar: T
Encoding: 84 84 55
Width: 1443
GlyphClass: 2
Flags: W
LayerCount: 2
Fore
SplineSet
33 547 m 0,0,1
 33 592 33 592 50.5 632 c 128,-1,2
 68 672 68 672 97.5 701.5 c 128,-1,3
 127 731 127 731 167 748.5 c 128,-1,4
 207 766 207 766 252 766 c 256,5,6
 297 766 297 766 338 748.5 c 128,-1,7
 379 731 379 731 408.5 701.5 c 128,-1,8
 438 672 438 672 455.5 632 c 128,-1,9
 473 592 473 592 473 547 c 0,10,11
 473 500 473 500 455.5 460 c 128,-1,12
 438 420 438 420 408.5 391 c 128,-1,13
 379 362 379 362 338 345 c 128,-1,14
 297 328 297 328 252 328 c 256,15,16
 207 328 207 328 167 345 c 128,-1,17
 127 362 127 362 97.5 391 c 128,-1,18
 68 420 68 420 50.5 460 c 128,-1,19
 33 500 33 500 33 547 c 0,0,1
158 547 m 0,20,21
 158 506 158 506 185.5 479.5 c 128,-1,22
 213 453 213 453 252 453 c 0,23,24
 293 453 293 453 320.5 479.5 c 128,-1,25
 348 506 348 506 348 547 c 0,26,27
 348 586 348 586 320.5 613.5 c 128,-1,28
 293 641 293 641 252 641 c 0,29,30
 213 641 213 641 185.5 613.5 c 128,-1,31
 158 586 158 586 158 547 c 0,20,21
598 12 m 1,32,-1
 598 264 l 1,33,-1
 598 389 l 1,34,-1
 598 514 l 2,35,36
 598 565 598 565 618.5 611 c 128,-1,37
 639 657 639 657 673 692 c 128,-1,38
 707 727 707 727 753 746.5 c 128,-1,39
 799 766 799 766 850 766 c 256,40,41
 901 766 901 766 947 746.5 c 128,-1,42
 993 727 993 727 1028 692 c 128,-1,43
 1063 657 1063 657 1082.5 611 c 128,-1,44
 1102 565 1102 565 1102 514 c 1,45,-1
 975 514 l 1,46,47
 975 567 975 567 939 604 c 128,-1,48
 903 641 903 641 850 641 c 256,49,50
 797 641 797 641 761 604 c 128,-1,51
 725 567 725 567 725 514 c 2,52,-1
 725 389 l 1,53,-1
 975 389 l 1,54,-1
 975 264 l 1,55,-1
 725 264 l 1,56,-1
 725 12 l 1,57,-1
 598 12 l 1,32,-1
EndSplineSet
Validated: 1
EndChar

StartChar: U
Encoding: 85 85 56
Width: 1175
GlyphClass: 2
Flags: W
LayerCount: 2
Fore
SplineSet
33 422 m 0,0,1
 33 510 33 510 66.5 589 c 128,-1,2
 100 668 100 668 159.5 727 c 128,-1,3
 219 786 219 786 297 820 c 128,-1,4
 375 854 375 854 465 854 c 0,5,6
 553 854 553 854 632 820 c 128,-1,7
 711 786 711 786 770 727 c 128,-1,8
 829 668 829 668 863 589 c 128,-1,9
 897 510 897 510 897 422 c 0,10,11
 897 332 897 332 863 253 c 128,-1,12
 829 174 829 174 770 115.5 c 128,-1,13
 711 57 711 57 632 23.5 c 128,-1,14
 553 -10 553 -10 465 -10 c 0,15,16
 375 -10 375 -10 297 23.5 c 128,-1,17
 219 57 219 57 159.5 115.5 c 128,-1,18
 100 174 100 174 66.5 253 c 128,-1,19
 33 332 33 332 33 422 c 0,0,1
158 422 m 256,20,21
 158 359 158 359 182.5 302.5 c 128,-1,22
 207 246 207 246 248 205 c 128,-1,23
 289 164 289 164 345.5 139.5 c 128,-1,24
 402 115 402 115 465 115 c 256,25,26
 528 115 528 115 584.5 139.5 c 128,-1,27
 641 164 641 164 683 205 c 128,-1,28
 725 246 725 246 749.5 302 c 128,-1,29
 774 358 774 358 774 422 c 0,30,31
 774 485 774 485 749.5 541.5 c 128,-1,32
 725 598 725 598 683 640 c 128,-1,33
 641 682 641 682 584.5 706.5 c 128,-1,34
 528 731 528 731 465 731 c 256,35,36
 402 731 402 731 345.5 706.5 c 128,-1,37
 289 682 289 682 248 640 c 128,-1,38
 207 598 207 598 182.5 541.5 c 128,-1,39
 158 485 158 485 158 422 c 256,20,21
342 422 m 0,40,41
 342 447 342 447 361.5 487.5 c 128,-1,42
 381 528 381 528 403 569 c 0,43,44
 430 616 430 616 465 668 c 1,45,46
 500 617 500 617 526 569 c 0,47,48
 549 528 549 528 568.5 487 c 128,-1,49
 588 446 588 446 588 422 c 0,50,51
 588 371 588 371 552 335 c 128,-1,52
 516 299 516 299 465 299 c 256,53,54
 414 299 414 299 378 335 c 128,-1,55
 342 371 342 371 342 422 c 0,40,41
436 422 m 256,56,57
 436 393 436 393 465 393 c 256,58,59
 494 393 494 393 494 422 c 256,60,61
 494 451 494 451 465 451 c 256,62,63
 436 451 436 451 436 422 c 256,56,57
EndSplineSet
Validated: 1
EndChar

StartChar: W
Encoding: 87 87 58
Width: 884
GlyphClass: 2
Flags: W
LayerCount: 2
Fore
SplineSet
33 4 m 0,0,1
 33 53 33 53 50.5 95 c 128,-1,2
 68 137 68 137 96 172 c 1,3,-1
 96 702 l 2,4,5
 96 741 96 741 111.5 776 c 128,-1,6
 127 811 127 811 152.5 837.5 c 128,-1,7
 178 864 178 864 213 878.5 c 128,-1,8
 248 893 248 893 287 893 c 256,9,10
 326 893 326 893 360.5 878.5 c 128,-1,11
 395 864 395 864 420.5 837.5 c 128,-1,12
 446 811 446 811 461.5 776 c 128,-1,13
 477 741 477 741 477 702 c 2,14,-1
 477 172 l 1,15,16
 506 137 506 137 523.5 95 c 128,-1,17
 541 53 541 53 541 4 c 0,18,19
 541 -49 541 -49 521.5 -95 c 128,-1,20
 502 -141 502 -141 467 -175 c 128,-1,21
 432 -209 432 -209 386 -229.5 c 128,-1,22
 340 -250 340 -250 287 -250 c 256,23,24
 234 -250 234 -250 187.5 -229.5 c 128,-1,25
 141 -209 141 -209 107.5 -175 c 128,-1,26
 74 -141 74 -141 53.5 -95 c 128,-1,27
 33 -49 33 -49 33 4 c 0,0,1
160 4 m 0,28,29
 160 -49 160 -49 196.5 -86 c 128,-1,30
 233 -123 233 -123 287 -123 c 0,31,32
 340 -123 340 -123 377 -86 c 128,-1,33
 414 -49 414 -49 414 4 c 0,34,35
 413 80 413 80 350 113 c 1,36,-1
 350 250 l 1,37,-1
 350 575 l 1,38,-1
 350 702 l 2,39,40
 350 729 350 729 331.5 747.5 c 128,-1,41
 313 766 313 766 287 766 c 0,42,43
 260 766 260 766 241.5 747.5 c 128,-1,44
 223 729 223 729 223 702 c 2,45,-1
 223 575 l 1,46,-1
 223 250 l 1,47,-1
 223 113 l 1,48,49
 194 97 194 97 177 68 c 128,-1,50
 160 39 160 39 160 4 c 0,28,29
193 4 m 0,51,52
 193 35 193 35 210 59.5 c 128,-1,53
 227 84 227 84 256 94 c 1,54,-1
 256 578 l 1,55,-1
 319 578 l 1,56,-1
 319 94 l 1,57,58
 346 84 346 84 363.5 59.5 c 128,-1,59
 381 35 381 35 381 4 c 0,60,61
 381 -35 381 -35 354.5 -62.5 c 128,-1,62
 328 -90 328 -90 287 -90 c 0,63,64
 248 -90 248 -90 220.5 -62.5 c 128,-1,65
 193 -35 193 -35 193 4 c 0,51,52
EndSplineSet
Validated: 1
EndChar

StartChar: Y
Encoding: 89 89 60
Width: 1177
GlyphClass: 2
Flags: W
LayerCount: 2
Fore
SplineSet
33 420 m 256,0,1
 33 510 33 510 66.5 589 c 128,-1,2
 100 668 100 668 158.5 726 c 128,-1,3
 217 784 217 784 296 818 c 128,-1,4
 375 852 375 852 465 852 c 0,5,6
 553 852 553 852 632 818 c 128,-1,7
 711 784 711 784 770 726 c 128,-1,8
 829 668 829 668 863 589 c 128,-1,9
 897 510 897 510 897 420 c 256,10,11
 897 330 897 330 863 252 c 128,-1,12
 829 174 829 174 770 114.5 c 128,-1,13
 711 55 711 55 632 21.5 c 128,-1,14
 553 -12 553 -12 465 -12 c 0,15,16
 375 -12 375 -12 296 21.5 c 128,-1,17
 217 55 217 55 158.5 114.5 c 128,-1,18
 100 174 100 174 66.5 252 c 128,-1,19
 33 330 33 330 33 420 c 256,0,1
156 420 m 256,20,21
 156 357 156 357 180.5 300.5 c 128,-1,22
 205 244 205 244 246 203 c 128,-1,23
 287 162 287 162 343 137.5 c 128,-1,24
 399 113 399 113 465 113 c 0,25,26
 528 113 528 113 584.5 137.5 c 128,-1,27
 641 162 641 162 682 203 c 128,-1,28
 723 244 723 244 747.5 300 c 128,-1,29
 772 356 772 356 772 420 c 0,30,31
 772 483 772 483 747.5 540.5 c 128,-1,32
 723 598 723 598 682 639 c 128,-1,33
 641 680 641 680 584.5 704.5 c 128,-1,34
 528 729 528 729 465 729 c 0,35,36
 399 729 399 729 343 704.5 c 128,-1,37
 287 680 287 680 246 639 c 128,-1,38
 205 598 205 598 180.5 540.5 c 128,-1,39
 156 483 156 483 156 420 c 256,20,21
289 246 m 1,40,41
 297 283 297 283 305 319 c 0,42,43
 313 350 313 350 323.5 387 c 128,-1,44
 334 424 334 424 346 453 c 0,45,46
 350 465 350 465 355 475 c 128,-1,47
 360 485 360 485 367 496 c 0,48,49
 375 504 375 504 377 508 c 0,50,51
 381 510 381 510 389 518 c 0,52,53
 412 534 412 534 432 539 c 0,54,55
 461 551 461 551 496.5 561 c 128,-1,56
 532 571 532 571 565 580 c 0,57,58
 602 588 602 588 639 596 c 1,59,60
 631 559 631 559 623 522 c 0,61,62
 615 489 615 489 604.5 452.5 c 128,-1,63
 594 416 594 416 582 387 c 0,64,65
 575 362 575 362 561 344 c 0,66,67
 553 336 553 336 553 332 c 1,68,69
 549 332 549 332 546 330 c 128,-1,70
 543 328 543 328 539 324 c 0,71,72
 523 310 523 310 498 303 c 0,73,74
 467 291 467 291 431 280.5 c 128,-1,75
 395 270 395 270 362 262 c 0,76,77
 325 254 325 254 289 246 c 1,40,41
442 399 m 0,78,79
 452 389 452 389 463.5 389 c 128,-1,80
 475 389 475 389 485 399 c 128,-1,81
 495 409 495 409 495 419.5 c 128,-1,82
 495 430 495 430 485 442 c 0,83,84
 474 451 474 451 463 451 c 128,-1,85
 452 451 452 451 442 442 c 0,86,87
 433 430 433 430 433 419.5 c 128,-1,88
 433 409 433 409 442 399 c 0,78,79
EndSplineSet
Validated: 1
EndChar

StartChar: bracketleft
Encoding: 91 91 62
Width: 2007
GlyphClass: 2
Flags: W
LayerCount: 2
Fore
SplineSet
33 516 m 0,0,1
 33 620 33 620 73 711.5 c 128,-1,2
 113 803 113 803 180.5 870.5 c 128,-1,3
 248 938 248 938 339 978 c 128,-1,4
 430 1018 430 1018 535 1018 c 0,5,6
 627 1018 627 1018 715 983 c 1,7,8
 733 1038 733 1038 767 1084 c 128,-1,9
 801 1130 801 1130 847 1164 c 128,-1,10
 893 1198 893 1198 949.5 1217.5 c 128,-1,11
 1006 1237 1006 1237 1067 1237 c 0,12,13
 1104 1237 1104 1237 1139 1231 c 1,14,15
 1133 1202 1133 1202 1133 1176 c 0,16,17
 1133 1123 1133 1123 1152 1077.5 c 128,-1,18
 1171 1032 1171 1032 1205 997.5 c 128,-1,19
 1239 963 1239 963 1285 943.5 c 128,-1,20
 1331 924 1331 924 1382 924 c 0,21,22
 1411 924 1411 924 1440 930 c 1,23,24
 1446 895 1446 895 1446 860 c 0,25,26
 1446 788 1446 788 1419.5 721.5 c 128,-1,27
 1393 655 1393 655 1346 606 c 1,28,29
 1414 510 1414 510 1413 389 c 0,30,31
 1413 328 1413 328 1394.5 272.5 c 128,-1,32
 1376 217 1376 217 1342.5 171 c 128,-1,33
 1309 125 1309 125 1263 89 c 128,-1,34
 1217 53 1217 53 1161 35 c 1,35,-1
 1161 172 l 1,36,37
 1220 207 1220 207 1254 263 c 128,-1,38
 1288 319 1288 319 1288 389 c 0,39,40
 1288 440 1288 440 1268.5 486 c 128,-1,41
 1249 532 1249 532 1214.5 567 c 128,-1,42
 1180 602 1180 602 1133.5 621.5 c 128,-1,43
 1087 641 1087 641 1036 641 c 0,44,45
 960 641 960 641 901 600 c 1,46,47
 887 661 887 661 853 714.5 c 128,-1,48
 819 768 819 768 771 807 c 128,-1,49
 723 846 723 846 662.5 868.5 c 128,-1,50
 602 891 602 891 535 891 c 0,51,52
 457 891 457 891 388 861 c 128,-1,53
 319 831 319 831 268 781 c 128,-1,54
 217 731 217 731 187.5 662.5 c 128,-1,55
 158 594 158 594 158 516 c 0,56,57
 158 430 158 430 191.5 358.5 c 128,-1,58
 225 287 225 287 285 236 c 1,59,-1
 285 80 l 1,60,61
 170 146 170 146 101.5 260.5 c 128,-1,62
 33 375 33 375 33 516 c 0,0,1
408 -51 m 0,63,64
 408 -22 408 -22 426 -4 c 128,-1,65
 444 14 444 14 473 14 c 0,66,67
 500 14 500 14 517.5 -4.5 c 128,-1,68
 535 -23 535 -23 535 -51 c 0,69,70
 535 -76 535 -76 517.5 -94.5 c 128,-1,71
 500 -113 500 -113 473 -113 c 0,72,73
 444 -113 444 -113 426 -94.5 c 128,-1,74
 408 -76 408 -76 408 -51 c 0,63,64
408 201 m 0,75,76
 408 230 408 230 426 247 c 128,-1,77
 444 264 444 264 473 264 c 0,78,79
 500 264 500 264 517.5 246.5 c 128,-1,80
 535 229 535 229 535 201 c 0,81,82
 535 174 535 174 517.5 155.5 c 128,-1,83
 500 137 500 137 473 137 c 0,84,85
 444 137 444 137 426 155.5 c 128,-1,86
 408 174 408 174 408 201 c 0,75,76
659 76 m 256,87,88
 659 103 659 103 677.5 120 c 128,-1,89
 696 137 696 137 723 137 c 256,90,91
 750 137 750 137 768 119.5 c 128,-1,92
 786 102 786 102 786 76 c 0,93,94
 786 49 786 49 768 31.5 c 128,-1,95
 750 14 750 14 723 14 c 256,96,97
 696 14 696 14 677.5 31.5 c 128,-1,98
 659 49 659 49 659 76 c 256,87,88
659 -176 m 0,99,100
 659 -149 659 -149 677.5 -131 c 128,-1,101
 696 -113 696 -113 723 -113 c 256,102,103
 750 -113 750 -113 768 -131.5 c 128,-1,104
 786 -150 786 -150 786 -176 c 0,105,106
 786 -201 786 -201 768 -219.5 c 128,-1,107
 750 -238 750 -238 723 -238 c 256,108,109
 696 -238 696 -238 677.5 -219.5 c 128,-1,110
 659 -201 659 -201 659 -176 c 0,99,100
825 924 m 1,111,112
 917 861 917 861 973 760 c 1,113,114
 1004 766 1004 766 1036 766 c 0,115,116
 1099 766 1099 766 1153.5 747.5 c 128,-1,117
 1208 729 1208 729 1255 694 c 1,118,119
 1278 717 1278 717 1291.5 745.5 c 128,-1,120
 1305 774 1305 774 1313 805 c 1,121,122
 1196 828 1196 828 1115.5 908.5 c 128,-1,123
 1035 989 1035 989 1012 1104 c 1,124,125
 944 1088 944 1088 894 1039.5 c 128,-1,126
 844 991 844 991 825 924 c 1,111,112
911 -51 m 0,127,128
 911 -22 911 -22 928.5 -4 c 128,-1,129
 946 14 946 14 973 14 c 0,130,131
 1002 14 1002 14 1019 -4.5 c 128,-1,132
 1036 -23 1036 -23 1036 -51 c 0,133,134
 1036 -76 1036 -76 1018.5 -94.5 c 128,-1,135
 1001 -113 1001 -113 973 -113 c 0,136,137
 946 -113 946 -113 928.5 -94.5 c 128,-1,138
 911 -76 911 -76 911 -51 c 0,127,128
911 201 m 0,139,140
 911 230 911 230 928.5 247 c 128,-1,141
 946 264 946 264 973 264 c 0,142,143
 1002 264 1002 264 1019 246.5 c 128,-1,144
 1036 229 1036 229 1036 201 c 0,145,146
 1036 174 1036 174 1018.5 155.5 c 128,-1,147
 1001 137 1001 137 973 137 c 0,148,149
 946 137 946 137 928.5 155.5 c 128,-1,150
 911 174 911 174 911 201 c 0,139,140
EndSplineSet
Validated: 33
EndChar

StartChar: backslash
Encoding: 92 92 63
Width: 2007
GlyphClass: 2
Flags: W
LayerCount: 2
Fore
SplineSet
33 512 m 0,0,1
 33 616 33 616 73 707.5 c 128,-1,2
 113 799 113 799 180.5 867.5 c 128,-1,3
 248 936 248 936 339 976 c 128,-1,4
 430 1016 430 1016 535 1016 c 0,5,6
 574 1016 574 1016 608.5 1011 c 128,-1,7
 643 1006 643 1006 678 995 c 1,8,9
 731 1061 731 1061 807 1102 c 128,-1,10
 883 1143 883 1143 975 1143 c 0,11,12
 1053 1143 1053 1143 1121.5 1113 c 128,-1,13
 1190 1083 1190 1083 1242 1031 c 128,-1,14
 1294 979 1294 979 1324 910.5 c 128,-1,15
 1354 842 1354 842 1354 764 c 0,16,17
 1354 727 1354 727 1346.5 694.5 c 128,-1,18
 1339 662 1339 662 1327 629 c 1,19,20
 1368 580 1368 580 1391.5 518.5 c 128,-1,21
 1415 457 1415 457 1415 387 c 0,22,23
 1415 315 1415 315 1391.5 252.5 c 128,-1,24
 1368 190 1368 190 1325 141 c 128,-1,25
 1282 92 1282 92 1224.5 59.5 c 128,-1,26
 1167 27 1167 27 1100 14 c 1,27,-1
 1100 143 l 1,28,29
 1184 166 1184 166 1236 232.5 c 128,-1,30
 1288 299 1288 299 1288 387 c 0,31,32
 1288 438 1288 438 1268.5 484 c 128,-1,33
 1249 530 1249 530 1214.5 564 c 128,-1,34
 1180 598 1180 598 1133.5 617.5 c 128,-1,35
 1087 637 1087 637 1036 637 c 0,36,37
 962 637 962 637 901 598 c 1,38,39
 887 659 887 659 853 713.5 c 128,-1,40
 819 768 819 768 771 807 c 128,-1,41
 723 846 723 846 662.5 868.5 c 128,-1,42
 602 891 602 891 535 891 c 0,43,44
 457 891 457 891 388 861 c 128,-1,45
 319 831 319 831 268 780 c 128,-1,46
 217 729 217 729 187.5 659.5 c 128,-1,47
 158 590 158 590 158 512 c 0,48,49
 158 408 158 408 209 322 c 128,-1,50
 260 236 260 236 346 186 c 1,51,-1
 346 47 l 1,52,53
 276 74 276 74 219 121 c 128,-1,54
 162 168 162 168 120 228.5 c 128,-1,55
 78 289 78 289 55.5 360.5 c 128,-1,56
 33 432 33 432 33 512 c 0,0,1
424 1252 m 128,-1,58
 424 1280 424 1280 442 1296 c 0,59,60
 458 1314 458 1314 485 1314.5 c 128,-1,61
 512 1315 512 1315 530 1296 c 2,62,-1
 621 1208 l 2,63,64
 637 1190 637 1190 637 1164.5 c 128,-1,65
 637 1139 637 1139 621 1118 c 1,66,67
 601 1102 601 1102 574.5 1102 c 128,-1,68
 548 1102 548 1102 530 1118 c 2,69,-1
 442 1208 l 2,70,57
 424 1224 424 1224 424 1252 c 128,-1,58
499.5 151.5 m 128,-1,72
 494 176 494 176 506 199 c 0,73,74
 520 222 520 222 544.5 229 c 128,-1,75
 569 236 569 236 592 223 c 2,76,-1
 662 180 l 1,77,-1
 662 262 l 2,78,79
 662 289 662 289 680 306.5 c 128,-1,80
 698 324 698 324 723 324 c 0,81,82
 750 324 750 324 768 306.5 c 128,-1,83
 786 289 786 289 786 262 c 2,84,-1
 786 180 l 1,85,-1
 856 223 l 2,86,87
 879 235 879 235 903.5 228 c 128,-1,88
 928 221 928 221 940 199 c 0,89,90
 954 176 954 176 947 151.5 c 128,-1,91
 940 127 940 127 918 113 c 2,92,-1
 848 74 l 1,93,-1
 918 33 l 2,94,95
 941 19 941 19 947.5 -6 c 128,-1,96
 954 -31 954 -31 940 -53 c 0,97,98
 928 -76 928 -76 903.5 -82 c 128,-1,99
 879 -88 879 -88 856 -74 c 2,100,-1
 786 -35 l 1,101,-1
 786 -117 l 2,102,103
 786 -144 786 -144 768 -161 c 128,-1,104
 750 -178 750 -178 723 -178 c 0,105,106
 698 -178 698 -178 680 -160.5 c 128,-1,107
 662 -143 662 -143 662 -117 c 2,108,-1
 662 -35 l 1,109,-1
 592 -74 l 2,110,111
 569 -88 569 -88 544.5 -82 c 128,-1,112
 520 -76 520 -76 506 -53 c 0,113,114
 494 -30 494 -30 500 -6 c 128,-1,115
 506 18 506 18 528 33 c 2,116,-1
 598 74 l 1,117,-1
 528 113 l 2,118,71
 505 127 505 127 499.5 151.5 c 128,-1,72
662 74 m 0,119,120
 662 47 662 47 680 28.5 c 128,-1,121
 698 10 698 10 723 10 c 0,122,123
 750 10 750 10 768 28.5 c 128,-1,124
 786 47 786 47 786 74 c 0,125,126
 786 99 786 99 768 117 c 128,-1,127
 750 135 750 135 723 135 c 0,128,129
 698 135 698 135 680 116.5 c 128,-1,130
 662 98 662 98 662 74 c 0,119,120
797 942 m 1,131,132
 912 868 912 868 975 758 c 1,133,134
 1006 764 1006 764 1036 764 c 0,135,136
 1087 764 1087 764 1133.5 750.5 c 128,-1,137
 1180 737 1180 737 1221 715 c 1,138,139
 1227 740 1227 740 1227 764 c 0,140,141
 1227 815 1227 815 1207.5 861 c 128,-1,142
 1188 907 1188 907 1153 942 c 128,-1,143
 1118 977 1118 977 1072 996.5 c 128,-1,144
 1026 1016 1026 1016 975 1016 c 0,145,146
 922 1016 922 1016 876.5 996.5 c 128,-1,147
 831 977 831 977 797 942 c 1,131,132
913 1329 m 2,148,-1
 913 1456 l 2,149,150
 913 1481 913 1481 930.5 1499.5 c 128,-1,151
 948 1518 948 1518 975 1518 c 256,152,153
 1002 1518 1002 1518 1019 1499.5 c 128,-1,154
 1036 1481 1036 1481 1036 1456 c 2,155,-1
 1036 1329 l 2,156,157
 1036 1302 1036 1302 1019 1284 c 128,-1,158
 1002 1266 1002 1266 975 1266 c 256,159,160
 948 1266 948 1266 930.5 1284.5 c 128,-1,161
 913 1303 913 1303 913 1329 c 2,148,-1
1313 1164 m 128,-1,163
 1313 1190 1313 1190 1329 1208 c 2,164,-1
 1419 1296 l 2,165,166
 1435 1314 1435 1314 1463 1314.5 c 128,-1,167
 1491 1315 1491 1315 1507 1296 c 0,168,169
 1525 1280 1525 1280 1525.5 1252.5 c 128,-1,170
 1526 1225 1526 1225 1507 1208 c 2,171,-1
 1419 1118 l 2,172,173
 1401 1102 1401 1102 1375.5 1102 c 128,-1,174
 1350 1102 1350 1102 1329 1118 c 1,175,162
 1313 1138 1313 1138 1313 1164 c 128,-1,163
1477 764 m 256,176,177
 1477 791 1477 791 1495 808 c 128,-1,178
 1513 825 1513 825 1540 825 c 2,179,-1
 1667 825 l 2,180,181
 1692 825 1692 825 1710.5 808 c 128,-1,182
 1729 791 1729 791 1729 764 c 256,183,184
 1729 737 1729 737 1710.5 719.5 c 128,-1,185
 1692 702 1692 702 1667 702 c 2,186,-1
 1540 702 l 2,187,188
 1513 702 1513 702 1495 719.5 c 128,-1,189
 1477 737 1477 737 1477 764 c 256,176,177
EndSplineSet
Validated: 1
EndChar

StartChar: bracketright
Encoding: 93 93 64
Width: 2007
GlyphClass: 2
Flags: W
LayerCount: 2
Fore
SplineSet
33 512 m 0,0,1
 33 616 33 616 73 708.5 c 128,-1,2
 113 801 113 801 180.5 868.5 c 128,-1,3
 248 936 248 936 340 976 c 128,-1,4
 432 1016 432 1016 537 1016 c 0,5,6
 678 1016 678 1016 793.5 945 c 128,-1,7
 909 874 909 874 973 758 c 1,8,9
 1006 764 1006 764 1038 764 c 0,10,11
 1116 764 1116 764 1184.5 734.5 c 128,-1,12
 1253 705 1253 705 1304.5 653.5 c 128,-1,13
 1356 602 1356 602 1385.5 533.5 c 128,-1,14
 1415 465 1415 465 1415 387 c 0,15,16
 1415 317 1415 317 1391.5 255 c 128,-1,17
 1368 193 1368 193 1326 143.5 c 128,-1,18
 1284 94 1284 94 1227 60 c 128,-1,19
 1170 26 1170 26 1102 16 c 1,20,-1
 1102 143 l 1,21,22
 1182 166 1182 166 1235 232.5 c 128,-1,23
 1288 299 1288 299 1288 387 c 0,24,25
 1288 438 1288 438 1268.5 484 c 128,-1,26
 1249 530 1249 530 1215.5 565 c 128,-1,27
 1182 600 1182 600 1136 619.5 c 128,-1,28
 1090 639 1090 639 1038 639 c 0,29,30
 960 639 960 639 901 598 c 1,31,32
 887 659 887 659 853 713.5 c 128,-1,33
 819 768 819 768 771 807 c 128,-1,34
 723 846 723 846 663.5 868.5 c 128,-1,35
 604 891 604 891 537 891 c 0,36,37
 459 891 459 891 389 861 c 128,-1,38
 319 831 319 831 268 780 c 128,-1,39
 217 729 217 729 187.5 659.5 c 128,-1,40
 158 590 158 590 158 512 c 0,41,42
 158 408 158 408 210 322 c 128,-1,43
 262 236 262 236 346 186 c 1,44,-1
 346 47 l 1,45,46
 278 76 278 76 220 122 c 128,-1,47
 162 168 162 168 121 228.5 c 128,-1,48
 80 289 80 289 56.5 360.5 c 128,-1,49
 33 432 33 432 33 512 c 0,0,1
499.5 151.5 m 128,-1,51
 494 176 494 176 506 199 c 0,52,53
 520 222 520 222 544.5 227.5 c 128,-1,54
 569 233 569 233 594 221 c 2,55,-1
 662 180 l 1,56,-1
 662 262 l 2,57,58
 662 287 662 287 680 306.5 c 128,-1,59
 698 326 698 326 723 326 c 0,60,61
 750 326 750 326 768 306.5 c 128,-1,62
 786 287 786 287 786 262 c 2,63,-1
 786 180 l 1,64,-1
 856 221 l 2,65,66
 879 233 879 233 903.5 227 c 128,-1,67
 928 221 928 221 940 199 c 0,68,69
 954 176 954 176 947 151.5 c 128,-1,70
 940 127 940 127 918 113 c 2,71,-1
 850 74 l 1,72,-1
 918 33 l 2,73,74
 941 21 941 21 947.5 -5 c 128,-1,75
 954 -31 954 -31 940 -53 c 0,76,77
 928 -76 928 -76 903.5 -83 c 128,-1,78
 879 -90 879 -90 856 -76 c 2,79,-1
 786 -37 l 1,80,-1
 786 -117 l 2,81,82
 786 -142 786 -142 768 -160 c 128,-1,83
 750 -178 750 -178 723 -178 c 0,84,85
 698 -178 698 -178 680 -159.5 c 128,-1,86
 662 -141 662 -141 662 -117 c 2,87,-1
 662 -37 l 1,88,-1
 594 -76 l 2,89,90
 569 -90 569 -90 544.5 -83 c 128,-1,91
 520 -76 520 -76 506 -53 c 0,92,93
 494 -30 494 -30 500 -5 c 128,-1,94
 506 20 506 20 528 33 c 2,95,-1
 598 74 l 1,96,-1
 528 113 l 2,97,50
 505 127 505 127 499.5 151.5 c 128,-1,51
662 74 m 0,98,99
 662 47 662 47 680 28.5 c 128,-1,100
 698 10 698 10 723 10 c 0,101,102
 750 10 750 10 768 28.5 c 128,-1,103
 786 47 786 47 786 74 c 256,104,105
 786 101 786 101 768 118 c 128,-1,106
 750 135 750 135 723 135 c 0,107,108
 698 135 698 135 680 117.5 c 128,-1,109
 662 100 662 100 662 74 c 0,98,99
EndSplineSet
Validated: 1
EndChar

StartChar: asciicircum
Encoding: 94 94 65
Width: 1101
GlyphClass: 2
Flags: W
LayerCount: 2
Fore
SplineSet
33 518 m 256,0,1
 33 596 33 596 62.5 664.5 c 128,-1,2
 92 733 92 733 143.5 784.5 c 128,-1,3
 195 836 195 836 263.5 865.5 c 128,-1,4
 332 895 332 895 410 895 c 256,5,6
 488 895 488 895 556.5 865.5 c 128,-1,7
 625 836 625 836 676 784.5 c 128,-1,8
 727 733 727 733 756.5 664.5 c 128,-1,9
 786 596 786 596 786 518 c 256,10,11
 786 440 786 440 756.5 371.5 c 128,-1,12
 727 303 727 303 676 252 c 128,-1,13
 625 201 625 201 556.5 171 c 128,-1,14
 488 141 488 141 410 141 c 256,15,16
 332 141 332 141 263.5 171 c 128,-1,17
 195 201 195 201 143.5 252 c 128,-1,18
 92 303 92 303 62.5 371.5 c 128,-1,19
 33 440 33 440 33 518 c 256,0,1
158 518 m 0,20,21
 158 465 158 465 178.5 420 c 128,-1,22
 199 375 199 375 232.5 340 c 128,-1,23
 266 305 266 305 312 285.5 c 128,-1,24
 358 266 358 266 410 266 c 1,25,-1
 410 770 l 1,26,27
 359 770 359 770 312.5 749.5 c 128,-1,28
 266 729 266 729 232.5 695.5 c 128,-1,29
 199 662 199 662 178.5 615.5 c 128,-1,30
 158 569 158 569 158 518 c 0,20,21
EndSplineSet
Validated: 1
EndChar

StartChar: underscore
Encoding: 95 95 66
Width: 884
GlyphClass: 2
Flags: W
LayerCount: 2
Fore
SplineSet
33 4 m 0,0,1
 33 53 33 53 50.5 95 c 128,-1,2
 68 137 68 137 96 172 c 1,3,-1
 96 702 l 2,4,5
 96 741 96 741 111.5 776 c 128,-1,6
 127 811 127 811 152.5 837.5 c 128,-1,7
 178 864 178 864 213 878.5 c 128,-1,8
 248 893 248 893 287 893 c 256,9,10
 326 893 326 893 360.5 878.5 c 128,-1,11
 395 864 395 864 420.5 837.5 c 128,-1,12
 446 811 446 811 461.5 776 c 128,-1,13
 477 741 477 741 477 702 c 2,14,-1
 477 172 l 1,15,16
 506 137 506 137 523.5 95 c 128,-1,17
 541 53 541 53 541 4 c 0,18,19
 541 -49 541 -49 521.5 -95 c 128,-1,20
 502 -141 502 -141 467 -175 c 128,-1,21
 432 -209 432 -209 386 -229.5 c 128,-1,22
 340 -250 340 -250 287 -250 c 256,23,24
 234 -250 234 -250 187.5 -229.5 c 128,-1,25
 141 -209 141 -209 107.5 -175 c 128,-1,26
 74 -141 74 -141 53.5 -95 c 128,-1,27
 33 -49 33 -49 33 4 c 0,0,1
160 4 m 0,28,29
 160 -49 160 -49 196.5 -86 c 128,-1,30
 233 -123 233 -123 287 -123 c 0,31,32
 340 -123 340 -123 377 -86 c 128,-1,33
 414 -49 414 -49 414 4 c 0,34,35
 413 80 413 80 350 113 c 1,36,-1
 350 250 l 1,37,-1
 350 575 l 1,38,-1
 350 702 l 2,39,40
 350 729 350 729 331.5 747.5 c 128,-1,41
 313 766 313 766 287 766 c 0,42,43
 260 766 260 766 241.5 747.5 c 128,-1,44
 223 729 223 729 223 702 c 2,45,-1
 223 575 l 1,46,-1
 223 250 l 1,47,-1
 223 113 l 1,48,49
 194 97 194 97 177 68 c 128,-1,50
 160 39 160 39 160 4 c 0,28,29
193 4 m 0,51,52
 193 45 193 45 220.5 71.5 c 128,-1,53
 248 98 248 98 287 98 c 0,54,55
 328 98 328 98 354.5 71.5 c 128,-1,56
 381 45 381 45 381 4 c 0,57,58
 381 -35 381 -35 354.5 -62.5 c 128,-1,59
 328 -90 328 -90 287 -90 c 0,60,61
 248 -90 248 -90 220.5 -62.5 c 128,-1,62
 193 -35 193 -35 193 4 c 0,51,52
EndSplineSet
Validated: 1
EndChar

StartChar: grave
Encoding: 96 96 67
Width: 2007
GlyphClass: 2
Flags: W
LayerCount: 2
Fore
SplineSet
31 516 m 256,0,1
 31 620 31 620 71 711.5 c 128,-1,2
 111 803 111 803 178.5 870.5 c 128,-1,3
 246 938 246 938 338 978 c 128,-1,4
 430 1018 430 1018 535 1018 c 0,5,6
 678 1018 678 1018 793.5 947.5 c 128,-1,7
 909 877 909 877 975 760 c 1,8,9
 991 764 991 764 1006.5 766 c 128,-1,10
 1022 768 1022 768 1038 768 c 0,11,12
 1116 768 1116 768 1184.5 738.5 c 128,-1,13
 1253 709 1253 709 1304.5 656.5 c 128,-1,14
 1356 604 1356 604 1385.5 535.5 c 128,-1,15
 1415 467 1415 467 1415 389 c 256,16,17
 1415 311 1415 311 1385.5 241.5 c 128,-1,18
 1356 172 1356 172 1304.5 121 c 128,-1,19
 1253 70 1253 70 1184.5 40 c 128,-1,20
 1116 10 1116 10 1038 10 c 2,21,-1
 535 10 l 2,22,23
 431 10 431 10 338.5 50 c 128,-1,24
 246 90 246 90 178.5 158.5 c 128,-1,25
 111 227 111 227 71 319.5 c 128,-1,26
 31 412 31 412 31 516 c 256,0,1
156 516 m 0,27,28
 156 436 156 436 185.5 367.5 c 128,-1,29
 215 299 215 299 267 248 c 128,-1,30
 319 197 319 197 388 167 c 128,-1,31
 457 137 457 137 535 137 c 2,32,-1
 1038 137 l 2,33,34
 1089 137 1089 137 1135.5 156.5 c 128,-1,35
 1182 176 1182 176 1216.5 211 c 128,-1,36
 1251 246 1251 246 1270.5 291 c 128,-1,37
 1290 336 1290 336 1290 389 c 0,38,39
 1290 440 1290 440 1270.5 486 c 128,-1,40
 1251 532 1251 532 1216.5 567 c 128,-1,41
 1182 602 1182 602 1136 621.5 c 128,-1,42
 1090 641 1090 641 1038 641 c 0,43,44
 999 641 999 641 965.5 629.5 c 128,-1,45
 932 618 932 618 901 600 c 1,46,47
 887 663 887 663 853 716.5 c 128,-1,48
 819 770 819 770 771 809 c 128,-1,49
 723 848 723 848 662.5 869.5 c 128,-1,50
 602 891 602 891 535 891 c 0,51,52
 457 891 457 891 388 861 c 128,-1,53
 319 831 319 831 267 781 c 128,-1,54
 215 731 215 731 185.5 662.5 c 128,-1,55
 156 594 156 594 156 516 c 0,27,28
EndSplineSet
Validated: 1
EndChar

StartChar: a
Encoding: 97 97 68
Width: 2007
GlyphClass: 2
Flags: W
LayerCount: 2
Fore
SplineSet
33 518 m 0,0,1
 33 622 33 622 73 713.5 c 128,-1,2
 113 805 113 805 180.5 872.5 c 128,-1,3
 248 940 248 940 339 979 c 128,-1,4
 430 1018 430 1018 535 1018 c 0,5,6
 627 1018 627 1018 715 985 c 1,7,8
 733 1040 733 1040 768 1086.5 c 128,-1,9
 803 1133 803 1133 849 1166.5 c 128,-1,10
 895 1200 895 1200 951.5 1219.5 c 128,-1,11
 1008 1239 1008 1239 1069 1239 c 0,12,13
 1087 1239 1087 1239 1104.5 1237 c 128,-1,14
 1122 1235 1122 1235 1139 1231 c 1,15,16
 1133 1206 1133 1206 1133 1176 c 0,17,18
 1133 1123 1133 1123 1152 1077.5 c 128,-1,19
 1171 1032 1171 1032 1205 998.5 c 128,-1,20
 1239 965 1239 965 1284 945.5 c 128,-1,21
 1329 926 1329 926 1382 926 c 0,22,23
 1411 926 1411 926 1440 932 c 1,24,25
 1446 895 1446 895 1446 862 c 0,26,27
 1446 788 1446 788 1419.5 722.5 c 128,-1,28
 1393 657 1393 657 1346 608 c 1,29,30
 1415 515 1415 515 1415 393 c 0,31,32
 1415 267 1415 267 1344.5 171.5 c 128,-1,33
 1274 76 1274 76 1163 35 c 1,34,-1
 1163 174 l 1,35,36
 1220 207 1220 207 1255 263 c 128,-1,37
 1290 319 1290 319 1290 389 c 0,38,39
 1290 440 1290 440 1269.5 487.5 c 128,-1,40
 1249 535 1249 535 1215.5 568.5 c 128,-1,41
 1182 602 1182 602 1136 622.5 c 128,-1,42
 1090 643 1090 643 1038 643 c 0,43,44
 999 643 999 643 965.5 632 c 128,-1,45
 932 621 932 621 901 602 c 1,46,47
 887 663 887 663 853 716.5 c 128,-1,48
 819 770 819 770 771 809 c 128,-1,49
 723 848 723 848 662.5 870.5 c 128,-1,50
 602 893 602 893 535 893 c 0,51,52
 457 893 457 893 388 863.5 c 128,-1,53
 319 834 319 834 269 783.5 c 128,-1,54
 219 733 219 733 189.5 664.5 c 128,-1,55
 160 596 160 596 160 518 c 0,56,57
 160 432 160 432 193.5 360.5 c 128,-1,58
 227 289 227 289 285 236 c 1,59,-1
 285 82 l 1,60,61
 172 148 172 148 102.5 262.5 c 128,-1,62
 33 377 33 377 33 518 c 0,0,1
500 154 m 0,63,64
 498 163 498 163 498 172 c 0,65,66
 498 188 498 188 506 203 c 0,67,68
 520 226 520 226 545.5 232 c 128,-1,69
 571 238 571 238 594 225 c 2,70,-1
 659 186 l 1,71,-1
 659 264 l 2,72,73
 659 291 659 291 678.5 309.5 c 128,-1,74
 698 328 698 328 725 328 c 0,75,76
 750 328 750 328 769 309.5 c 128,-1,77
 788 291 788 291 788 264 c 2,78,-1
 788 186 l 1,79,-1
 856 225 l 2,80,81
 879 237 879 237 903.5 231 c 128,-1,82
 928 225 928 225 942 203 c 0,83,84
 954 180 954 180 948 154.5 c 128,-1,85
 942 129 942 129 918 117 c 2,86,-1
 850 76 l 1,87,-1
 918 37 l 2,88,89
 943 25 943 25 948.5 -1 c 128,-1,90
 954 -27 954 -27 942 -49 c 0,91,92
 928 -72 928 -72 903.5 -79 c 128,-1,93
 879 -86 879 -86 856 -72 c 2,94,-1
 788 -31 l 1,95,-1
 788 -111 l 2,96,97
 788 -140 788 -140 769 -157 c 128,-1,98
 750 -174 750 -174 725 -174 c 0,99,100
 698 -174 698 -174 678.5 -156.5 c 128,-1,101
 659 -139 659 -139 659 -111 c 2,102,-1
 659 -31 l 1,103,-1
 594 -72 l 2,104,105
 571 -86 571 -86 545.5 -79 c 128,-1,106
 520 -72 520 -72 506 -49 c 0,107,108
 498 -34 498 -34 498 -19 c 0,109,110
 498 -10 498 -10 501 0 c 0,111,112
 508 26 508 26 530 37 c 2,113,-1
 598 76 l 1,114,-1
 530 117 l 2,115,116
 506 128 506 128 500 154 c 0,63,64
659 76 m 0,117,118
 659 49 659 49 678.5 31.5 c 128,-1,119
 698 14 698 14 725 14 c 0,120,121
 750 14 750 14 769 31.5 c 128,-1,122
 788 49 788 49 788 76 c 256,123,124
 788 103 788 103 769 121 c 128,-1,125
 750 139 750 139 725 139 c 0,126,127
 698 139 698 139 678.5 120.5 c 128,-1,128
 659 102 659 102 659 76 c 0,117,118
827 926 m 1,129,130
 872 891 872 891 909 850 c 128,-1,131
 946 809 946 809 975 762 c 1,132,133
 991 764 991 764 1006.5 766 c 128,-1,134
 1022 768 1022 768 1038 768 c 0,135,136
 1099 768 1099 768 1154.5 749.5 c 128,-1,137
 1210 731 1210 731 1257 696 c 1,138,139
 1277 719 1277 719 1292 746.5 c 128,-1,140
 1307 774 1307 774 1313 807 c 1,141,142
 1198 827 1198 827 1117.5 909 c 128,-1,143
 1037 991 1037 991 1014 1106 c 1,144,145
 944 1090 944 1090 895 1040.5 c 128,-1,146
 846 991 846 991 827 926 c 1,129,130
EndSplineSet
Validated: 1
EndChar

StartChar: b
Encoding: 98 98 69
Width: 1892
GlyphClass: 2
Flags: W
LayerCount: 2
Fore
SplineSet
33 408 m 256,0,1
 33 437 33 437 52.5 455 c 128,-1,2
 72 473 72 473 98 473 c 2,3,-1
 229 473 l 2,4,5
 258 473 258 473 276.5 455 c 128,-1,6
 295 437 295 437 295 408 c 256,7,8
 295 379 295 379 276.5 360.5 c 128,-1,9
 258 342 258 342 229 342 c 2,10,-1
 98 342 l 2,11,12
 71 342 71 342 52 360.5 c 128,-1,13
 33 379 33 379 33 408 c 256,0,1
244 919.5 m 128,-1,15
 244 946 244 946 264 965 c 1,16,17
 282 988 282 988 310 987.5 c 128,-1,18
 338 987 338 987 360 965 c 2,19,-1
 449 870 l 1,20,21
 472 852 472 852 471.5 825.5 c 128,-1,22
 471 799 471 799 449 780 c 0,23,24
 431 760 431 760 404.5 760 c 128,-1,25
 378 760 378 760 360 780 c 2,26,-1
 264 870 l 2,27,14
 244 893 244 893 244 919.5 c 128,-1,15
428 80 m 0,28,29
 428 105 428 105 447.5 123 c 128,-1,30
 467 141 467 141 496 141 c 2,31,-1
 1151 141 l 2,32,33
 1180 141 1180 141 1199.5 122.5 c 128,-1,34
 1219 104 1219 104 1219 80 c 0,35,36
 1219 51 1219 51 1199.5 31.5 c 128,-1,37
 1180 12 1180 12 1151 12 c 2,38,-1
 496 12 l 2,39,40
 467 12 467 12 447.5 31.5 c 128,-1,41
 428 51 428 51 428 80 c 0,28,29
428 408 m 0,42,43
 428 490 428 490 458.5 561.5 c 128,-1,44
 489 633 489 633 543.5 687 c 128,-1,45
 598 741 598 741 669.5 772 c 128,-1,46
 741 803 741 803 823 803 c 256,47,48
 905 803 905 803 977 772 c 128,-1,49
 1049 741 1049 741 1103 687 c 128,-1,50
 1157 633 1157 633 1188 561 c 128,-1,51
 1219 489 1219 489 1219 408 c 0,52,53
 1219 373 1219 373 1212.5 339 c 128,-1,54
 1206 305 1206 305 1196 276 c 1,55,-1
 1053 276 l 1,56,57
 1069 303 1069 303 1079.5 337 c 128,-1,58
 1090 371 1090 371 1090 408 c 0,59,60
 1090 463 1090 463 1069.5 511 c 128,-1,61
 1049 559 1049 559 1012 595 c 128,-1,62
 975 631 975 631 927 651.5 c 128,-1,63
 879 672 879 672 823 672 c 0,64,65
 768 672 768 672 720 651.5 c 128,-1,66
 672 631 672 631 635 595 c 128,-1,67
 598 559 598 559 577.5 511 c 128,-1,68
 557 463 557 463 557 408 c 0,69,70
 557 371 557 371 567.5 337 c 128,-1,71
 578 303 578 303 594 276 c 1,72,-1
 449 276 l 1,73,74
 439 305 439 305 433.5 339 c 128,-1,75
 428 373 428 373 428 408 c 0,42,43
651 441 m 0,76,77
 651 454 651 454 662 463 c 0,78,79
 670 473 670 473 684 473 c 128,-1,80
 698 473 698 473 709 463 c 2,81,-1
 791 385 l 1,82,-1
 791 506 l 2,83,84
 791 518 791 518 800 527.5 c 128,-1,85
 809 537 809 537 823 537 c 256,86,87
 837 537 837 537 846.5 527.5 c 128,-1,88
 856 518 856 518 856 506 c 2,89,-1
 856 385 l 1,90,-1
 938 463 l 2,91,92
 948 473 948 473 962.5 473 c 128,-1,93
 977 473 977 473 985 463 c 0,94,95
 995 453 995 453 995 439.5 c 128,-1,96
 995 426 995 426 985 416 c 2,97,-1
 846 279 l 2,98,99
 836 266 836 266 824 266 c 2,100,101
 824 266 824 266 823 266 c 0,102,103
 811 266 811 266 801 279 c 2,104,-1
 662 416 l 2,105,106
 651 427 651 427 651 441 c 0,76,77
758 999 m 2,107,-1
 758 1130 l 2,108,109
 758 1159 758 1159 776.5 1178.5 c 128,-1,110
 795 1198 795 1198 823 1198 c 0,111,112
 852 1198 852 1198 870.5 1178.5 c 128,-1,113
 889 1159 889 1159 889 1130 c 2,114,-1
 889 999 l 2,115,116
 889 970 889 970 870.5 953 c 128,-1,117
 852 936 852 936 823 936 c 256,118,119
 794 936 794 936 776 953.5 c 128,-1,120
 758 971 758 971 758 999 c 2,107,-1
1176 825 m 128,-1,122
 1176 852 1176 852 1196 870 c 2,123,-1
 1288 965 l 2,124,125
 1311 988 1311 988 1336 988 c 2,126,127
 1336 988 1336 988 1338 988 c 0,128,129
 1364 988 1364 988 1380 965 c 1,130,131
 1403 947 1403 947 1403 920 c 128,-1,132
 1403 893 1403 893 1380 870 c 2,133,-1
 1288 780 l 2,134,135
 1268 760 1268 760 1242.5 760 c 128,-1,136
 1217 760 1217 760 1196 780 c 0,137,121
 1176 798 1176 798 1176 825 c 128,-1,122
1352 408 m 256,138,139
 1352 437 1352 437 1369 455 c 128,-1,140
 1386 473 1386 473 1415 473 c 2,141,-1
 1548 473 l 2,142,143
 1575 473 1575 473 1594.5 454.5 c 128,-1,144
 1614 436 1614 436 1614 408 c 0,145,146
 1614 379 1614 379 1594.5 360.5 c 128,-1,147
 1575 342 1575 342 1548 342 c 2,148,-1
 1415 342 l 2,149,150
 1386 342 1386 342 1369 360.5 c 128,-1,151
 1352 379 1352 379 1352 408 c 256,138,139
EndSplineSet
Validated: 1
EndChar

StartChar: c
Encoding: 99 99 70
Width: 2007
GlyphClass: 2
Flags: W
LayerCount: 2
Fore
SplineSet
33 482.5 m 128,-1,1
 33 498 33 498 33 514 c 0,2,3
 33 618 33 618 73 709.5 c 128,-1,4
 113 801 113 801 180.5 869.5 c 128,-1,5
 248 938 248 938 339 978 c 128,-1,6
 430 1018 430 1018 535 1018 c 0,7,8
 582 1018 582 1018 627 1008.5 c 128,-1,9
 672 999 672 999 713 985 c 1,10,11
 731 1040 731 1040 767 1086.5 c 128,-1,12
 803 1133 803 1133 849 1166.5 c 128,-1,13
 895 1200 895 1200 951.5 1218.5 c 128,-1,14
 1008 1237 1008 1237 1069 1237 c 0,15,16
 1106 1237 1106 1237 1137 1231 c 1,17,18
 1135 1215 1135 1215 1132.5 1202.5 c 128,-1,19
 1130 1190 1130 1190 1130 1174 c 0,20,21
 1130 1121 1130 1121 1150.5 1075.5 c 128,-1,22
 1171 1030 1171 1030 1205 996.5 c 128,-1,23
 1239 963 1239 963 1285 943.5 c 128,-1,24
 1331 924 1331 924 1384 924 c 0,25,26
 1411 924 1411 924 1440 930 c 1,27,28
 1446 893 1446 893 1446 860 c 0,29,30
 1446 784 1446 784 1419.5 718.5 c 128,-1,31
 1393 653 1393 653 1348 604 c 1,32,33
 1371 569 1371 569 1386 531.5 c 128,-1,34
 1401 494 1401 494 1409 451 c 0,35,36
 1411 435 1411 435 1412 419 c 128,-1,37
 1413 403 1413 403 1413 387 c 0,38,39
 1413 309 1413 309 1383.5 240.5 c 128,-1,40
 1354 172 1354 172 1303.5 121 c 128,-1,41
 1253 70 1253 70 1184.5 40 c 128,-1,42
 1116 10 1116 10 1036 10 c 2,43,-1
 1004 10 l 1,44,-1
 1118 150 l 1,45,46
 1192 175 1192 175 1241 239 c 128,-1,47
 1290 303 1290 303 1290 387 c 0,48,49
 1290 403 1290 403 1288 418.5 c 128,-1,50
 1286 434 1286 434 1282 451 c 0,51,52
 1259 533 1259 533 1192.5 587 c 128,-1,53
 1126 641 1126 641 1036 641 c 0,54,55
 966 641 966 641 901 598 c 1,56,57
 887 661 887 661 853 714.5 c 128,-1,58
 819 768 819 768 770 807 c 128,-1,59
 721 846 721 846 661.5 868.5 c 128,-1,60
 602 891 602 891 535 891 c 0,61,62
 457 891 457 891 388 861 c 128,-1,63
 319 831 319 831 268 780 c 128,-1,64
 217 729 217 729 187.5 660.5 c 128,-1,65
 158 592 158 592 158 514 c 0,66,67
 158 483 158 483 164 451 c 0,68,69
 182 345 182 345 254 263.5 c 128,-1,70
 326 182 326 182 428 152 c 1,71,-1
 385 35 l 1,72,73
 315 55 315 55 256 95 c 128,-1,74
 197 135 197 135 150.5 189.5 c 128,-1,75
 104 244 104 244 74.5 310.5 c 128,-1,76
 45 377 45 377 37 451 c 0,77,0
 33 467 33 467 33 482.5 c 128,-1,1
504 10 m 1,78,-1
 659 451 l 1,79,-1
 975 451 l 1,80,-1
 786 137 l 1,81,-1
 1008 137 l 1,82,-1
 598 -367 l 1,83,-1
 711 10 l 1,84,-1
 504 10 l 1,78,-1
825 924 m 1,85,86
 917 858 917 858 975 758 c 1,87,88
 1002 764 1002 764 1036 764 c 0,89,90
 1099 764 1099 764 1154.5 745.5 c 128,-1,91
 1210 727 1210 727 1257 694 c 1,92,93
 1298 739 1298 739 1315 803 c 1,94,95
 1198 826 1198 826 1117.5 907.5 c 128,-1,96
 1037 989 1037 989 1014 1104 c 1,97,98
 944 1088 944 1088 894 1038.5 c 128,-1,99
 844 989 844 989 825 924 c 1,85,86
EndSplineSet
Validated: 1
EndChar

StartChar: d
Encoding: 100 100 71
Width: 2011
GlyphClass: 2
Flags: W
LayerCount: 2
Fore
SplineSet
33 74 m 256,0,1
 33 101 33 101 51 119 c 128,-1,2
 69 137 69 137 96 137 c 2,3,-1
 1352 137 l 2,4,5
 1379 137 1379 137 1396 118.5 c 128,-1,6
 1413 100 1413 100 1413 74 c 0,7,8
 1413 47 1413 47 1395.5 28.5 c 128,-1,9
 1378 10 1378 10 1352 10 c 2,10,-1
 96 10 l 2,11,12
 69 10 69 10 51 28.5 c 128,-1,13
 33 47 33 47 33 74 c 256,0,1
33 -178 m 0,14,15
 33 -149 33 -149 51 -132 c 128,-1,16
 69 -115 69 -115 96 -115 c 2,17,-1
 1352 -115 l 2,18,19
 1379 -115 1379 -115 1396 -132.5 c 128,-1,20
 1413 -150 1413 -150 1413 -178 c 0,21,22
 1413 -203 1413 -203 1395.5 -221.5 c 128,-1,23
 1378 -240 1378 -240 1352 -240 c 2,24,-1
 96 -240 l 2,25,26
 69 -240 69 -240 51 -221.5 c 128,-1,27
 33 -203 33 -203 33 -178 c 0,14,15
33 326 m 0,28,29
 33 351 33 351 51 369 c 128,-1,30
 69 387 69 387 96 387 c 2,31,-1
 1352 387 l 2,32,33
 1379 387 1379 387 1396 368.5 c 128,-1,34
 1413 350 1413 350 1413 326 c 0,35,36
 1413 299 1413 299 1395.5 280.5 c 128,-1,37
 1378 262 1378 262 1352 262 c 2,38,-1
 96 262 l 2,39,40
 69 262 69 262 51 280.5 c 128,-1,41
 33 299 33 299 33 326 c 0,28,29
33 514 m 1,42,43
 33 618 33 618 73 709.5 c 128,-1,44
 113 801 113 801 181.5 868.5 c 128,-1,45
 250 936 250 936 341 976 c 128,-1,46
 432 1016 432 1016 537 1016 c 0,47,48
 609 1016 609 1016 676 993 c 1,49,50
 729 1061 729 1061 806 1101 c 128,-1,51
 883 1141 883 1141 975 1141 c 0,52,53
 1053 1141 1053 1141 1121.5 1111 c 128,-1,54
 1190 1081 1190 1081 1241 1030 c 128,-1,55
 1292 979 1292 979 1322 910.5 c 128,-1,56
 1352 842 1352 842 1352 764 c 0,57,58
 1352 699 1352 699 1325 629 c 1,59,60
 1370 576 1370 576 1393 514 c 1,61,-1
 1255 514 l 1,62,63
 1220 569 1220 569 1164 604 c 128,-1,64
 1108 639 1108 639 1036 639 c 256,65,66
 964 639 964 639 901 598 c 1,67,68
 887 659 887 659 853 712.5 c 128,-1,69
 819 766 819 766 771 805 c 128,-1,70
 723 844 723 844 663.5 866.5 c 128,-1,71
 604 889 604 889 537 889 c 0,72,73
 459 889 459 889 390.5 859 c 128,-1,74
 322 829 322 829 270.5 779 c 128,-1,75
 219 729 219 729 189.5 660.5 c 128,-1,76
 160 592 160 592 160 514 c 1,77,-1
 33 514 l 1,42,43
426 1252 m 128,-1,79
 426 1278 426 1278 442 1296 c 0,80,81
 460 1314 460 1314 487 1314.5 c 128,-1,82
 514 1315 514 1315 530 1296 c 2,83,-1
 618 1208 l 2,84,85
 638 1190 638 1190 638.5 1163.5 c 128,-1,86
 639 1137 639 1137 618 1120 c 1,87,88
 602 1100 602 1100 575 1100 c 128,-1,89
 548 1100 548 1100 530 1120 c 2,90,-1
 442 1208 l 2,91,78
 426 1226 426 1226 426 1252 c 128,-1,79
799 940 m 1,92,93
 852 905 852 905 897 860 c 128,-1,94
 942 815 942 815 975 758 c 1,95,96
 1002 764 1002 764 1036 764 c 0,97,98
 1087 764 1087 764 1133.5 751.5 c 128,-1,99
 1180 739 1180 739 1221 717 c 1,100,101
 1225 727 1225 727 1225 739.5 c 128,-1,102
 1225 752 1225 752 1225 764 c 0,103,104
 1225 815 1225 815 1205.5 861 c 128,-1,105
 1186 907 1186 907 1152 942 c 128,-1,106
 1118 977 1118 977 1072 996.5 c 128,-1,107
 1026 1016 1026 1016 975 1016 c 0,108,109
 922 1016 922 1016 878 995.5 c 128,-1,110
 834 975 834 975 799 940 c 1,92,93
913 1329 m 2,111,-1
 913 1454 l 2,112,113
 913 1481 913 1481 931.5 1499.5 c 128,-1,114
 950 1518 950 1518 975 1518 c 0,115,116
 1002 1518 1002 1518 1019 1499.5 c 128,-1,117
 1036 1481 1036 1481 1036 1454 c 2,118,-1
 1036 1329 l 2,119,120
 1036 1302 1036 1302 1019 1284 c 128,-1,121
 1002 1266 1002 1266 975 1266 c 0,122,123
 950 1266 950 1266 931.5 1284.5 c 128,-1,124
 913 1303 913 1303 913 1329 c 2,111,-1
1313 1163 m 128,-1,126
 1313 1190 1313 1190 1331 1208 c 2,127,-1
 1419 1296 l 2,128,129
 1435 1314 1435 1314 1462 1314 c 0,130,131
 1463 1314 1463 1314 1463 1315 c 1,132,133
 1489 1315 1489 1315 1507 1296 c 0,134,135
 1527 1278 1527 1278 1527.5 1252.5 c 128,-1,136
 1528 1227 1528 1227 1507 1208 c 2,137,-1
 1419 1120 l 2,138,139
 1401 1100 1401 1100 1374.5 1100 c 128,-1,140
 1348 1100 1348 1100 1331 1120 c 0,141,125
 1313 1136 1313 1136 1313 1163 c 128,-1,126
1479 764 m 256,142,143
 1479 791 1479 791 1496 809 c 128,-1,144
 1513 827 1513 827 1540 827 c 2,145,-1
 1667 827 l 2,146,147
 1692 827 1692 827 1710.5 809 c 128,-1,148
 1729 791 1729 791 1729 764 c 256,149,150
 1729 737 1729 737 1710.5 718.5 c 128,-1,151
 1692 700 1692 700 1667 700 c 2,152,-1
 1540 700 l 2,153,154
 1513 700 1513 700 1496 718.5 c 128,-1,155
 1479 737 1479 737 1479 764 c 256,142,143
EndSplineSet
Validated: 1
EndChar

StartChar: e
Encoding: 101 101 72
Width: 2007
GlyphClass: 2
Flags: W
LayerCount: 2
Fore
SplineSet
33 516 m 0,0,1
 33 620 33 620 73 711.5 c 128,-1,2
 113 803 113 803 180.5 870.5 c 128,-1,3
 248 938 248 938 339 978 c 128,-1,4
 430 1018 430 1018 535 1018 c 0,5,6
 678 1018 678 1018 794.5 947.5 c 128,-1,7
 911 877 911 877 975 762 c 1,8,9
 991 762 991 762 1006.5 764 c 128,-1,10
 1022 766 1022 766 1040 766 c 0,11,12
 1118 766 1118 766 1186.5 736.5 c 128,-1,13
 1255 707 1255 707 1306.5 655.5 c 128,-1,14
 1358 604 1358 604 1387.5 535.5 c 128,-1,15
 1417 467 1417 467 1417 389 c 0,16,17
 1417 328 1417 328 1398.5 271.5 c 128,-1,18
 1380 215 1380 215 1346.5 169 c 128,-1,19
 1313 123 1313 123 1266.5 88 c 128,-1,20
 1220 53 1220 53 1165 35 c 1,21,-1
 1165 172 l 1,22,23
 1222 205 1222 205 1256 262 c 128,-1,24
 1290 319 1290 319 1290 389 c 0,25,26
 1290 440 1290 440 1270.5 486 c 128,-1,27
 1251 532 1251 532 1217.5 567 c 128,-1,28
 1184 602 1184 602 1138 621.5 c 128,-1,29
 1092 641 1092 641 1040 641 c 0,30,31
 1001 641 1001 641 967.5 629.5 c 128,-1,32
 934 618 934 618 903 600 c 1,33,34
 889 661 889 661 855 715.5 c 128,-1,35
 821 770 821 770 772 809 c 128,-1,36
 723 848 723 848 662.5 870.5 c 128,-1,37
 602 893 602 893 535 893 c 0,38,39
 457 893 457 893 388 863.5 c 128,-1,40
 319 834 319 834 268 782.5 c 128,-1,41
 217 731 217 731 187.5 662.5 c 128,-1,42
 158 594 158 594 158 516 c 0,43,44
 158 430 158 430 191.5 358.5 c 128,-1,45
 225 287 225 287 285 233 c 1,46,-1
 285 80 l 1,47,48
 170 146 170 146 101.5 260.5 c 128,-1,49
 33 375 33 375 33 516 c 0,0,1
410 -178 m 0,50,51
 410 -151 410 -151 428 -133 c 128,-1,52
 446 -115 446 -115 473 -115 c 0,53,54
 498 -115 498 -115 516.5 -133.5 c 128,-1,55
 535 -152 535 -152 535 -178 c 0,56,57
 535 -203 535 -203 516.5 -221.5 c 128,-1,58
 498 -240 498 -240 473 -240 c 0,59,60
 446 -240 446 -240 428 -221.5 c 128,-1,61
 410 -203 410 -203 410 -178 c 0,50,51
440 74 m 2,62,-1
 440 326 l 2,63,64
 440 353 440 353 443 371 c 128,-1,65
 446 389 446 389 473 389 c 0,66,67
 498 389 498 389 502 370.5 c 128,-1,68
 506 352 506 352 506 326 c 2,69,-1
 506 74 l 2,70,71
 506 47 506 47 502 28.5 c 128,-1,72
 498 10 498 10 473 10 c 0,73,74
 446 10 446 10 443 28.5 c 128,-1,75
 440 47 440 47 440 74 c 2,62,-1
662 -305 m 0,76,77
 662 -276 662 -276 680 -258 c 128,-1,78
 698 -240 698 -240 725 -240 c 256,79,80
 752 -240 752 -240 770 -258 c 128,-1,81
 788 -276 788 -276 788 -305 c 0,82,83
 788 -330 788 -330 770 -348.5 c 128,-1,84
 752 -367 752 -367 725 -367 c 256,85,86
 698 -367 698 -367 680 -348.5 c 128,-1,87
 662 -330 662 -330 662 -305 c 0,76,77
694 -51 m 2,88,-1
 694 201 l 2,89,90
 694 226 694 226 696 244 c 128,-1,91
 698 262 698 262 725 262 c 256,92,93
 752 262 752 262 754 243.5 c 128,-1,94
 756 225 756 225 756 201 c 2,95,-1
 756 -51 l 2,96,97
 756 -80 756 -80 754 -97.5 c 128,-1,98
 752 -115 752 -115 725 -115 c 256,99,100
 698 -115 698 -115 696 -97.5 c 128,-1,101
 694 -80 694 -80 694 -51 c 2,88,-1
913 -178 m 0,102,103
 913 -151 913 -151 931.5 -133 c 128,-1,104
 950 -115 950 -115 977 -115 c 256,105,106
 1004 -115 1004 -115 1022 -133.5 c 128,-1,107
 1040 -152 1040 -152 1040 -178 c 0,108,109
 1040 -203 1040 -203 1022 -221.5 c 128,-1,110
 1004 -240 1004 -240 977 -240 c 256,111,112
 950 -240 950 -240 931.5 -221.5 c 128,-1,113
 913 -203 913 -203 913 -178 c 0,102,103
944 74 m 2,114,-1
 944 326 l 2,115,116
 944 353 944 353 947 371 c 128,-1,117
 950 389 950 389 977 389 c 256,118,119
 1004 389 1004 389 1006 370.5 c 128,-1,120
 1008 352 1008 352 1008 326 c 2,121,-1
 1008 74 l 2,122,123
 1008 47 1008 47 1006 28.5 c 128,-1,124
 1004 10 1004 10 977 10 c 256,125,126
 950 10 950 10 947 28.5 c 128,-1,127
 944 47 944 47 944 74 c 2,114,-1
EndSplineSet
Validated: 1
EndChar

StartChar: f
Encoding: 102 102 73
Width: 2007
GlyphClass: 2
Flags: W
LayerCount: 2
Fore
SplineSet
33 74 m 256,0,1
 33 101 33 101 51 118 c 128,-1,2
 69 135 69 135 94 135 c 2,3,-1
 1352 135 l 2,4,5
 1377 135 1377 135 1395 117.5 c 128,-1,6
 1413 100 1413 100 1413 74 c 0,7,8
 1413 47 1413 47 1394.5 29.5 c 128,-1,9
 1376 12 1376 12 1352 12 c 2,10,-1
 94 12 l 2,11,12
 69 12 69 12 51 29.5 c 128,-1,13
 33 47 33 47 33 74 c 256,0,1
33 -178 m 0,14,15
 33 -151 33 -151 51 -133 c 128,-1,16
 69 -115 69 -115 94 -115 c 2,17,-1
 1352 -115 l 2,18,19
 1377 -115 1377 -115 1395 -133.5 c 128,-1,20
 1413 -152 1413 -152 1413 -178 c 0,21,22
 1413 -203 1413 -203 1394.5 -221.5 c 128,-1,23
 1376 -240 1376 -240 1352 -240 c 2,24,-1
 94 -240 l 2,25,26
 69 -240 69 -240 51 -221.5 c 128,-1,27
 33 -203 33 -203 33 -178 c 0,14,15
33 326 m 0,28,29
 33 351 33 351 51 369 c 128,-1,30
 69 387 69 387 94 387 c 2,31,-1
 1352 387 l 2,32,33
 1377 387 1377 387 1395 368.5 c 128,-1,34
 1413 350 1413 350 1413 326 c 0,35,36
 1413 299 1413 299 1394.5 280.5 c 128,-1,37
 1376 262 1376 262 1352 262 c 2,38,-1
 94 262 l 2,39,40
 69 262 69 262 51 280.5 c 128,-1,41
 33 299 33 299 33 326 c 0,28,29
33 514 m 1,42,43
 33 618 33 618 73 709.5 c 128,-1,44
 113 801 113 801 180.5 868.5 c 128,-1,45
 248 936 248 936 339 976 c 128,-1,46
 430 1016 430 1016 535 1016 c 0,47,48
 627 1016 627 1016 715 981 c 1,49,50
 733 1036 733 1036 768 1082 c 128,-1,51
 803 1128 803 1128 849 1162 c 128,-1,52
 895 1196 895 1196 950.5 1215.5 c 128,-1,53
 1006 1235 1006 1235 1067 1235 c 0,54,55
 1104 1235 1104 1235 1139 1229 c 1,56,57
 1133 1200 1133 1200 1133 1174 c 0,58,59
 1133 1121 1133 1121 1152 1075.5 c 128,-1,60
 1171 1030 1171 1030 1205 995.5 c 128,-1,61
 1239 961 1239 961 1285 941.5 c 128,-1,62
 1331 922 1331 922 1382 922 c 0,63,64
 1411 922 1411 922 1440 928 c 1,65,66
 1446 893 1446 893 1446 858 c 0,67,68
 1446 784 1446 784 1419.5 718.5 c 128,-1,69
 1393 653 1393 653 1346 604 c 1,70,71
 1373 561 1373 561 1391 514 c 1,72,-1
 1253 514 l 1,73,74
 1220 569 1220 569 1164 604 c 128,-1,75
 1108 639 1108 639 1036 639 c 0,76,77
 960 639 960 639 901 598 c 1,78,79
 887 659 887 659 853 712.5 c 128,-1,80
 819 766 819 766 771 805 c 128,-1,81
 723 844 723 844 662.5 866.5 c 128,-1,82
 602 889 602 889 535 889 c 0,83,84
 457 889 457 889 388 859 c 128,-1,85
 319 829 319 829 268 779 c 128,-1,86
 217 729 217 729 187.5 660.5 c 128,-1,87
 158 592 158 592 158 514 c 1,88,-1
 33 514 l 1,42,43
825 922 m 1,89,90
 917 859 917 859 973 758 c 1,91,92
 989 760 989 760 1004.5 762 c 128,-1,93
 1020 764 1020 764 1036 764 c 0,94,95
 1099 764 1099 764 1153.5 745.5 c 128,-1,96
 1208 727 1208 727 1255 692 c 1,97,98
 1296 737 1296 737 1313 803 c 1,99,100
 1196 826 1196 826 1115.5 906.5 c 128,-1,101
 1035 987 1035 987 1012 1102 c 1,102,103
 944 1086 944 1086 894 1037.5 c 128,-1,104
 844 989 844 989 825 922 c 1,89,90
EndSplineSet
Validated: 1
EndChar

StartChar: g
Encoding: 103 103 74
Width: 2007
GlyphClass: 2
Flags: W
LayerCount: 2
Fore
SplineSet
33 512 m 1,0,-1
 1391 512 l 1,1,2
 1397 496 1397 496 1400 481.5 c 128,-1,3
 1403 467 1403 467 1407 451 c 1,4,-1
 37 451 l 1,5,6
 35 467 35 467 34 481.5 c 128,-1,7
 33 496 33 496 33 512 c 1,0,-1
37 575 m 1,8,9
 39 591 39 591 42 606 c 128,-1,10
 45 621 45 621 49 637 c 1,11,-1
 1317 637 l 1,12,13
 1329 623 1329 623 1340.5 607.5 c 128,-1,14
 1352 592 1352 592 1362 575 c 1,15,-1
 37 575 l 1,8,9
49 387 m 1,16,-1
 1413 387 l 1,17,18
 1413 354 1413 354 1407 324 c 1,19,-1
 70 324 l 1,20,21
 64 340 64 340 58.5 355.5 c 128,-1,22
 53 371 53 371 49 387 c 1,16,-1
70 700 m 1,23,24
 82 731 82 731 100 764 c 1,25,-1
 969 764 l 2,26,27
 971 762 971 762 971 761 c 128,-1,28
 971 760 971 760 973 758 c 0,29,30
 1004 764 1004 764 1036 764 c 0,31,32
 1093 764 1093 764 1145.5 746.5 c 128,-1,33
 1198 729 1198 729 1243 700 c 1,34,-1
 70 700 l 1,23,24
100 262 m 1,35,-1
 1391 262 l 1,36,37
 1385 246 1385 246 1378.5 230.5 c 128,-1,38
 1372 215 1372 215 1362 199 c 1,39,-1
 143 199 l 1,40,41
 116 232 116 232 100 262 c 1,35,-1
143 825 m 1,42,43
 170 860 170 860 205 889 c 1,44,-1
 866 889 l 1,45,46
 882 875 882 875 896.5 859.5 c 128,-1,47
 911 844 911 844 926 825 c 1,48,-1
 143 825 l 1,42,43
205 135 m 1,49,-1
 1317 135 l 1,50,51
 1301 119 1301 119 1283.5 102.5 c 128,-1,52
 1266 86 1266 86 1243 74 c 1,53,-1
 293 74 l 1,54,55
 268 86 268 86 245.5 102.5 c 128,-1,56
 223 119 223 119 205 135 c 1,49,-1
293 952 m 1,57,58
 346 981 346 981 407.5 997.5 c 128,-1,59
 469 1014 469 1014 535 1014 c 256,60,61
 601 1014 601 1014 662 997.5 c 128,-1,62
 723 981 723 981 776 952 c 1,63,-1
 293 952 l 1,57,58
EndSplineSet
Validated: 1
EndChar

StartChar: h
Encoding: 104 104 75
Width: 2007
GlyphClass: 2
Flags: W
LayerCount: 2
Fore
SplineSet
33 512 m 1,0,-1
 1391 512 l 1,1,2
 1397 496 1397 496 1401 480.5 c 128,-1,3
 1405 465 1405 465 1405 449 c 1,4,-1
 37 449 l 1,5,6
 35 465 35 465 34 480.5 c 128,-1,7
 33 496 33 496 33 512 c 1,0,-1
37 575 m 1,8,9
 41 591 41 591 44 607 c 128,-1,10
 47 623 47 623 51 637 c 1,11,-1
 1327 637 l 1,12,13
 1325 633 1325 633 1325 632 c 128,-1,14
 1325 631 1325 631 1323 627 c 1,15,16
 1348 602 1348 602 1360 575 c 1,17,-1
 37 575 l 1,8,9
51 387 m 1,18,-1
 1411 387 l 1,19,20
 1411 354 1411 354 1405 324 c 1,21,-1
 70 324 l 1,22,23
 57 354 57 354 51 387 c 1,18,-1
70 700 m 1,24,25
 76 716 76 716 84 732 c 128,-1,26
 92 748 92 748 102 764 c 1,27,-1
 969 764 l 2,28,29
 971 762 971 762 971 758 c 1,30,31
 987 760 987 760 1003.5 762 c 128,-1,32
 1020 764 1020 764 1036 764 c 0,33,34
 1087 764 1087 764 1132.5 750.5 c 128,-1,35
 1178 737 1178 737 1219 715 c 1,36,37
 1223 725 1223 725 1223 737.5 c 128,-1,38
 1223 750 1223 750 1223 764 c 0,39,40
 1223 815 1223 815 1203.5 860 c 128,-1,41
 1184 905 1184 905 1150 939 c 128,-1,42
 1116 973 1116 973 1070 992.5 c 128,-1,43
 1024 1012 1024 1012 973 1012 c 0,44,45
 926 1012 926 1012 884 996.5 c 128,-1,46
 842 981 842 981 809 952 c 1,47,-1
 293 952 l 1,48,49
 402 1011 402 1011 535 1012 c 0,50,51
 572 1012 572 1012 607.5 1008 c 128,-1,52
 643 1004 643 1004 678 993 c 1,53,54
 729 1059 729 1059 805 1099 c 128,-1,55
 881 1139 881 1139 973 1139 c 0,56,57
 1051 1139 1051 1139 1119.5 1109 c 128,-1,58
 1188 1079 1188 1079 1239 1029 c 128,-1,59
 1290 979 1290 979 1320 910.5 c 128,-1,60
 1350 842 1350 842 1350 764 c 0,61,62
 1349 731 1349 731 1343 700 c 1,63,-1
 70 700 l 1,24,25
102 262 m 1,64,-1
 1391 262 l 1,65,66
 1379 231 1379 231 1360 199 c 1,67,-1
 143 199 l 1,68,69
 131 215 131 215 120.5 230.5 c 128,-1,70
 110 246 110 246 102 262 c 1,64,-1
143 825 m 1,71,72
 157 841 157 841 172 857 c 128,-1,73
 187 873 187 873 203 889 c 1,74,-1
 864 889 l 1,75,76
 880 873 880 873 895.5 857.5 c 128,-1,77
 911 842 911 842 924 825 c 1,78,-1
 143 825 l 1,71,72
203 137 m 1,79,-1
 1315 137 l 1,80,81
 1299 119 1299 119 1281.5 103.5 c 128,-1,82
 1264 88 1264 88 1243 74 c 1,83,-1
 293 74 l 1,84,85
 246 100 246 100 203 137 c 1,79,-1
424 1250 m 128,-1,87
 424 1276 424 1276 442 1296 c 0,88,89
 458 1312 458 1312 485 1312.5 c 128,-1,90
 512 1313 512 1313 530 1296 c 2,91,-1
 618 1204 l 2,92,93
 636 1188 636 1188 636.5 1162.5 c 128,-1,94
 637 1137 637 1137 618 1116 c 0,95,96
 600 1100 600 1100 574 1100 c 128,-1,97
 548 1100 548 1100 530 1116 c 2,98,-1
 442 1204 l 2,99,86
 424 1224 424 1224 424 1250 c 128,-1,87
911 1327 m 2,100,-1
 911 1452 l 2,101,102
 911 1479 911 1479 928.5 1497.5 c 128,-1,103
 946 1516 946 1516 973 1516 c 256,104,105
 1000 1516 1000 1516 1018 1497.5 c 128,-1,106
 1036 1479 1036 1479 1036 1452 c 2,107,-1
 1036 1327 l 2,108,109
 1036 1300 1036 1300 1018 1282 c 128,-1,110
 1000 1264 1000 1264 973 1264 c 256,111,112
 946 1264 946 1264 928.5 1282 c 128,-1,113
 911 1300 911 1300 911 1327 c 2,100,-1
1311 1162 m 128,-1,115
 1311 1188 1311 1188 1327 1204 c 2,116,-1
 1415 1296 l 2,117,118
 1435 1312 1435 1312 1461 1312 c 0,119,120
 1462 1312 1462 1312 1462 1313 c 1,121,122
 1487 1313 1487 1313 1505 1296 c 0,123,124
 1523 1276 1523 1276 1523.5 1250.5 c 128,-1,125
 1524 1225 1524 1225 1505 1204 c 2,126,-1
 1415 1116 l 2,127,128
 1399 1100 1399 1100 1373.5 1100 c 128,-1,129
 1348 1100 1348 1100 1327 1116 c 1,130,114
 1311 1136 1311 1136 1311 1162 c 128,-1,115
1475 764 m 0,131,132
 1475 789 1475 789 1492 807 c 128,-1,133
 1509 825 1509 825 1538 825 c 2,134,-1
 1663 825 l 2,135,136
 1688 825 1688 825 1707 806.5 c 128,-1,137
 1726 788 1726 788 1726 764 c 0,138,139
 1726 735 1726 735 1707 717.5 c 128,-1,140
 1688 700 1688 700 1663 700 c 2,141,-1
 1538 700 l 2,142,143
 1509 700 1509 700 1492 717.5 c 128,-1,144
 1475 735 1475 735 1475 764 c 0,131,132
EndSplineSet
Validated: 1
EndChar

StartChar: i
Encoding: 105 105 76
Width: 2007
GlyphClass: 2
Flags: W
LayerCount: 2
Fore
SplineSet
33 514 m 0,0,1
 33 618 33 618 73 710.5 c 128,-1,2
 113 803 113 803 181.5 870.5 c 128,-1,3
 250 938 250 938 341 978 c 128,-1,4
 432 1018 432 1018 537 1018 c 0,5,6
 584 1018 584 1018 628 1008.5 c 128,-1,7
 672 999 672 999 713 983 c 1,8,9
 754 1094 754 1094 849 1164.5 c 128,-1,10
 944 1235 944 1235 1067 1235 c 0,11,12
 1085 1235 1085 1235 1102.5 1234 c 128,-1,13
 1120 1233 1120 1233 1137 1231 c 1,14,15
 1135 1217 1135 1217 1132.5 1203.5 c 128,-1,16
 1130 1190 1130 1190 1130 1174 c 0,17,18
 1130 1123 1130 1123 1150.5 1076.5 c 128,-1,19
 1171 1030 1171 1030 1205 996.5 c 128,-1,20
 1239 963 1239 963 1285 942.5 c 128,-1,21
 1331 922 1331 922 1382 922 c 0,22,23
 1396 922 1396 922 1410.5 924 c 128,-1,24
 1425 926 1425 926 1438 930 c 1,25,26
 1444 895 1444 895 1444 858 c 0,27,28
 1444 786 1444 786 1418.5 720.5 c 128,-1,29
 1393 655 1393 655 1346 606 c 1,30,31
 1377 559 1377 559 1395 504 c 128,-1,32
 1413 449 1413 449 1413 389 c 0,33,34
 1413 266 1413 266 1343.5 171 c 128,-1,35
 1274 76 1274 76 1163 35 c 1,36,-1
 1163 172 l 1,37,38
 1218 207 1218 207 1252 263 c 128,-1,39
 1286 319 1286 319 1286 389 c 0,40,41
 1286 440 1286 440 1266.5 486 c 128,-1,42
 1247 532 1247 532 1213.5 566 c 128,-1,43
 1180 600 1180 600 1133.5 620.5 c 128,-1,44
 1087 641 1087 641 1036 641 c 0,45,46
 999 641 999 641 964.5 629.5 c 128,-1,47
 930 618 930 618 901 600 c 1,48,49
 887 661 887 661 853 714.5 c 128,-1,50
 819 768 819 768 771 807 c 128,-1,51
 723 846 723 846 662.5 868.5 c 128,-1,52
 602 891 602 891 537 891 c 0,53,54
 459 891 459 891 390.5 861 c 128,-1,55
 322 831 322 831 270.5 780 c 128,-1,56
 219 729 219 729 189.5 660.5 c 128,-1,57
 160 592 160 592 160 514 c 0,58,59
 160 481 160 481 165 450.5 c 128,-1,60
 170 420 170 420 180 389 c 0,61,62
 211 299 211 299 285 236 c 1,63,-1
 285 82 l 1,64,65
 199 131 199 131 136.5 211 c 128,-1,66
 74 291 74 291 51 389 c 0,67,68
 43 420 43 420 38 450.5 c 128,-1,69
 33 481 33 481 33 514 c 0,0,1
63 -268 m 256,70,71
 63 -241 63 -241 82.5 -223 c 128,-1,72
 102 -205 102 -205 127 -205 c 0,73,74
 154 -205 154 -205 172 -223.5 c 128,-1,75
 190 -242 190 -242 190 -268 c 0,76,77
 190 -295 190 -295 172 -313.5 c 128,-1,78
 154 -332 154 -332 127 -332 c 0,79,80
 102 -332 102 -332 82.5 -313.5 c 128,-1,81
 63 -295 63 -295 63 -268 c 256,70,71
315 -238 m 1,82,83
 387 -238 387 -238 440 -287 c 1,84,-1
 440 328 l 2,85,86
 440 353 440 353 443 371 c 128,-1,87
 446 389 446 389 473 389 c 256,88,89
 500 389 500 389 502 370.5 c 128,-1,90
 504 352 504 352 504 328 c 2,91,-1
 504 -426 l 1,92,-1
 440 -426 l 1,93,94
 440 -373 440 -373 404.5 -336 c 128,-1,95
 369 -299 369 -299 315 -299 c 1,96,-1
 315 -238 l 1,82,83
659 -299 m 0,97,98
 659 -274 659 -274 677.5 -256 c 128,-1,99
 696 -238 696 -238 723 -238 c 256,100,101
 750 -238 750 -238 768 -256 c 128,-1,102
 786 -274 786 -274 786 -299 c 0,103,104
 786 -326 786 -326 768 -344 c 128,-1,105
 750 -362 750 -362 723 -362 c 256,106,107
 696 -362 696 -362 677.5 -344 c 128,-1,108
 659 -326 659 -326 659 -299 c 0,97,98
692 -49 m 2,109,-1
 692 201 l 2,110,111
 692 230 692 230 694 247 c 128,-1,112
 696 264 696 264 723 264 c 256,113,114
 750 264 750 264 752 246.5 c 128,-1,115
 754 229 754 229 754 201 c 2,116,-1
 754 -49 l 2,117,118
 754 -76 754 -76 752 -94.5 c 128,-1,119
 750 -113 750 -113 723 -113 c 256,120,121
 696 -113 696 -113 694 -94.5 c 128,-1,122
 692 -76 692 -76 692 -49 c 2,109,-1
825 922 m 1,123,124
 915 863 915 863 973 760 c 1,125,126
 1004 766 1004 766 1036 766 c 0,127,128
 1159 766 1159 766 1257 696 c 1,129,130
 1296 739 1296 739 1313 803 c 1,131,132
 1198 826 1198 826 1116.5 906.5 c 128,-1,133
 1035 987 1035 987 1012 1104 c 1,134,135
 942 1088 942 1088 893 1038.5 c 128,-1,136
 844 989 844 989 825 922 c 1,123,124
942 328 m 2,137,138
 942 353 942 353 944 371 c 128,-1,139
 946 389 946 389 973 389 c 0,140,141
 1002 389 1002 389 1004 370.5 c 128,-1,142
 1006 352 1006 352 1006 328 c 2,143,-1
 1006 -238 l 1,144,145
 1049 -179 1049 -179 1114.5 -146 c 128,-1,146
 1180 -113 1180 -113 1257 -113 c 1,147,-1
 1257 -174 l 1,148,149
 1204 -174 1204 -174 1159 -193.5 c 128,-1,150
 1114 -213 1114 -213 1079 -248 c 128,-1,151
 1044 -283 1044 -283 1025 -329 c 128,-1,152
 1006 -375 1006 -375 1006 -426 c 1,153,-1
 942 -426 l 1,154,155
 942 -418 942 -418 943 -412 c 128,-1,156
 944 -406 944 -406 944 -399 c 0,157,158
 942 -389 942 -389 942 -362 c 2,159,-1
 942 328 l 2,137,138
1382 -113 m 0,160,161
 1382 -84 1382 -84 1400.5 -66.5 c 128,-1,162
 1419 -49 1419 -49 1444 -49 c 0,163,164
 1471 -49 1471 -49 1489 -66.5 c 128,-1,165
 1507 -84 1507 -84 1507 -113 c 0,166,167
 1507 -140 1507 -140 1489 -157 c 128,-1,168
 1471 -174 1471 -174 1444 -174 c 0,169,170
 1419 -174 1419 -174 1400.5 -156.5 c 128,-1,171
 1382 -139 1382 -139 1382 -113 c 0,160,161
EndSplineSet
Validated: 1
EndChar

StartChar: j
Encoding: 106 106 77
Width: 2007
GlyphClass: 2
Flags: W
LayerCount: 2
Fore
SplineSet
33 512 m 1,0,-1
 1391 512 l 1,1,2
 1403 483 1403 483 1409 451 c 1,3,-1
 37 451 l 1,4,5
 35 467 35 467 34 481.5 c 128,-1,6
 33 496 33 496 33 512 c 1,0,-1
37 575 m 1,7,8
 39 608 39 608 49 639 c 1,9,-1
 1374 639 l 1,10,11
 1366 629 1366 629 1359 620.5 c 128,-1,12
 1352 612 1352 612 1346 604 c 1,13,14
 1350 598 1350 598 1354 591 c 128,-1,15
 1358 584 1358 584 1362 575 c 1,16,-1
 37 575 l 1,7,8
49 387 m 1,17,-1
 1413 387 l 1,18,19
 1413 356 1413 356 1407 326 c 1,20,-1
 70 326 l 1,21,22
 64 342 64 342 58.5 356.5 c 128,-1,23
 53 371 53 371 49 387 c 1,17,-1
70 702 m 1,24,25
 82 735 82 735 100 764 c 1,26,-1
 969 764 l 2,27,28
 969 766 969 766 973 758 c 1,29,30
 1004 764 1004 764 1036 764 c 0,31,32
 1093 764 1093 764 1145.5 747.5 c 128,-1,33
 1198 731 1198 731 1243 702 c 1,34,-1
 70 702 l 1,24,25
100 262 m 1,35,-1
 1391 262 l 1,36,37
 1385 246 1385 246 1378.5 230.5 c 128,-1,38
 1372 215 1372 215 1362 199 c 1,39,-1
 143 199 l 1,40,41
 131 215 131 215 121 230.5 c 128,-1,42
 111 246 111 246 100 262 c 1,35,-1
143 827 m 1,43,44
 157 843 157 843 172 859 c 128,-1,45
 187 875 187 875 203 889 c 1,46,-1
 866 889 l 1,47,48
 901 858 901 858 926 827 c 1,49,-1
 143 827 l 1,43,44
203 137 m 1,50,-1
 1317 137 l 1,51,52
 1301 119 1301 119 1283.5 103.5 c 128,-1,53
 1266 88 1266 88 1245 74 c 1,54,-1
 293 74 l 1,55,56
 268 88 268 88 245.5 103.5 c 128,-1,57
 223 119 223 119 203 137 c 1,50,-1
293 954 m 1,58,59
 346 983 346 983 407.5 999.5 c 128,-1,60
 469 1016 469 1016 535 1016 c 0,61,62
 625 1016 625 1016 713 983 c 1,63,64
 731 1038 731 1038 767 1084 c 128,-1,65
 803 1130 803 1130 849 1164 c 128,-1,66
 895 1198 895 1198 951.5 1216.5 c 128,-1,67
 1008 1235 1008 1235 1069 1235 c 0,68,69
 1102 1235 1102 1235 1137 1229 c 1,70,71
 1131 1200 1131 1200 1130 1174 c 0,72,73
 1130 1121 1130 1121 1149.5 1075.5 c 128,-1,74
 1169 1030 1169 1030 1204 995.5 c 128,-1,75
 1239 961 1239 961 1284 941.5 c 128,-1,76
 1329 922 1329 922 1382 922 c 0,77,78
 1409 922 1409 922 1440 928 c 1,79,80
 1442 912 1442 912 1444 894.5 c 128,-1,81
 1446 877 1446 877 1446 860 c 0,82,83
 1446 776 1446 776 1411 702 c 1,84,-1
 1264 702 l 1,85,86
 1301 749 1301 749 1313 803 c 1,87,88
 1198 826 1198 826 1116 906.5 c 128,-1,89
 1034 987 1034 987 1012 1104 c 1,90,91
 953 1090 953 1090 905.5 1050 c 128,-1,92
 858 1010 858 1010 836 954 c 1,93,-1
 293 954 l 1,58,59
EndSplineSet
Validated: 1
EndChar

StartChar: k
Encoding: 107 107 78
Width: 1710
GlyphClass: 2
Flags: W
LayerCount: 2
Fore
SplineSet
33 449 m 0,0,1
 33 486 33 486 46 519.5 c 128,-1,2
 59 553 59 553 84 578.5 c 128,-1,3
 109 604 109 604 140.5 619.5 c 128,-1,4
 172 635 172 635 209 637 c 0,5,6
 213 637 213 637 215 638 c 128,-1,7
 217 639 217 639 221 639 c 2,8,-1
 631 639 l 1,9,-1
 852 639 l 1,10,-1
 915 639 l 2,11,12
 940 639 940 639 958.5 657.5 c 128,-1,13
 977 676 977 676 977 700 c 0,14,15
 977 729 977 729 958.5 746.5 c 128,-1,16
 940 764 940 764 915 764 c 0,17,18
 886 764 886 764 869 782.5 c 128,-1,19
 852 801 852 801 852 827 c 0,20,21
 852 854 852 854 869.5 872.5 c 128,-1,22
 887 891 887 891 915 891 c 0,23,24
 923 891 923 891 928 889 c 0,25,26
 965 887 965 887 996.5 871.5 c 128,-1,27
 1028 856 1028 856 1052.5 830.5 c 128,-1,28
 1077 805 1077 805 1090.5 771 c 128,-1,29
 1104 737 1104 737 1104 700 c 0,30,31
 1104 622 1104 622 1048.5 567 c 128,-1,32
 993 512 993 512 915 512 c 2,33,-1
 852 512 l 1,34,-1
 631 512 l 1,35,-1
 221 512 l 2,36,37
 194 512 194 512 176 494.5 c 128,-1,38
 158 477 158 477 158 449 c 0,39,40
 158 424 158 424 176.5 405.5 c 128,-1,41
 195 387 195 387 221 387 c 2,42,-1
 285 387 l 1,43,-1
 410 387 l 1,44,-1
 504 387 l 1,45,-1
 631 387 l 1,46,-1
 725 387 l 1,47,-1
 852 387 l 1,48,-1
 915 387 l 2,49,50
 954 387 954 387 988 371.5 c 128,-1,51
 1022 356 1022 356 1047.5 330.5 c 128,-1,52
 1073 305 1073 305 1088.5 270.5 c 128,-1,53
 1104 236 1104 236 1104 197 c 0,54,55
 1104 121 1104 121 1052.5 67.5 c 128,-1,56
 1001 14 1001 14 928 10 c 0,57,58
 924 10 924 10 921 9 c 128,-1,59
 918 8 918 8 915 8 c 0,60,61
 886 8 886 8 869 26.5 c 128,-1,62
 852 45 852 45 852 72 c 256,63,64
 852 99 852 99 869.5 117 c 128,-1,65
 887 135 887 135 915 135 c 0,66,67
 940 135 940 135 958.5 153.5 c 128,-1,68
 977 172 977 172 977 197 c 0,69,70
 977 224 977 224 958.5 242 c 128,-1,71
 940 260 940 260 915 260 c 2,72,-1
 852 260 l 1,73,-1
 725 260 l 1,74,-1
 631 260 l 1,75,-1
 504 260 l 1,76,-1
 410 260 l 1,77,-1
 285 260 l 1,78,-1
 221 260 l 2,79,80
 182 260 182 260 147.5 275.5 c 128,-1,81
 113 291 113 291 87 316.5 c 128,-1,82
 61 342 61 342 47 376 c 128,-1,83
 33 410 33 410 33 449 c 0,0,1
1071 449 m 0,84,85
 1071 478 1071 478 1089.5 495 c 128,-1,86
 1108 512 1108 512 1135 512 c 2,87,-1
 1229 512 l 2,88,89
 1256 512 1256 512 1274 530.5 c 128,-1,90
 1292 549 1292 549 1292 575 c 0,91,92
 1292 602 1292 602 1273.5 620.5 c 128,-1,93
 1255 639 1255 639 1229 639 c 0,94,95
 1202 639 1202 639 1183.5 657.5 c 128,-1,96
 1165 676 1165 676 1165 700 c 0,97,98
 1165 729 1165 729 1183.5 746.5 c 128,-1,99
 1202 764 1202 764 1229 764 c 2,100,-1
 1243 764 l 1,101,102
 1315 758 1315 758 1366 704.5 c 128,-1,103
 1417 651 1417 651 1417 575 c 0,104,105
 1417 536 1417 536 1403 501.5 c 128,-1,106
 1389 467 1389 467 1363 441.5 c 128,-1,107
 1337 416 1337 416 1302.5 401.5 c 128,-1,108
 1268 387 1268 387 1229 387 c 2,109,-1
 1135 387 l 2,110,111
 1108 387 1108 387 1089.5 405.5 c 128,-1,112
 1071 424 1071 424 1071 449 c 0,84,85
EndSplineSet
Validated: 1
EndChar

StartChar: l
Encoding: 108 108 79
Width: 2007
GlyphClass: 2
Flags: W
LayerCount: 2
Fore
SplineSet
33 514 m 0,0,1
 33 618 33 618 73 709.5 c 128,-1,2
 113 801 113 801 180.5 869.5 c 128,-1,3
 248 938 248 938 339 977 c 128,-1,4
 430 1016 430 1016 535 1016 c 0,5,6
 678 1016 678 1016 793.5 944 c 128,-1,7
 909 872 909 872 973 760 c 1,8,9
 989 762 989 762 1005.5 763 c 128,-1,10
 1022 764 1022 764 1038 764 c 0,11,12
 1108 764 1108 764 1170.5 740.5 c 128,-1,13
 1233 717 1233 717 1282 676 c 128,-1,14
 1331 635 1331 635 1364 578.5 c 128,-1,15
 1397 522 1397 522 1409 457 c 1,16,17
 1337 502 1337 502 1257 514 c 1,18,19
 1224 571 1224 571 1166 606 c 128,-1,20
 1108 641 1108 641 1038 641 c 0,21,22
 1001 641 1001 641 966.5 629.5 c 128,-1,23
 932 618 932 618 903 600 c 1,24,25
 887 661 887 661 853 714.5 c 128,-1,26
 819 768 819 768 770 807 c 128,-1,27
 721 846 721 846 661.5 868.5 c 128,-1,28
 602 891 602 891 535 891 c 0,29,30
 457 891 457 891 389.5 861 c 128,-1,31
 322 831 322 831 270.5 780 c 128,-1,32
 219 729 219 729 189.5 660.5 c 128,-1,33
 160 592 160 592 160 514 c 256,34,35
 160 436 160 436 189.5 367.5 c 128,-1,36
 219 299 219 299 270.5 248 c 128,-1,37
 322 197 322 197 389.5 167 c 128,-1,38
 457 137 457 137 535 137 c 2,39,-1
 918 137 l 1,40,-1
 1227 137 l 2,41,42
 1254 137 1254 137 1272 155.5 c 128,-1,43
 1290 174 1290 174 1290 201 c 256,44,45
 1290 228 1290 228 1272 245 c 128,-1,46
 1254 262 1254 262 1227 262 c 256,47,48
 1200 262 1200 262 1181.5 281.5 c 128,-1,49
 1163 301 1163 301 1163 326 c 0,50,51
 1163 353 1163 353 1181.5 371 c 128,-1,52
 1200 389 1200 389 1227 389 c 0,53,54
 1235 389 1235 389 1239 385 c 0,55,56
 1313 381 1313 381 1364 328.5 c 128,-1,57
 1415 276 1415 276 1415 201 c 0,58,59
 1415 127 1415 127 1369 75 c 128,-1,60
 1323 23 1323 23 1251 12 c 1,61,-1
 1227 12 l 1,62,-1
 977 12 l 1,63,-1
 535 12 l 2,64,65
 508 12 508 12 491.5 -6.5 c 128,-1,66
 475 -25 475 -25 475 -51 c 0,67,68
 475 -78 475 -78 491.5 -95.5 c 128,-1,69
 508 -113 508 -113 535 -113 c 2,70,-1
 1227 -113 l 1,71,-1
 1251 -113 l 1,72,-1
 1251 -115 l 1,73,74
 1323 -123 1323 -123 1369 -177 c 128,-1,75
 1415 -231 1415 -231 1415 -303 c 0,76,77
 1415 -340 1415 -340 1402 -373 c 128,-1,78
 1389 -406 1389 -406 1364 -431.5 c 128,-1,79
 1339 -457 1339 -457 1307.5 -472 c 128,-1,80
 1276 -487 1276 -487 1239 -489 c 2,81,-1
 1227 -489 l 2,82,83
 1200 -489 1200 -489 1181.5 -472 c 128,-1,84
 1163 -455 1163 -455 1163 -426 c 0,85,86
 1163 -401 1163 -401 1181.5 -383 c 128,-1,87
 1200 -365 1200 -365 1227 -365 c 256,88,89
 1254 -365 1254 -365 1272 -346.5 c 128,-1,90
 1290 -328 1290 -328 1290 -303 c 0,91,92
 1290 -276 1290 -276 1271.5 -258 c 128,-1,93
 1253 -240 1253 -240 1227 -240 c 2,94,-1
 535 -240 l 1,95,-1
 512 -240 l 1,96,-1
 512 -236 l 1,97,98
 444 -228 444 -228 396 -175.5 c 128,-1,99
 348 -123 348 -123 348 -51 c 0,100,101
 348 -2 348 -2 371 39 c 1,102,103
 297 66 297 66 234.5 112 c 128,-1,104
 172 158 172 158 128 219.5 c 128,-1,105
 84 281 84 281 58.5 355.5 c 128,-1,106
 33 430 33 430 33 514 c 0,0,1
1384 -51 m 256,107,108
 1384 -24 1384 -24 1400.5 -6 c 128,-1,109
 1417 12 1417 12 1446 12 c 2,110,-1
 1540 12 l 2,111,112
 1567 12 1567 12 1585.5 29.5 c 128,-1,113
 1604 47 1604 47 1604 76 c 0,114,115
 1604 103 1604 103 1585.5 120 c 128,-1,116
 1567 137 1567 137 1540 137 c 256,117,118
 1513 137 1513 137 1496 155.5 c 128,-1,119
 1479 174 1479 174 1479 201 c 256,120,121
 1479 228 1479 228 1496 245 c 128,-1,122
 1513 262 1513 262 1540 262 c 0,123,124
 1548 262 1548 262 1552 260 c 0,125,126
 1626 256 1626 256 1677.5 204 c 128,-1,127
 1729 152 1729 152 1729 76 c 0,128,129
 1729 2 1729 2 1683 -50.5 c 128,-1,130
 1637 -103 1637 -103 1565 -113 c 1,131,-1
 1540 -113 l 1,132,-1
 1446 -113 l 2,133,134
 1417 -113 1417 -113 1400.5 -95.5 c 128,-1,135
 1384 -78 1384 -78 1384 -51 c 256,107,108
EndSplineSet
Validated: 1
EndChar

StartChar: m
Encoding: 109 109 80
Width: 1855
GlyphClass: 2
Flags: W
LayerCount: 2
Fore
SplineSet
33 399 m 0,0,1
 33 426 33 426 51.5 444.5 c 128,-1,2
 70 463 70 463 96 463 c 2,3,-1
 225 463 l 2,4,5
 254 463 254 463 272.5 444.5 c 128,-1,6
 291 426 291 426 291 399 c 0,7,8
 291 370 291 370 272.5 352 c 128,-1,9
 254 334 254 334 225 334 c 2,10,-1
 96 334 l 2,11,12
 69 334 69 334 51 352.5 c 128,-1,13
 33 371 33 371 33 399 c 0,0,1
240 897 m 128,-1,15
 240 924 240 924 260 944 c 0,16,17
 278 962 278 962 304 962.5 c 128,-1,18
 330 963 330 963 350 944 c 2,19,-1
 440 852 l 2,20,21
 458 834 458 834 458.5 807 c 128,-1,22
 459 780 459 780 440 762 c 0,23,24
 422 744 422 744 395 744 c 128,-1,25
 368 744 368 744 350 762 c 2,26,-1
 260 852 l 2,27,14
 240 870 240 870 240 897 c 128,-1,15
418 76 m 0,28,29
 418 105 418 105 437 123 c 128,-1,30
 456 141 456 141 483 141 c 2,31,-1
 1124 141 l 2,32,33
 1153 141 1153 141 1171.5 122.5 c 128,-1,34
 1190 104 1190 104 1190 76 c 0,35,36
 1190 49 1190 49 1171.5 30.5 c 128,-1,37
 1153 12 1153 12 1124 12 c 2,38,-1
 483 12 l 2,39,40
 456 12 456 12 437 30.5 c 128,-1,41
 418 49 418 49 418 76 c 0,28,29
418 399 m 0,42,43
 418 479 418 479 448.5 548.5 c 128,-1,44
 479 618 479 618 531.5 670.5 c 128,-1,45
 584 723 584 723 654.5 753.5 c 128,-1,46
 725 784 725 784 805 784 c 256,47,48
 885 784 885 784 954.5 753.5 c 128,-1,49
 1024 723 1024 723 1076 670.5 c 128,-1,50
 1128 618 1128 618 1159 548.5 c 128,-1,51
 1190 479 1190 479 1190 399 c 0,52,53
 1190 331 1190 331 1167 270 c 1,54,-1
 1026 270 l 1,55,56
 1061 327 1061 327 1061 399 c 0,57,58
 1061 452 1061 452 1040.5 498.5 c 128,-1,59
 1020 545 1020 545 985 579.5 c 128,-1,60
 950 614 950 614 903 634.5 c 128,-1,61
 856 655 856 655 805 655 c 0,62,63
 752 655 752 655 704.5 634.5 c 128,-1,64
 657 614 657 614 622.5 579.5 c 128,-1,65
 588 545 588 545 567.5 499 c 128,-1,66
 547 453 547 453 547 399 c 0,67,68
 547 362 547 362 556 330.5 c 128,-1,69
 565 299 565 299 582 270 c 1,70,-1
 442 270 l 1,71,72
 432 299 432 299 425 332 c 128,-1,73
 418 365 418 365 418 399 c 0,42,43
739 977 m 2,74,-1
 739 1104 l 2,75,76
 739 1133 739 1133 757.5 1151 c 128,-1,77
 776 1169 776 1169 805 1169 c 0,78,79
 832 1169 832 1169 850 1151 c 128,-1,80
 868 1133 868 1133 868 1104 c 2,81,-1
 868 977 l 2,82,83
 868 948 868 948 850 929.5 c 128,-1,84
 832 911 832 911 805 911 c 0,85,86
 776 911 776 911 757.5 929.5 c 128,-1,87
 739 948 739 948 739 977 c 2,74,-1
1149 807 m 128,-1,89
 1149 834 1149 834 1167 852 c 2,90,-1
 1257 944 l 2,91,92
 1277 962 1277 962 1304 962 c 0,93,94
 1305 962 1305 962 1305 963 c 1,95,96
 1331 963 1331 963 1350 944 c 0,97,98
 1366 924 1366 924 1366 897 c 128,-1,99
 1366 870 1366 870 1350 852 c 2,100,-1
 1257 762 l 2,101,102
 1237 744 1237 744 1211.5 743.5 c 128,-1,103
 1186 743 1186 743 1167 762 c 0,104,88
 1149 780 1149 780 1149 807 c 128,-1,89
1319 399 m 0,105,106
 1319 426 1319 426 1336.5 444.5 c 128,-1,107
 1354 463 1354 463 1380 463 c 2,108,-1
 1511 463 l 2,109,110
 1536 463 1536 463 1555.5 444.5 c 128,-1,111
 1575 426 1575 426 1575 399 c 0,112,113
 1575 370 1575 370 1555.5 352 c 128,-1,114
 1536 334 1536 334 1511 334 c 2,115,-1
 1380 334 l 2,116,117
 1353 334 1353 334 1336 352.5 c 128,-1,118
 1319 371 1319 371 1319 399 c 0,105,106
EndSplineSet
Validated: 1
EndChar

StartChar: n
Encoding: 110 110 81
Width: 1857
GlyphClass: 2
Flags: W
LayerCount: 2
Fore
SplineSet
33 403 m 0,0,1
 33 430 33 430 51.5 448.5 c 128,-1,2
 70 467 70 467 98 467 c 2,3,-1
 229 467 l 2,4,5
 256 467 256 467 274.5 448.5 c 128,-1,6
 293 430 293 430 293 403 c 0,7,8
 293 374 293 374 274.5 356 c 128,-1,9
 256 338 256 338 229 338 c 2,10,-1
 98 338 l 2,11,12
 69 338 69 338 51 356.5 c 128,-1,13
 33 375 33 375 33 403 c 0,0,1
244 907 m 128,-1,15
 244 934 244 934 262 954 c 1,16,17
 282 970 282 970 308 970.5 c 128,-1,18
 334 971 334 971 354 954 c 2,19,-1
 444 860 l 2,20,21
 462 842 462 842 462.5 815 c 128,-1,22
 463 788 463 788 444 770 c 0,23,24
 426 752 426 752 399.5 752 c 128,-1,25
 373 752 373 752 354 770 c 2,26,-1
 262 860 l 2,27,14
 244 880 244 880 244 907 c 128,-1,15
422 78 m 0,28,29
 422 105 422 105 441.5 123 c 128,-1,30
 461 141 461 141 487 141 c 2,31,-1
 1137 141 l 2,32,33
 1166 141 1166 141 1184 122.5 c 128,-1,34
 1202 104 1202 104 1202 78 c 0,35,36
 1202 49 1202 49 1183.5 30.5 c 128,-1,37
 1165 12 1165 12 1137 12 c 2,38,-1
 487 12 l 2,39,40
 460 12 460 12 441 30.5 c 128,-1,41
 422 49 422 49 422 78 c 0,28,29
422 403 m 0,42,43
 422 483 422 483 452.5 555 c 128,-1,44
 483 627 483 627 536.5 679 c 128,-1,45
 590 731 590 731 660.5 762 c 128,-1,46
 731 793 731 793 813 793 c 0,47,48
 893 793 893 793 964.5 762 c 128,-1,49
 1036 731 1036 731 1088.5 679 c 128,-1,50
 1141 627 1141 627 1171.5 555 c 128,-1,51
 1202 483 1202 483 1202 403 c 0,52,53
 1202 335 1202 335 1180 272 c 1,54,-1
 1038 272 l 1,55,56
 1073 331 1073 331 1073 403 c 0,57,58
 1073 456 1073 456 1052.5 503.5 c 128,-1,59
 1032 551 1032 551 996.5 587 c 128,-1,60
 961 623 961 623 913.5 643.5 c 128,-1,61
 866 664 866 664 813 664 c 256,62,63
 760 664 760 664 712 643.5 c 128,-1,64
 664 623 664 623 628 587 c 128,-1,65
 592 551 592 551 571.5 504 c 128,-1,66
 551 457 551 457 551 403 c 0,67,68
 551 366 551 366 560 333.5 c 128,-1,69
 569 301 569 301 586 272 c 1,70,-1
 446 272 l 1,71,72
 436 303 436 303 429 336 c 128,-1,73
 422 369 422 369 422 403 c 0,42,43
641 362.5 m 128,-1,75
 641 375 641 375 651 385 c 2,76,-1
 788 522 l 2,77,78
 798 532 798 532 811.5 532 c 128,-1,79
 825 532 825 532 836 522 c 2,80,-1
 973 385 l 2,81,82
 996 362 996 362 973 340 c 0,83,84
 963 330 963 330 949.5 330 c 128,-1,85
 936 330 936 330 926 340 c 2,86,-1
 846 420 l 1,87,-1
 846 297 l 2,88,89
 846 283 846 283 835.5 273.5 c 128,-1,90
 825 264 825 264 813 264 c 0,91,92
 780 264 780 264 780 297 c 2,93,-1
 780 420 l 1,94,-1
 698 340 l 2,95,96
 688 330 688 330 675 330 c 128,-1,97
 662 330 662 330 651 340 c 0,98,74
 641 350 641 350 641 362.5 c 128,-1,75
748 985 m 2,99,-1
 748 1116 l 2,100,101
 748 1145 748 1145 766 1163.5 c 128,-1,102
 784 1182 784 1182 813 1182 c 0,103,104
 840 1182 840 1182 858.5 1163.5 c 128,-1,105
 877 1145 877 1145 877 1116 c 2,106,-1
 877 985 l 2,107,108
 877 958 877 958 858.5 940 c 128,-1,109
 840 922 840 922 813 922 c 0,110,111
 784 922 784 922 766 940 c 128,-1,112
 748 958 748 958 748 985 c 2,99,-1
1161 816 m 0,113,114
 1161 842 1161 842 1180 860 c 2,115,-1
 1270 954 l 2,116,117
 1290 970 1290 970 1317 970 c 128,-1,118
 1344 970 1344 970 1364 954 c 1,119,120
 1380 934 1380 934 1380 907.5 c 128,-1,121
 1380 881 1380 881 1364 860 c 1,122,-1
 1270 770 l 2,123,124
 1252 752 1252 752 1226 752 c 128,-1,125
 1200 752 1200 752 1180 770 c 0,126,127
 1161 788 1161 788 1161 816 c 0,113,114
1331 403 m 0,128,129
 1331 430 1331 430 1349.5 448.5 c 128,-1,130
 1368 467 1368 467 1395 467 c 2,131,-1
 1528 467 l 2,132,133
 1555 467 1555 467 1573 448.5 c 128,-1,134
 1591 430 1591 430 1591 403 c 0,135,136
 1591 374 1591 374 1572.5 356 c 128,-1,137
 1554 338 1554 338 1528 338 c 2,138,-1
 1395 338 l 2,139,140
 1368 338 1368 338 1349.5 356.5 c 128,-1,141
 1331 375 1331 375 1331 403 c 0,128,129
EndSplineSet
Validated: 1
EndChar

StartChar: o
Encoding: 111 111 82
Width: 2007
GlyphClass: 2
Flags: W
LayerCount: 2
Fore
SplineSet
33 514 m 0,0,1
 33 618 33 618 73 709.5 c 128,-1,2
 113 801 113 801 180.5 868.5 c 128,-1,3
 248 936 248 936 340 976 c 128,-1,4
 432 1016 432 1016 537 1016 c 0,5,6
 678 1016 678 1016 793.5 945 c 128,-1,7
 909 874 909 874 975 758 c 1,8,9
 991 762 991 762 1006.5 764 c 128,-1,10
 1022 766 1022 766 1038 766 c 0,11,12
 1116 766 1116 766 1184.5 736.5 c 128,-1,13
 1253 707 1253 707 1304.5 655.5 c 128,-1,14
 1356 604 1356 604 1385.5 534.5 c 128,-1,15
 1415 465 1415 465 1415 387 c 0,16,17
 1415 264 1415 264 1344.5 168 c 128,-1,18
 1274 72 1274 72 1165 33 c 1,19,-1
 1165 170 l 1,20,21
 1220 203 1220 203 1255 260 c 128,-1,22
 1290 317 1290 317 1290 387 c 0,23,24
 1290 438 1290 438 1269.5 484 c 128,-1,25
 1249 530 1249 530 1215.5 565 c 128,-1,26
 1182 600 1182 600 1136 619.5 c 128,-1,27
 1090 639 1090 639 1038 639 c 0,28,29
 964 639 964 639 901 598 c 1,30,31
 887 661 887 661 853 714.5 c 128,-1,32
 819 768 819 768 771 807 c 128,-1,33
 723 846 723 846 663.5 868.5 c 128,-1,34
 604 891 604 891 537 891 c 0,35,36
 459 891 459 891 389 861 c 128,-1,37
 319 831 319 831 268 780 c 128,-1,38
 217 729 217 729 187.5 660.5 c 128,-1,39
 158 592 158 592 158 514 c 0,40,41
 158 430 158 430 192.5 358.5 c 128,-1,42
 227 287 227 287 285 233 c 1,43,-1
 285 78 l 1,44,45
 170 144 170 144 101.5 258.5 c 128,-1,46
 33 373 33 373 33 514 c 0,0,1
410 -53 m 0,47,48
 410 -24 410 -24 428 -7 c 128,-1,49
 446 10 446 10 473 10 c 256,50,51
 500 10 500 10 518.5 -7.5 c 128,-1,52
 537 -25 537 -25 537 -53 c 0,53,54
 537 -78 537 -78 518.5 -96.5 c 128,-1,55
 500 -115 500 -115 473 -115 c 256,56,57
 446 -115 446 -115 428 -96.5 c 128,-1,58
 410 -78 410 -78 410 -53 c 0,47,48
410 201 m 0,59,60
 410 226 410 226 428 244 c 128,-1,61
 446 262 446 262 473 262 c 256,62,63
 500 262 500 262 518.5 243.5 c 128,-1,64
 537 225 537 225 537 201 c 0,65,66
 537 172 537 172 518.5 154.5 c 128,-1,67
 500 137 500 137 473 137 c 256,68,69
 446 137 446 137 428 154.5 c 128,-1,70
 410 172 410 172 410 201 c 0,59,60
662 74 m 256,71,72
 662 101 662 101 680 119 c 128,-1,73
 698 137 698 137 725 137 c 256,74,75
 752 137 752 137 769 118.5 c 128,-1,76
 786 100 786 100 786 74 c 0,77,78
 786 47 786 47 769 28.5 c 128,-1,79
 752 10 752 10 725 10 c 256,80,81
 698 10 698 10 680 28.5 c 128,-1,82
 662 47 662 47 662 74 c 256,71,72
662 -178 m 256,83,84
 662 -151 662 -151 680 -133 c 128,-1,85
 698 -115 698 -115 725 -115 c 256,86,87
 752 -115 752 -115 769 -133.5 c 128,-1,88
 786 -152 786 -152 786 -178 c 0,89,90
 786 -205 786 -205 769 -222.5 c 128,-1,91
 752 -240 752 -240 725 -240 c 256,92,93
 698 -240 698 -240 680 -222.5 c 128,-1,94
 662 -205 662 -205 662 -178 c 256,83,84
911 -53 m 0,95,96
 911 -24 911 -24 930.5 -7 c 128,-1,97
 950 10 950 10 975 10 c 0,98,99
 1002 10 1002 10 1020 -7.5 c 128,-1,100
 1038 -25 1038 -25 1038 -53 c 0,101,102
 1038 -78 1038 -78 1019.5 -96.5 c 128,-1,103
 1001 -115 1001 -115 975 -115 c 0,104,105
 950 -115 950 -115 930.5 -96.5 c 128,-1,106
 911 -78 911 -78 911 -53 c 0,95,96
911 201 m 0,107,108
 911 226 911 226 930.5 244 c 128,-1,109
 950 262 950 262 975 262 c 0,110,111
 1002 262 1002 262 1020 243.5 c 128,-1,112
 1038 225 1038 225 1038 201 c 0,113,114
 1038 172 1038 172 1019.5 154.5 c 128,-1,115
 1001 137 1001 137 975 137 c 0,116,117
 950 137 950 137 930.5 154.5 c 128,-1,118
 911 172 911 172 911 201 c 0,107,108
EndSplineSet
Validated: 1
EndChar

StartChar: p
Encoding: 112 112 83
Width: 2007
GlyphClass: 2
Flags: W
LayerCount: 2
Fore
SplineSet
33 514 m 0,0,1
 33 618 33 618 73 709.5 c 128,-1,2
 113 801 113 801 181.5 868.5 c 128,-1,3
 250 936 250 936 341 976 c 128,-1,4
 432 1016 432 1016 537 1016 c 0,5,6
 611 1016 611 1016 678 993 c 1,7,8
 731 1063 731 1063 808 1103 c 128,-1,9
 885 1143 885 1143 977 1143 c 0,10,11
 1055 1143 1055 1143 1123.5 1113 c 128,-1,12
 1192 1083 1192 1083 1243 1032 c 128,-1,13
 1294 981 1294 981 1324 912.5 c 128,-1,14
 1354 844 1354 844 1354 766 c 0,15,16
 1354 729 1354 729 1346.5 695.5 c 128,-1,17
 1339 662 1339 662 1327 629 c 1,18,19
 1368 582 1368 582 1391.5 520.5 c 128,-1,20
 1415 459 1415 459 1415 387 c 0,21,22
 1415 264 1415 264 1344.5 168 c 128,-1,23
 1274 72 1274 72 1165 33 c 1,24,-1
 1165 170 l 1,25,26
 1222 203 1222 203 1256 260 c 128,-1,27
 1290 317 1290 317 1290 387 c 0,28,29
 1290 438 1290 438 1270.5 484 c 128,-1,30
 1251 530 1251 530 1217.5 565 c 128,-1,31
 1184 600 1184 600 1138 619.5 c 128,-1,32
 1092 639 1092 639 1038 639 c 0,33,34
 964 639 964 639 901 598 c 1,35,36
 887 661 887 661 853 714.5 c 128,-1,37
 819 768 819 768 771 807 c 128,-1,38
 723 846 723 846 663.5 867.5 c 128,-1,39
 604 889 604 889 537 889 c 0,40,41
 459 889 459 889 390.5 859 c 128,-1,42
 322 829 322 829 270.5 779 c 128,-1,43
 219 729 219 729 189.5 660.5 c 128,-1,44
 160 592 160 592 160 514 c 0,45,46
 160 428 160 428 193.5 356.5 c 128,-1,47
 227 285 227 285 287 233 c 1,48,-1
 287 78 l 1,49,50
 172 144 172 144 102.5 258.5 c 128,-1,51
 33 373 33 373 33 514 c 0,0,1
410 -51 m 0,52,53
 410 -26 410 -26 428 -8 c 128,-1,54
 446 10 446 10 475 10 c 0,55,56
 500 10 500 10 518.5 -8.5 c 128,-1,57
 537 -27 537 -27 537 -51 c 0,58,59
 537 -80 537 -80 518.5 -98.5 c 128,-1,60
 500 -117 500 -117 475 -117 c 0,61,62
 446 -117 446 -117 428 -98.5 c 128,-1,63
 410 -80 410 -80 410 -51 c 0,52,53
410 199 m 256,64,65
 410 226 410 226 428 244 c 128,-1,66
 446 262 446 262 475 262 c 0,67,68
 500 262 500 262 518.5 243.5 c 128,-1,69
 537 225 537 225 537 199 c 0,70,71
 537 172 537 172 518.5 154.5 c 128,-1,72
 500 137 500 137 475 137 c 0,73,74
 446 137 446 137 428 154.5 c 128,-1,75
 410 172 410 172 410 199 c 256,64,65
426 1253 m 128,-1,77
 426 1280 426 1280 444 1298 c 0,78,79
 460 1314 460 1314 487 1314.5 c 128,-1,80
 514 1315 514 1315 532 1298 c 2,81,-1
 621 1208 l 2,82,83
 641 1192 641 1192 641 1165.5 c 128,-1,84
 641 1139 641 1139 621 1120 c 0,85,86
 603 1100 603 1100 575.5 1100 c 128,-1,87
 548 1100 548 1100 532 1120 c 2,88,-1
 444 1208 l 2,89,76
 426 1226 426 1226 426 1253 c 128,-1,77
664 72 m 0,90,91
 664 101 664 101 681 119 c 128,-1,92
 698 137 698 137 725 137 c 0,93,94
 750 137 750 137 768 118.5 c 128,-1,95
 786 100 786 100 786 72 c 0,96,97
 786 47 786 47 768 28.5 c 128,-1,98
 750 10 750 10 725 10 c 0,99,100
 698 10 698 10 681 28.5 c 128,-1,101
 664 47 664 47 664 72 c 0,90,91
664 -178 m 0,102,103
 664 -151 664 -151 681 -134 c 128,-1,104
 698 -117 698 -117 725 -117 c 0,105,106
 750 -117 750 -117 768 -134.5 c 128,-1,107
 786 -152 786 -152 786 -178 c 0,108,109
 786 -203 786 -203 768 -221.5 c 128,-1,110
 750 -240 750 -240 725 -240 c 0,111,112
 698 -240 698 -240 681 -221.5 c 128,-1,113
 664 -203 664 -203 664 -178 c 0,102,103
799 942 m 1,114,115
 852 907 852 907 898 861 c 128,-1,116
 944 815 944 815 977 758 c 1,117,118
 991 762 991 762 1006.5 764 c 128,-1,119
 1022 766 1022 766 1038 766 c 0,120,121
 1089 766 1089 766 1135.5 752.5 c 128,-1,122
 1182 739 1182 739 1223 717 c 1,123,124
 1227 727 1227 727 1227 739.5 c 128,-1,125
 1227 752 1227 752 1227 766 c 0,126,127
 1227 817 1227 817 1207.5 863 c 128,-1,128
 1188 909 1188 909 1154 943 c 128,-1,129
 1120 977 1120 977 1074 996.5 c 128,-1,130
 1028 1016 1028 1016 977 1016 c 0,131,132
 924 1016 924 1016 879 996.5 c 128,-1,133
 834 977 834 977 799 942 c 1,114,115
913 -51 m 0,134,135
 913 -26 913 -26 931.5 -8 c 128,-1,136
 950 10 950 10 977 10 c 256,137,138
 1004 10 1004 10 1021 -8.5 c 128,-1,139
 1038 -27 1038 -27 1038 -51 c 0,140,141
 1038 -80 1038 -80 1021 -98.5 c 128,-1,142
 1004 -117 1004 -117 977 -117 c 256,143,144
 950 -117 950 -117 931.5 -98.5 c 128,-1,145
 913 -80 913 -80 913 -51 c 0,134,135
913 199 m 256,146,147
 913 226 913 226 931.5 244 c 128,-1,148
 950 262 950 262 977 262 c 256,149,150
 1004 262 1004 262 1021 243.5 c 128,-1,151
 1038 225 1038 225 1038 199 c 0,152,153
 1038 172 1038 172 1021 154.5 c 128,-1,154
 1004 137 1004 137 977 137 c 256,155,156
 950 137 950 137 931.5 154.5 c 128,-1,157
 913 172 913 172 913 199 c 256,146,147
913 1331 m 2,158,-1
 913 1456 l 2,159,160
 913 1483 913 1483 931.5 1501.5 c 128,-1,161
 950 1520 950 1520 977 1520 c 256,162,163
 1004 1520 1004 1520 1021 1501.5 c 128,-1,164
 1038 1483 1038 1483 1038 1456 c 2,165,-1
 1038 1331 l 2,166,167
 1038 1302 1038 1302 1021 1284 c 128,-1,168
 1004 1266 1004 1266 977 1266 c 256,169,170
 950 1266 950 1266 931.5 1284.5 c 128,-1,171
 913 1303 913 1303 913 1331 c 2,158,-1
1315 1165 m 128,-1,173
 1315 1192 1315 1192 1331 1208 c 2,174,-1
 1419 1298 l 2,175,176
 1437 1314 1437 1314 1464 1314 c 0,177,178
 1465 1315 1465 1315 1466 1315 c 0,179,180
 1492 1315 1492 1315 1509 1298 c 0,181,182
 1527 1280 1527 1280 1527.5 1253.5 c 128,-1,183
 1528 1227 1528 1227 1509 1208 c 2,184,-1
 1419 1120 l 2,185,186
 1403 1100 1403 1100 1376.5 1100 c 128,-1,187
 1350 1100 1350 1100 1331 1120 c 0,188,172
 1315 1138 1315 1138 1315 1165 c 128,-1,173
1481 766 m 0,189,190
 1481 791 1481 791 1497 809 c 128,-1,191
 1513 827 1513 827 1542 827 c 2,192,-1
 1669 827 l 2,193,194
 1694 827 1694 827 1712.5 809 c 128,-1,195
 1731 791 1731 791 1731 766 c 0,196,197
 1731 737 1731 737 1712.5 718.5 c 128,-1,198
 1694 700 1694 700 1669 700 c 2,199,-1
 1542 700 l 2,200,201
 1513 700 1513 700 1497 718.5 c 128,-1,202
 1481 737 1481 737 1481 766 c 0,189,190
EndSplineSet
Validated: 1
EndChar

StartChar: q
Encoding: 113 113 84
Width: 2007
GlyphClass: 2
Flags: W
LayerCount: 2
Fore
SplineSet
33 514 m 0,0,1
 33 618 33 618 73 709.5 c 128,-1,2
 113 801 113 801 181.5 869.5 c 128,-1,3
 250 938 250 938 341 978 c 128,-1,4
 432 1018 432 1018 535 1018 c 0,5,6
 574 1018 574 1018 608.5 1013 c 128,-1,7
 643 1008 643 1008 678 997 c 1,8,9
 731 1063 731 1063 808 1102 c 128,-1,10
 885 1141 885 1141 977 1141 c 0,11,12
 1055 1141 1055 1141 1123.5 1111 c 128,-1,13
 1192 1081 1192 1081 1242 1031 c 128,-1,14
 1292 981 1292 981 1322 912.5 c 128,-1,15
 1352 844 1352 844 1352 766 c 0,16,17
 1352 694 1352 694 1327 631 c 1,18,19
 1415 531 1415 531 1415 387 c 0,20,21
 1415 309 1415 309 1385.5 240.5 c 128,-1,22
 1356 172 1356 172 1305.5 121 c 128,-1,23
 1255 70 1255 70 1186.5 40 c 128,-1,24
 1118 10 1118 10 1040 10 c 2,25,-1
 1008 10 l 1,26,27
 1008 76 1008 76 979 137 c 1,28,-1
 1040 137 l 2,29,30
 1091 137 1091 137 1137.5 156.5 c 128,-1,31
 1184 176 1184 176 1217.5 210 c 128,-1,32
 1251 244 1251 244 1270.5 290 c 128,-1,33
 1290 336 1290 336 1290 387 c 256,34,35
 1290 438 1290 438 1270.5 484 c 128,-1,36
 1251 530 1251 530 1217.5 565 c 128,-1,37
 1184 600 1184 600 1138 619.5 c 128,-1,38
 1092 639 1092 639 1040 639 c 0,39,40
 964 639 964 639 901 598 c 1,41,42
 887 661 887 661 853 714.5 c 128,-1,43
 819 768 819 768 771 807 c 128,-1,44
 723 846 723 846 662.5 868.5 c 128,-1,45
 602 891 602 891 535 891 c 0,46,47
 457 891 457 891 388 861 c 128,-1,48
 319 831 319 831 269 780 c 128,-1,49
 219 729 219 729 189.5 660.5 c 128,-1,50
 160 592 160 592 160 514 c 0,51,52
 160 446 160 446 180 387 c 0,53,54
 215 293 215 293 293 225.5 c 128,-1,55
 371 158 371 158 473 141 c 1,56,57
 459 112 459 112 450.5 81.5 c 128,-1,58
 442 51 442 51 442 18 c 1,59,60
 297 47 297 47 191.5 146.5 c 128,-1,61
 86 246 86 246 49 387 c 0,62,63
 41 418 41 418 37 448.5 c 128,-1,64
 33 479 33 479 33 514 c 0,0,1
424 1255 m 128,-1,66
 424 1282 424 1282 442 1298 c 0,67,68
 460 1316 460 1316 487 1316.5 c 128,-1,69
 514 1317 514 1317 530 1298 c 2,70,-1
 621 1210 l 2,71,72
 639 1190 639 1190 639 1165.5 c 128,-1,73
 639 1141 639 1141 621 1120 c 0,74,75
 603 1102 603 1102 575.5 1102 c 128,-1,76
 548 1102 548 1102 530 1120 c 2,77,-1
 442 1210 l 2,78,65
 424 1228 424 1228 424 1255 c 128,-1,66
567 10.5 m 128,-1,80
 567 41 567 41 578.5 69.5 c 128,-1,81
 590 98 590 98 614 123 c 2,82,-1
 725 233 l 1,83,-1
 836 123 l 2,84,85
 859 98 859 98 870 69.5 c 128,-1,86
 881 41 881 41 881 10.5 c 128,-1,87
 881 -20 881 -20 869.5 -49 c 128,-1,88
 858 -78 858 -78 836 -100 c 0,89,90
 789 -147 789 -147 725.5 -147 c 128,-1,91
 662 -147 662 -147 614 -100 c 0,92,93
 589 -77 589 -77 578 -48.5 c 128,-1,79
 567 -20 567 -20 567 10.5 c 128,-1,80
799 942 m 1,94,95
 912 872 912 872 975 760 c 1,96,97
 991 762 991 762 1007.5 764 c 128,-1,98
 1024 766 1024 766 1040 766 c 0,99,100
 1089 766 1089 766 1135.5 753.5 c 128,-1,101
 1182 741 1182 741 1223 719 c 1,102,103
 1225 729 1225 729 1227 740.5 c 128,-1,104
 1229 752 1229 752 1229 766 c 0,105,106
 1229 817 1229 817 1208.5 863 c 128,-1,107
 1188 909 1188 909 1154 943 c 128,-1,108
 1120 977 1120 977 1074 997.5 c 128,-1,109
 1028 1018 1028 1018 977 1018 c 0,110,111
 924 1018 924 1018 879 997.5 c 128,-1,112
 834 977 834 977 799 942 c 1,94,95
913 1331 m 2,113,-1
 913 1456 l 2,114,115
 913 1485 913 1485 930.5 1502.5 c 128,-1,116
 948 1520 948 1520 977 1520 c 0,117,118
 1002 1520 1002 1520 1021 1502.5 c 128,-1,119
 1040 1485 1040 1485 1040 1456 c 2,120,-1
 1040 1331 l 2,121,122
 1040 1304 1040 1304 1021 1286 c 128,-1,123
 1002 1268 1002 1268 977 1268 c 0,124,125
 948 1268 948 1268 930.5 1286.5 c 128,-1,126
 913 1305 913 1305 913 1331 c 2,113,-1
1313 1165 m 128,-1,128
 1313 1190 1313 1190 1331 1210 c 2,129,-1
 1419 1298 l 2,130,131
 1439 1316 1439 1316 1465 1316 c 0,132,133
 1466 1317 1466 1317 1466 1317 c 1,134,135
 1491 1317 1491 1317 1509 1298 c 0,136,137
 1527 1282 1527 1282 1527.5 1255.5 c 128,-1,138
 1528 1229 1528 1229 1509 1210 c 2,139,-1
 1419 1120 l 2,140,141
 1401 1102 1401 1102 1375.5 1102 c 128,-1,142
 1350 1102 1350 1102 1331 1120 c 0,143,127
 1313 1140 1313 1140 1313 1165 c 128,-1,128
1479 766 m 0,144,145
 1479 793 1479 793 1496 811 c 128,-1,146
 1513 829 1513 829 1542 829 c 2,147,-1
 1667 829 l 2,148,149
 1696 829 1696 829 1713.5 811 c 128,-1,150
 1731 793 1731 793 1731 766 c 0,151,152
 1731 737 1731 737 1713.5 719.5 c 128,-1,153
 1696 702 1696 702 1667 702 c 2,154,-1
 1542 702 l 2,155,156
 1513 702 1513 702 1496 719.5 c 128,-1,157
 1479 737 1479 737 1479 766 c 0,144,145
EndSplineSet
Validated: 1
EndChar

StartChar: r
Encoding: 114 114 85
Width: 2007
GlyphClass: 2
Flags: W
LayerCount: 2
Fore
SplineSet
33 516 m 0,0,1
 33 620 33 620 73 711.5 c 128,-1,2
 113 803 113 803 180.5 870.5 c 128,-1,3
 248 938 248 938 339 977 c 128,-1,4
 430 1016 430 1016 532 1016 c 0,5,6
 571 1016 571 1016 606 1012 c 128,-1,7
 641 1008 641 1008 676 997 c 1,8,9
 729 1063 729 1063 805 1104 c 128,-1,10
 881 1145 881 1145 973 1145 c 0,11,12
 1051 1145 1051 1145 1119.5 1115 c 128,-1,13
 1188 1085 1188 1085 1239 1034 c 128,-1,14
 1290 983 1290 983 1320 914.5 c 128,-1,15
 1350 846 1350 846 1350 766 c 0,16,17
 1350 731 1350 731 1342.5 698.5 c 128,-1,18
 1335 666 1335 666 1325 631 c 1,19,20
 1366 584 1366 584 1389.5 522.5 c 128,-1,21
 1413 461 1413 461 1413 391 c 0,22,23
 1413 330 1413 330 1394.5 273.5 c 128,-1,24
 1376 217 1376 217 1342.5 171 c 128,-1,25
 1309 125 1309 125 1263 90 c 128,-1,26
 1217 55 1217 55 1161 37 c 1,27,-1
 1161 172 l 1,28,29
 1218 205 1218 205 1252 262 c 128,-1,30
 1286 319 1286 319 1286 391 c 0,31,32
 1286 442 1286 442 1266.5 488.5 c 128,-1,33
 1247 535 1247 535 1213.5 568.5 c 128,-1,34
 1180 602 1180 602 1133.5 621.5 c 128,-1,35
 1087 641 1087 641 1036 641 c 0,36,37
 958 641 958 641 901 600 c 1,38,39
 887 661 887 661 852 714.5 c 128,-1,40
 817 768 817 768 769 807 c 128,-1,41
 721 846 721 846 660.5 868.5 c 128,-1,42
 600 891 600 891 532 891 c 0,43,44
 454 891 454 891 385.5 861 c 128,-1,45
 317 831 317 831 267 781 c 128,-1,46
 217 731 217 731 187.5 662.5 c 128,-1,47
 158 594 158 594 158 516 c 0,48,49
 158 430 158 430 191.5 359.5 c 128,-1,50
 225 289 225 289 283 236 c 1,51,-1
 283 82 l 1,52,53
 170 148 170 148 101.5 261.5 c 128,-1,54
 33 375 33 375 33 516 c 0,0,1
408 -174 m 256,55,56
 408 -147 408 -147 426 -129 c 128,-1,57
 444 -111 444 -111 471 -111 c 256,58,59
 498 -111 498 -111 515 -129 c 128,-1,60
 532 -147 532 -147 532 -174 c 256,61,62
 532 -201 532 -201 515 -218.5 c 128,-1,63
 498 -236 498 -236 471 -236 c 256,64,65
 444 -236 444 -236 426 -218.5 c 128,-1,66
 408 -201 408 -201 408 -174 c 256,55,56
422 1253 m 128,-1,68
 422 1280 422 1280 440 1300 c 0,69,70
 458 1316 458 1316 485 1316.5 c 128,-1,71
 512 1317 512 1317 530 1300 c 2,72,-1
 616 1210 l 2,73,74
 636 1192 636 1192 636.5 1166.5 c 128,-1,75
 637 1141 637 1141 616 1122 c 0,76,77
 600 1104 600 1104 573 1104 c 128,-1,78
 546 1104 546 1104 530 1122 c 2,79,-1
 440 1210 l 2,80,67
 422 1226 422 1226 422 1253 c 128,-1,68
438 78 m 2,81,-1
 438 328 l 2,82,83
 438 353 438 353 441 372 c 128,-1,84
 444 391 444 391 471 391 c 256,85,86
 498 391 498 391 500 371.5 c 128,-1,87
 502 352 502 352 502 328 c 2,88,-1
 502 78 l 2,89,90
 502 49 502 49 500 31.5 c 128,-1,91
 498 14 498 14 471 14 c 256,92,93
 444 14 444 14 441 31.5 c 128,-1,94
 438 49 438 49 438 78 c 2,81,-1
662 -301 m 0,95,96
 662 -272 662 -272 679 -254 c 128,-1,97
 696 -236 696 -236 721 -236 c 0,98,99
 750 -236 750 -236 768 -254 c 128,-1,100
 786 -272 786 -272 786 -301 c 0,101,102
 786 -328 786 -328 768 -346.5 c 128,-1,103
 750 -365 750 -365 721 -365 c 0,104,105
 696 -365 696 -365 679 -346.5 c 128,-1,106
 662 -328 662 -328 662 -301 c 0,95,96
692 -49 m 2,107,-1
 692 203 l 2,108,109
 692 228 692 228 694 246 c 128,-1,110
 696 264 696 264 721 264 c 0,111,112
 750 264 750 264 751 245.5 c 128,-1,113
 752 227 752 227 752 203 c 2,114,-1
 752 -49 l 2,115,116
 752 -76 752 -76 751 -93.5 c 128,-1,117
 750 -111 750 -111 721 -111 c 0,118,119
 696 -111 696 -111 694 -93.5 c 128,-1,120
 692 -76 692 -76 692 -49 c 2,107,-1
797 942 m 1,121,122
 910 876 910 876 973 762 c 1,123,124
 989 764 989 764 1004.5 765 c 128,-1,125
 1020 766 1020 766 1036 766 c 0,126,127
 1136 766 1136 766 1219 719 c 1,128,129
 1225 739 1225 739 1225 766 c 0,130,131
 1225 817 1225 817 1205.5 863 c 128,-1,132
 1186 909 1186 909 1151 943 c 128,-1,133
 1116 977 1116 977 1070 996.5 c 128,-1,134
 1024 1016 1024 1016 973 1016 c 0,135,136
 867 1016 867 1016 797 942 c 1,121,122
911 -174 m 256,137,138
 911 -147 911 -147 928.5 -129 c 128,-1,139
 946 -111 946 -111 973 -111 c 256,140,141
 1000 -111 1000 -111 1018 -129 c 128,-1,142
 1036 -147 1036 -147 1036 -174 c 256,143,144
 1036 -201 1036 -201 1017.5 -218.5 c 128,-1,145
 999 -236 999 -236 973 -236 c 0,146,147
 946 -236 946 -236 928.5 -218.5 c 128,-1,148
 911 -201 911 -201 911 -174 c 256,137,138
911 1331 m 2,149,-1
 911 1456 l 2,150,151
 911 1483 911 1483 928.5 1501.5 c 128,-1,152
 946 1520 946 1520 973 1520 c 256,153,154
 1000 1520 1000 1520 1018 1501.5 c 128,-1,155
 1036 1483 1036 1483 1036 1456 c 2,156,-1
 1036 1331 l 2,157,158
 1036 1306 1036 1306 1018 1288 c 128,-1,159
 1000 1270 1000 1270 973 1270 c 256,160,161
 946 1270 946 1270 928.5 1288.5 c 128,-1,162
 911 1307 911 1307 911 1331 c 2,149,-1
942 78 m 2,163,-1
 942 328 l 2,164,165
 942 353 942 353 944 372 c 128,-1,166
 946 391 946 391 973 391 c 256,167,168
 1000 391 1000 391 1003 371.5 c 128,-1,169
 1006 352 1006 352 1006 328 c 2,170,-1
 1006 78 l 2,171,172
 1006 49 1006 49 1003 31.5 c 128,-1,173
 1000 14 1000 14 973 14 c 256,174,175
 946 14 946 14 944 31.5 c 128,-1,176
 942 49 942 49 942 78 c 2,163,-1
1311 1166 m 128,-1,178
 1311 1192 1311 1192 1329 1210 c 2,179,-1
 1415 1300 l 2,180,181
 1435 1316 1435 1316 1461 1316 c 0,182,183
 1462 1316 1462 1316 1462 1317 c 1,184,185
 1487 1317 1487 1317 1505 1300 c 0,186,187
 1525 1280 1525 1280 1525.5 1253.5 c 128,-1,188
 1526 1227 1526 1227 1505 1210 c 2,189,-1
 1415 1122 l 2,190,191
 1399 1104 1399 1104 1372.5 1104 c 128,-1,192
 1346 1104 1346 1104 1329 1122 c 0,193,177
 1311 1140 1311 1140 1311 1166 c 128,-1,178
1475 766 m 0,194,195
 1475 795 1475 795 1493 813 c 128,-1,196
 1511 831 1511 831 1538 831 c 2,197,-1
 1663 831 l 2,198,199
 1690 831 1690 831 1707 813 c 128,-1,200
 1724 795 1724 795 1724 766 c 0,201,202
 1724 739 1724 739 1707 720.5 c 128,-1,203
 1690 702 1690 702 1663 702 c 2,204,-1
 1538 702 l 2,205,206
 1511 702 1511 702 1493 720.5 c 128,-1,207
 1475 739 1475 739 1475 766 c 0,194,195
EndSplineSet
Validated: 1
EndChar

StartChar: s
Encoding: 115 115 86
Width: 2007
GlyphClass: 2
Flags: W
LayerCount: 2
Fore
SplineSet
33 74 m 256,0,1
 33 101 33 101 51.5 118 c 128,-1,2
 70 135 70 135 96 135 c 2,3,-1
 1352 135 l 2,4,5
 1379 135 1379 135 1396 117.5 c 128,-1,6
 1413 100 1413 100 1413 74 c 0,7,8
 1413 47 1413 47 1396 28.5 c 128,-1,9
 1379 10 1379 10 1352 10 c 2,10,-1
 96 10 l 2,11,12
 69 10 69 10 51 28.5 c 128,-1,13
 33 47 33 47 33 74 c 256,0,1
33 -178 m 256,14,15
 33 -151 33 -151 51 -133 c 128,-1,16
 69 -115 69 -115 96 -115 c 2,17,-1
 1352 -115 l 2,18,19
 1379 -115 1379 -115 1396 -133.5 c 128,-1,20
 1413 -152 1413 -152 1413 -178 c 0,21,22
 1413 -205 1413 -205 1395.5 -222.5 c 128,-1,23
 1378 -240 1378 -240 1352 -240 c 2,24,-1
 96 -240 l 2,25,26
 69 -240 69 -240 51 -222.5 c 128,-1,27
 33 -205 33 -205 33 -178 c 256,14,15
33 324 m 0,28,29
 33 351 33 351 51.5 369 c 128,-1,30
 70 387 70 387 96 387 c 2,31,-1
 1352 387 l 2,32,33
 1379 387 1379 387 1396 368.5 c 128,-1,34
 1413 350 1413 350 1413 324 c 0,35,36
 1413 299 1413 299 1396 279.5 c 128,-1,37
 1379 260 1379 260 1352 260 c 2,38,-1
 96 260 l 2,39,40
 69 260 69 260 51 279.5 c 128,-1,41
 33 299 33 299 33 324 c 0,28,29
33 514 m 1,42,43
 33 616 33 616 73 707.5 c 128,-1,44
 113 799 113 799 180.5 866.5 c 128,-1,45
 248 934 248 934 339 974 c 128,-1,46
 430 1014 430 1014 535 1014 c 0,47,48
 676 1014 676 1014 791.5 943 c 128,-1,49
 907 872 907 872 973 756 c 1,50,51
 989 760 989 760 1005.5 762 c 128,-1,52
 1022 764 1022 764 1038 764 c 0,53,54
 1161 764 1161 764 1256.5 694.5 c 128,-1,55
 1352 625 1352 625 1391 514 c 1,56,-1
 1253 514 l 1,57,58
 1220 569 1220 569 1164 604 c 128,-1,59
 1108 639 1108 639 1038 639 c 0,60,61
 997 639 997 639 963.5 627.5 c 128,-1,62
 930 616 930 616 901 598 c 1,63,64
 887 659 887 659 853 712.5 c 128,-1,65
 819 766 819 766 770 805 c 128,-1,66
 721 844 721 844 661.5 866.5 c 128,-1,67
 602 889 602 889 535 889 c 0,68,69
 457 889 457 889 388 859 c 128,-1,70
 319 829 319 829 268 779 c 128,-1,71
 217 729 217 729 187.5 660.5 c 128,-1,72
 158 592 158 592 158 514 c 1,73,-1
 33 514 l 1,42,43
EndSplineSet
Validated: 1
EndChar

StartChar: t
Encoding: 116 116 87
Width: 2007
GlyphClass: 2
Flags: W
LayerCount: 2
Fore
SplineSet
33 514 m 0,0,1
 33 618 33 618 73 709.5 c 128,-1,2
 113 801 113 801 180.5 868.5 c 128,-1,3
 248 936 248 936 339 976 c 128,-1,4
 430 1016 430 1016 535 1016 c 0,5,6
 582 1016 582 1016 627 1007.5 c 128,-1,7
 672 999 672 999 713 983 c 1,8,9
 754 1094 754 1094 850 1165.5 c 128,-1,10
 946 1237 946 1237 1071 1237 c 0,11,12
 1104 1237 1104 1237 1139 1231 c 1,13,14
 1137 1215 1137 1215 1135 1202.5 c 128,-1,15
 1133 1190 1133 1190 1133 1174 c 0,16,17
 1133 1121 1133 1121 1152 1075.5 c 128,-1,18
 1171 1030 1171 1030 1206 996.5 c 128,-1,19
 1241 963 1241 963 1286 943.5 c 128,-1,20
 1331 924 1331 924 1384 924 c 0,21,22
 1411 924 1411 924 1442 930 c 1,23,24
 1444 912 1444 912 1446 895.5 c 128,-1,25
 1448 879 1448 879 1448 860 c 0,26,27
 1448 784 1448 784 1421.5 718.5 c 128,-1,28
 1395 653 1395 653 1348 604 c 1,29,30
 1381 557 1381 557 1398 501.5 c 128,-1,31
 1415 446 1415 446 1415 387 c 0,32,33
 1415 326 1415 326 1396.5 269.5 c 128,-1,34
 1378 213 1378 213 1344.5 167 c 128,-1,35
 1311 121 1311 121 1266 86 c 128,-1,36
 1221 51 1221 51 1165 31 c 1,37,-1
 1165 170 l 1,38,39
 1220 203 1220 203 1255 260 c 128,-1,40
 1290 317 1290 317 1290 387 c 0,41,42
 1290 438 1290 438 1270.5 484 c 128,-1,43
 1251 530 1251 530 1216.5 565 c 128,-1,44
 1182 600 1182 600 1136 619.5 c 128,-1,45
 1090 639 1090 639 1038 639 c 0,46,47
 962 639 962 639 903 598 c 1,48,49
 889 661 889 661 854 714.5 c 128,-1,50
 819 768 819 768 771 807 c 128,-1,51
 723 846 723 846 662.5 868.5 c 128,-1,52
 602 891 602 891 535 891 c 0,53,54
 457 891 457 891 388 861 c 128,-1,55
 319 831 319 831 268 780 c 128,-1,56
 217 729 217 729 187.5 660.5 c 128,-1,57
 158 592 158 592 158 514 c 0,58,59
 158 428 158 428 191.5 356.5 c 128,-1,60
 225 285 225 285 283 231 c 1,61,-1
 283 78 l 1,62,63
 170 144 170 144 101.5 258.5 c 128,-1,64
 33 373 33 373 33 514 c 0,0,1
410 -178 m 256,65,66
 410 -151 410 -151 428 -133 c 128,-1,67
 446 -115 446 -115 473 -115 c 0,68,69
 498 -115 498 -115 516.5 -133.5 c 128,-1,70
 535 -152 535 -152 535 -178 c 0,71,72
 535 -205 535 -205 516.5 -223.5 c 128,-1,73
 498 -242 498 -242 473 -242 c 0,74,75
 446 -242 446 -242 428 -223.5 c 128,-1,76
 410 -205 410 -205 410 -178 c 256,65,66
440 72 m 2,77,-1
 440 326 l 2,78,79
 440 351 440 351 443 369 c 128,-1,80
 446 387 446 387 473 387 c 0,81,82
 498 387 498 387 501 368.5 c 128,-1,83
 504 350 504 350 504 326 c 2,84,-1
 504 72 l 2,85,86
 504 45 504 45 501 27.5 c 128,-1,87
 498 10 498 10 473 10 c 0,88,89
 446 10 446 10 443 27.5 c 128,-1,90
 440 45 440 45 440 72 c 2,77,-1
662 -305 m 256,91,92
 662 -278 662 -278 679 -260 c 128,-1,93
 696 -242 696 -242 725 -242 c 0,94,95
 752 -242 752 -242 769 -260.5 c 128,-1,96
 786 -279 786 -279 786 -305 c 0,97,98
 786 -332 786 -332 769 -350.5 c 128,-1,99
 752 -369 752 -369 725 -369 c 0,100,101
 696 -369 696 -369 679 -350.5 c 128,-1,102
 662 -332 662 -332 662 -305 c 256,91,92
694 -53 m 2,103,-1
 694 199 l 2,104,105
 694 226 694 226 695 244 c 128,-1,106
 696 262 696 262 725 262 c 0,107,108
 752 262 752 262 753 243.5 c 128,-1,109
 754 225 754 225 754 199 c 2,110,-1
 754 -53 l 2,111,112
 754 -78 754 -78 753 -96.5 c 128,-1,113
 752 -115 752 -115 725 -115 c 0,114,115
 696 -115 696 -115 695 -96.5 c 128,-1,116
 694 -78 694 -78 694 -53 c 2,103,-1
827 924 m 1,117,118
 872 889 872 889 909 848 c 128,-1,119
 946 807 946 807 975 758 c 1,120,121
 1006 764 1006 764 1038 764 c 0,122,123
 1099 764 1099 764 1155.5 745.5 c 128,-1,124
 1212 727 1212 727 1257 694 c 1,125,126
 1302 743 1302 743 1315 803 c 1,127,128
 1200 826 1200 826 1118.5 907.5 c 128,-1,129
 1037 989 1037 989 1014 1104 c 1,130,131
 944 1088 944 1088 894 1038.5 c 128,-1,132
 844 989 844 989 827 924 c 1,117,118
911 -178 m 256,133,134
 911 -151 911 -151 929.5 -133 c 128,-1,135
 948 -115 948 -115 975 -115 c 256,136,137
 1002 -115 1002 -115 1020 -133.5 c 128,-1,138
 1038 -152 1038 -152 1038 -178 c 0,139,140
 1038 -205 1038 -205 1019.5 -223.5 c 128,-1,141
 1001 -242 1001 -242 975 -242 c 0,142,143
 948 -242 948 -242 929.5 -223.5 c 128,-1,144
 911 -205 911 -205 911 -178 c 256,133,134
944 72 m 2,145,-1
 944 326 l 2,146,147
 944 351 944 351 946 369 c 128,-1,148
 948 387 948 387 975 387 c 256,149,150
 1002 387 1002 387 1005 368.5 c 128,-1,151
 1008 350 1008 350 1008 326 c 2,152,-1
 1008 72 l 2,153,154
 1008 45 1008 45 1005 27.5 c 128,-1,155
 1002 10 1002 10 975 10 c 256,156,157
 948 10 948 10 946 27.5 c 128,-1,158
 944 45 944 45 944 72 c 2,145,-1
EndSplineSet
Validated: 1
EndChar

